<svg width="1312" height="1370" viewBox="0 0 1312 1370" fill="none" xmlns="http://www.w3.org/2000/svg">
<path fill-rule="evenodd" clip-rule="evenodd" d="M731.109 1325.3C662.891 1389.61 557.796 1383.84 496.373 1312.43L42.6942 784.948C-18.73 713.533 -13.222 603.512 54.9955 539.208L558.857 64.2666C627.075 -0.0366689 732.17 5.72954 793.594 77.1445L1247.27 604.623C1308.7 676.038 1303.19 786.059 1234.97 850.362L731.109 1325.3Z" fill="#BBDEFB"/>
<path fill-rule="evenodd" clip-rule="evenodd" d="M765.12 1325.83C702.045 1389.38 604.873 1383.68 548.08 1313.11L124.474 786.722C67.6816 716.149 72.7759 607.427 135.849 543.884L631.879 44.1665C694.955 -19.377 792.126 -13.6771 848.919 56.8931L1272.52 583.278C1329.32 653.851 1324.23 762.573 1261.15 826.116L765.12 1325.83Z" fill="white"/>
<path d="M475.318 502.607V593.607H457.63L429.068 536.67V593.607H411.693V502.607H429.13L457.943 560.17V502.607H475.318ZM487.193 562.107V557.545C487.193 552.253 487.818 547.565 489.068 543.482C490.36 539.399 492.193 535.982 494.568 533.232C496.943 530.44 499.797 528.336 503.13 526.92C506.505 525.461 510.276 524.732 514.443 524.732C518.651 524.732 522.422 525.461 525.755 526.92C529.13 528.336 532.005 530.44 534.38 533.232C536.797 535.982 538.651 539.399 539.943 543.482C541.235 547.565 541.88 552.253 541.88 557.545V562.107C541.88 567.357 541.235 572.024 539.943 576.107C538.651 580.19 536.797 583.628 534.38 586.42C532.005 589.211 529.151 591.315 525.818 592.732C522.485 594.149 518.735 594.857 514.568 594.857C510.401 594.857 506.63 594.149 503.255 592.732C499.922 591.315 497.047 589.211 494.63 586.42C492.214 583.628 490.36 580.19 489.068 576.107C487.818 572.024 487.193 567.357 487.193 562.107ZM504.693 557.545V562.107C504.693 565.232 504.901 567.94 505.318 570.232C505.776 572.524 506.422 574.42 507.255 575.92C508.13 577.42 509.172 578.524 510.38 579.232C511.589 579.94 512.985 580.295 514.568 580.295C516.151 580.295 517.568 579.94 518.818 579.232C520.068 578.524 521.089 577.42 521.88 575.92C522.714 574.42 523.318 572.524 523.693 570.232C524.11 567.94 524.318 565.232 524.318 562.107V557.545C524.318 554.503 524.089 551.836 523.63 549.545C523.172 547.211 522.526 545.315 521.693 543.857C520.86 542.357 519.818 541.232 518.568 540.482C517.36 539.69 515.985 539.295 514.443 539.295C512.901 539.295 511.526 539.69 510.318 540.482C509.151 541.232 508.13 542.357 507.255 543.857C506.422 545.315 505.776 547.211 505.318 549.545C504.901 551.836 504.693 554.503 504.693 557.545ZM582.943 575.357C582.943 574.19 582.547 573.149 581.755 572.232C580.964 571.315 579.714 570.378 578.005 569.42C576.297 568.42 574.026 567.315 571.193 566.107C568.11 564.857 565.38 563.565 563.005 562.232C560.63 560.899 558.61 559.42 556.943 557.795C555.318 556.17 554.089 554.315 553.255 552.232C552.422 550.149 552.005 547.774 552.005 545.107C552.005 542.232 552.526 539.586 553.568 537.17C554.651 534.711 556.193 532.565 558.193 530.732C560.193 528.857 562.63 527.399 565.505 526.357C568.422 525.274 571.693 524.732 575.318 524.732C580.401 524.732 584.755 525.628 588.38 527.42C592.047 529.17 594.86 531.628 596.818 534.795C598.776 537.961 599.755 541.649 599.755 545.857H582.255C582.255 544.357 582.026 543.024 581.568 541.857C581.11 540.649 580.36 539.711 579.318 539.045C578.318 538.378 576.964 538.045 575.255 538.045C574.005 538.045 572.88 538.315 571.88 538.857C570.922 539.399 570.151 540.128 569.568 541.045C569.026 541.92 568.755 542.961 568.755 544.17C568.755 545.086 568.943 545.899 569.318 546.607C569.735 547.315 570.38 548.003 571.255 548.67C572.13 549.336 573.297 550.045 574.755 550.795C576.255 551.503 578.089 552.295 580.255 553.17C584.755 554.836 588.443 556.628 591.318 558.545C594.235 560.461 596.401 562.711 597.818 565.295C599.235 567.836 599.943 570.982 599.943 574.732C599.943 577.732 599.36 580.461 598.193 582.92C597.068 585.378 595.422 587.503 593.255 589.295C591.089 591.086 588.485 592.461 585.443 593.42C582.443 594.378 579.089 594.857 575.38 594.857C569.922 594.857 565.318 593.774 561.568 591.607C557.818 589.44 554.985 586.67 553.068 583.295C551.151 579.878 550.193 576.336 550.193 572.67H566.818C566.901 574.92 567.318 576.69 568.068 577.982C568.86 579.232 569.922 580.107 571.255 580.607C572.589 581.107 574.068 581.357 575.693 581.357C577.318 581.357 578.651 581.149 579.693 580.732C580.776 580.274 581.589 579.586 582.13 578.67C582.672 577.711 582.943 576.607 582.943 575.357ZM455.068 713.295H473.255C473.005 720.128 471.63 725.899 469.13 730.607C466.63 735.274 463.068 738.815 458.443 741.232C453.86 743.649 448.318 744.857 441.818 744.857C436.776 744.857 432.297 744.024 428.38 742.357C424.464 740.649 421.13 738.149 418.38 734.857C415.63 731.565 413.547 727.503 412.13 722.67C410.755 717.795 410.068 712.19 410.068 705.857V690.42C410.068 684.086 410.797 678.482 412.255 673.607C413.755 668.732 415.88 664.649 418.63 661.357C421.422 658.024 424.776 655.524 428.693 653.857C432.651 652.149 437.11 651.295 442.068 651.295C448.693 651.295 454.235 652.545 458.693 655.045C463.151 657.545 466.589 661.19 469.005 665.982C471.464 670.732 472.943 676.545 473.443 683.42H455.193C455.068 679.086 454.568 675.69 453.693 673.232C452.86 670.732 451.526 668.982 449.693 667.982C447.86 666.94 445.318 666.42 442.068 666.42C439.651 666.42 437.568 666.857 435.818 667.732C434.068 668.565 432.63 669.92 431.505 671.795C430.38 673.67 429.547 676.128 429.005 679.17C428.505 682.211 428.255 685.92 428.255 690.295V705.857C428.255 710.149 428.485 713.815 428.943 716.857C429.401 719.857 430.13 722.315 431.13 724.232C432.13 726.149 433.485 727.545 435.193 728.42C436.943 729.295 439.151 729.732 441.818 729.732C444.901 729.732 447.38 729.274 449.255 728.357C451.172 727.44 452.589 725.795 453.505 723.42C454.422 721.045 454.943 717.67 455.068 713.295ZM481.818 712.107V707.545C481.818 702.253 482.443 697.565 483.693 693.482C484.985 689.399 486.818 685.982 489.193 683.232C491.568 680.44 494.422 678.336 497.755 676.92C501.13 675.461 504.901 674.732 509.068 674.732C513.276 674.732 517.047 675.461 520.38 676.92C523.755 678.336 526.63 680.44 529.005 683.232C531.422 685.982 533.276 689.399 534.568 693.482C535.86 697.565 536.505 702.253 536.505 707.545V712.107C536.505 717.357 535.86 722.024 534.568 726.107C533.276 730.19 531.422 733.628 529.005 736.42C526.63 739.211 523.776 741.315 520.443 742.732C517.11 744.149 513.36 744.857 509.193 744.857C505.026 744.857 501.255 744.149 497.88 742.732C494.547 741.315 491.672 739.211 489.255 736.42C486.839 733.628 484.985 730.19 483.693 726.107C482.443 722.024 481.818 717.357 481.818 712.107ZM499.318 707.545V712.107C499.318 715.232 499.526 717.94 499.943 720.232C500.401 722.524 501.047 724.42 501.88 725.92C502.755 727.42 503.797 728.524 505.005 729.232C506.214 729.94 507.61 730.295 509.193 730.295C510.776 730.295 512.193 729.94 513.443 729.232C514.693 728.524 515.714 727.42 516.505 725.92C517.339 724.42 517.943 722.524 518.318 720.232C518.735 717.94 518.943 715.232 518.943 712.107V707.545C518.943 704.503 518.714 701.836 518.255 699.545C517.797 697.211 517.151 695.315 516.318 693.857C515.485 692.357 514.443 691.232 513.193 690.482C511.985 689.69 510.61 689.295 509.068 689.295C507.526 689.295 506.151 689.69 504.943 690.482C503.776 691.232 502.755 692.357 501.88 693.857C501.047 695.315 500.401 697.211 499.943 699.545C499.526 701.836 499.318 704.503 499.318 707.545ZM565.193 689.982V743.607H547.63V675.982H564.13L565.193 689.982ZM562.693 707.482L557.88 707.607C557.797 702.857 558.214 698.482 559.13 694.482C560.047 690.482 561.422 687.003 563.255 684.045C565.13 681.086 567.485 678.795 570.318 677.17C573.151 675.545 576.464 674.732 580.255 674.732C582.714 674.732 584.985 675.19 587.068 676.107C589.151 676.982 590.964 678.378 592.505 680.295C594.047 682.17 595.235 684.628 596.068 687.67C596.901 690.67 597.318 694.274 597.318 698.482V743.607H579.818V700.607C579.818 697.607 579.526 695.315 578.943 693.732C578.36 692.107 577.526 690.982 576.443 690.357C575.36 689.69 574.026 689.357 572.443 689.357C570.776 689.357 569.318 689.815 568.068 690.732C566.818 691.649 565.797 692.94 565.005 694.607C564.255 696.232 563.672 698.149 563.255 700.357C562.88 702.565 562.693 704.94 562.693 707.482ZM595.63 705.732L589.318 706.545C589.235 702.086 589.63 697.94 590.505 694.107C591.38 690.232 592.735 686.857 594.568 683.982C596.401 681.065 598.693 678.795 601.443 677.17C604.235 675.545 607.464 674.732 611.13 674.732C613.88 674.732 616.38 675.19 618.63 676.107C620.88 677.024 622.797 678.503 624.38 680.545C626.005 682.545 627.235 685.19 628.068 688.482C628.943 691.774 629.38 695.774 629.38 700.482V743.607H611.818V700.545C611.818 697.503 611.526 695.17 610.943 693.545C610.36 691.92 609.526 690.815 608.443 690.232C607.36 689.649 606.068 689.357 604.568 689.357C603.068 689.357 601.755 689.774 600.63 690.607C599.547 691.44 598.63 692.607 597.88 694.107C597.13 695.565 596.568 697.295 596.193 699.295C595.818 701.253 595.63 703.399 595.63 705.732ZM660.068 688.982V769.607H642.63V675.982H658.755L660.068 688.982ZM695.193 707.482V711.982C695.193 717.274 694.735 721.961 693.818 726.045C692.901 730.086 691.526 733.524 689.693 736.357C687.901 739.149 685.651 741.274 682.943 742.732C680.235 744.149 677.068 744.857 673.443 744.857C670.068 744.857 667.151 744.065 664.693 742.482C662.276 740.857 660.235 738.628 658.568 735.795C656.901 732.961 655.568 729.649 654.568 725.857C653.568 722.065 652.797 718.003 652.255 713.67V706.67C652.755 702.045 653.485 697.795 654.443 693.92C655.401 690.003 656.714 686.607 658.38 683.732C660.089 680.857 662.151 678.649 664.568 677.107C667.026 675.524 669.943 674.732 673.318 674.732C676.985 674.732 680.172 675.399 682.88 676.732C685.63 678.065 687.901 680.086 689.693 682.795C691.526 685.461 692.901 688.857 693.818 692.982C694.735 697.107 695.193 701.94 695.193 707.482ZM677.693 711.982V707.482C677.693 704.232 677.505 701.461 677.13 699.17C676.797 696.878 676.255 695.003 675.505 693.545C674.755 692.086 673.776 691.024 672.568 690.357C671.36 689.69 669.88 689.357 668.13 689.357C666.422 689.357 664.922 689.69 663.63 690.357C662.38 691.024 661.36 692.003 660.568 693.295C659.776 694.545 659.172 696.086 658.755 697.92C658.339 699.711 658.11 701.753 658.068 704.045V716.295C658.151 719.003 658.505 721.399 659.13 723.482C659.797 725.565 660.86 727.232 662.318 728.482C663.776 729.69 665.755 730.295 668.255 730.295C670.047 730.295 671.526 729.92 672.693 729.17C673.901 728.42 674.88 727.295 675.63 725.795C676.38 724.295 676.901 722.399 677.193 720.107C677.526 717.815 677.693 715.107 677.693 711.982ZM733.193 744.857C728.568 744.857 724.464 744.149 720.88 742.732C717.339 741.315 714.339 739.274 711.88 736.607C709.422 733.899 707.547 730.628 706.255 726.795C704.964 722.961 704.318 718.586 704.318 713.67V708.107C704.318 702.607 704.943 697.795 706.193 693.67C707.443 689.503 709.214 686.003 711.505 683.17C713.797 680.336 716.61 678.232 719.943 676.857C723.318 675.44 727.13 674.732 731.38 674.732C735.63 674.732 739.36 675.44 742.568 676.857C745.818 678.232 748.505 680.315 750.63 683.107C752.755 685.857 754.36 689.274 755.443 693.357C756.526 697.44 757.068 702.19 757.068 707.607V715.607H711.755V703.295H739.88V701.732C739.88 698.982 739.589 696.69 739.005 694.857C738.422 692.982 737.505 691.586 736.255 690.67C735.005 689.753 733.339 689.295 731.255 689.295C729.505 689.295 728.026 689.649 726.818 690.357C725.61 691.065 724.651 692.17 723.943 693.67C723.235 695.17 722.714 697.128 722.38 699.545C722.047 701.92 721.88 704.774 721.88 708.107V713.67C721.88 716.795 722.151 719.42 722.693 721.545C723.235 723.628 724.026 725.336 725.068 726.67C726.151 727.961 727.464 728.899 729.005 729.482C730.547 730.024 732.339 730.295 734.38 730.295C737.464 730.295 740.235 729.753 742.693 728.67C745.193 727.545 747.318 726.024 749.068 724.107L756.068 734.732C754.86 736.315 753.193 737.899 751.068 739.482C748.943 741.065 746.401 742.357 743.443 743.357C740.485 744.357 737.068 744.857 733.193 744.857ZM796.693 675.982V689.17H762.193V675.982H796.693ZM770.13 659.295H787.568V722.982C787.568 724.857 787.755 726.295 788.13 727.295C788.505 728.295 789.068 729.003 789.818 729.42C790.61 729.795 791.651 729.982 792.943 729.982C793.818 729.982 794.63 729.94 795.38 729.857C796.13 729.732 796.693 729.607 797.068 729.482V743.17C795.693 743.711 794.235 744.128 792.693 744.42C791.193 744.711 789.401 744.857 787.318 744.857C783.818 744.857 780.776 744.19 778.193 742.857C775.651 741.524 773.672 739.399 772.255 736.482C770.839 733.524 770.13 729.649 770.13 724.857V659.295ZM833.693 744.857C829.068 744.857 824.964 744.149 821.38 742.732C817.839 741.315 814.839 739.274 812.38 736.607C809.922 733.899 808.047 730.628 806.755 726.795C805.464 722.961 804.818 718.586 804.818 713.67V708.107C804.818 702.607 805.443 697.795 806.693 693.67C807.943 689.503 809.714 686.003 812.005 683.17C814.297 680.336 817.11 678.232 820.443 676.857C823.818 675.44 827.63 674.732 831.88 674.732C836.13 674.732 839.86 675.44 843.068 676.857C846.318 678.232 849.005 680.315 851.13 683.107C853.255 685.857 854.86 689.274 855.943 693.357C857.026 697.44 857.568 702.19 857.568 707.607V715.607H812.255V703.295H840.38V701.732C840.38 698.982 840.089 696.69 839.505 694.857C838.922 692.982 838.005 691.586 836.755 690.67C835.505 689.753 833.839 689.295 831.755 689.295C830.005 689.295 828.526 689.649 827.318 690.357C826.11 691.065 825.151 692.17 824.443 693.67C823.735 695.17 823.214 697.128 822.88 699.545C822.547 701.92 822.38 704.774 822.38 708.107V713.67C822.38 716.795 822.651 719.42 823.193 721.545C823.735 723.628 824.526 725.336 825.568 726.67C826.651 727.961 827.964 728.899 829.505 729.482C831.047 730.024 832.839 730.295 834.88 730.295C837.964 730.295 840.735 729.753 843.193 728.67C845.693 727.545 847.818 726.024 849.568 724.107L856.568 734.732C855.36 736.315 853.693 737.899 851.568 739.482C849.443 741.065 846.901 742.357 843.943 743.357C840.985 744.357 837.568 744.857 833.693 744.857ZM884.88 690.42V743.607H867.318V675.982H883.755L884.88 690.42ZM882.255 707.482L877.568 707.607C877.485 702.524 877.964 697.961 879.005 693.92C880.089 689.878 881.61 686.44 883.568 683.607C885.568 680.732 887.943 678.545 890.693 677.045C893.485 675.503 896.589 674.732 900.005 674.732C902.63 674.732 905.026 675.19 907.193 676.107C909.401 677.024 911.297 678.482 912.88 680.482C914.464 682.482 915.693 685.149 916.568 688.482C917.443 691.774 917.88 695.815 917.88 700.607V743.607H900.318V700.482C900.318 697.565 900.026 695.315 899.443 693.732C898.86 692.107 897.985 690.982 896.818 690.357C895.651 689.69 894.193 689.357 892.443 689.357C890.776 689.357 889.297 689.836 888.005 690.795C886.714 691.711 885.63 692.982 884.755 694.607C883.922 696.232 883.276 698.149 882.818 700.357C882.401 702.565 882.214 704.94 882.255 707.482ZM955.13 730.295C956.755 730.295 958.151 729.961 959.318 729.295C960.526 728.628 961.443 727.545 962.068 726.045C962.693 724.545 963.026 722.607 963.068 720.232H979.505C979.505 725.315 978.422 729.711 976.255 733.42C974.13 737.086 971.255 739.92 967.63 741.92C964.047 743.878 959.985 744.857 955.443 744.857C950.901 744.857 946.943 744.128 943.568 742.67C940.193 741.211 937.401 739.086 935.193 736.295C933.026 733.503 931.38 730.107 930.255 726.107C929.172 722.065 928.63 717.44 928.63 712.232V707.295C928.63 702.17 929.172 697.586 930.255 693.545C931.38 689.503 933.026 686.086 935.193 683.295C937.401 680.503 940.172 678.378 943.505 676.92C946.88 675.461 950.839 674.732 955.38 674.732C960.255 674.732 964.485 675.753 968.068 677.795C971.651 679.795 974.443 682.753 976.443 686.67C978.485 690.586 979.505 695.42 979.505 701.17H963.068C963.026 698.586 962.714 696.44 962.13 694.732C961.589 692.982 960.735 691.649 959.568 690.732C958.443 689.774 956.943 689.295 955.068 689.295C953.11 689.295 951.526 689.711 950.318 690.545C949.151 691.336 948.255 692.503 947.63 694.045C947.047 695.545 946.651 697.42 946.443 699.67C946.235 701.92 946.13 704.461 946.13 707.295V712.232C946.13 715.274 946.214 717.92 946.38 720.17C946.589 722.378 946.985 724.253 947.568 725.795C948.193 727.295 949.089 728.42 950.255 729.17C951.464 729.92 953.089 730.295 955.13 730.295ZM1016.82 744.857C1012.19 744.857 1008.09 744.149 1004.51 742.732C1000.96 741.315 997.964 739.274 995.505 736.607C993.047 733.899 991.172 730.628 989.88 726.795C988.589 722.961 987.943 718.586 987.943 713.67V708.107C987.943 702.607 988.568 697.795 989.818 693.67C991.068 689.503 992.839 686.003 995.13 683.17C997.422 680.336 1000.23 678.232 1003.57 676.857C1006.94 675.44 1010.76 674.732 1015.01 674.732C1019.26 674.732 1022.98 675.44 1026.19 676.857C1029.44 678.232 1032.13 680.315 1034.26 683.107C1036.38 685.857 1037.98 689.274 1039.07 693.357C1040.15 697.44 1040.69 702.19 1040.69 707.607V715.607H995.38V703.295H1023.51V701.732C1023.51 698.982 1023.21 696.69 1022.63 694.857C1022.05 692.982 1021.13 691.586 1019.88 690.67C1018.63 689.753 1016.96 689.295 1014.88 689.295C1013.13 689.295 1011.65 689.649 1010.44 690.357C1009.23 691.065 1008.28 692.17 1007.57 693.67C1006.86 695.17 1006.34 697.128 1006.01 699.545C1005.67 701.92 1005.51 704.774 1005.51 708.107V713.67C1005.51 716.795 1005.78 719.42 1006.32 721.545C1006.86 723.628 1007.65 725.336 1008.69 726.67C1009.78 727.961 1011.09 728.899 1012.63 729.482C1014.17 730.024 1015.96 730.295 1018.01 730.295C1021.09 730.295 1023.86 729.753 1026.32 728.67C1028.82 727.545 1030.94 726.024 1032.69 724.107L1039.69 734.732C1038.48 736.315 1036.82 737.899 1034.69 739.482C1032.57 741.065 1030.03 742.357 1027.07 743.357C1024.11 744.357 1020.69 744.857 1016.82 744.857ZM1080.82 725.357C1080.82 724.19 1080.42 723.149 1079.63 722.232C1078.84 721.315 1077.59 720.378 1075.88 719.42C1074.17 718.42 1071.9 717.315 1069.07 716.107C1065.98 714.857 1063.26 713.565 1060.88 712.232C1058.51 710.899 1056.48 709.42 1054.82 707.795C1053.19 706.17 1051.96 704.315 1051.13 702.232C1050.3 700.149 1049.88 697.774 1049.88 695.107C1049.88 692.232 1050.4 689.586 1051.44 687.17C1052.53 684.711 1054.07 682.565 1056.07 680.732C1058.07 678.857 1060.51 677.399 1063.38 676.357C1066.3 675.274 1069.57 674.732 1073.19 674.732C1078.28 674.732 1082.63 675.628 1086.26 677.42C1089.92 679.17 1092.73 681.628 1094.69 684.795C1096.65 687.961 1097.63 691.649 1097.63 695.857H1080.13C1080.13 694.357 1079.9 693.024 1079.44 691.857C1078.98 690.649 1078.23 689.711 1077.19 689.045C1076.19 688.378 1074.84 688.045 1073.13 688.045C1071.88 688.045 1070.76 688.315 1069.76 688.857C1068.8 689.399 1068.03 690.128 1067.44 691.045C1066.9 691.92 1066.63 692.961 1066.63 694.17C1066.63 695.086 1066.82 695.899 1067.19 696.607C1067.61 697.315 1068.26 698.003 1069.13 698.67C1070.01 699.336 1071.17 700.045 1072.63 700.795C1074.13 701.503 1075.96 702.295 1078.13 703.17C1082.63 704.836 1086.32 706.628 1089.19 708.545C1092.11 710.461 1094.28 712.711 1095.69 715.295C1097.11 717.836 1097.82 720.982 1097.82 724.732C1097.82 727.732 1097.23 730.461 1096.07 732.92C1094.94 735.378 1093.3 737.503 1091.13 739.295C1088.96 741.086 1086.36 742.461 1083.32 743.42C1080.32 744.378 1076.96 744.857 1073.26 744.857C1067.8 744.857 1063.19 743.774 1059.44 741.607C1055.69 739.44 1052.86 736.67 1050.94 733.295C1049.03 729.878 1048.07 726.336 1048.07 722.67H1064.69C1064.78 724.92 1065.19 726.69 1065.94 727.982C1066.73 729.232 1067.8 730.107 1069.13 730.607C1070.46 731.107 1071.94 731.357 1073.57 731.357C1075.19 731.357 1076.53 731.149 1077.57 730.732C1078.65 730.274 1079.46 729.586 1080.01 728.67C1080.55 727.711 1080.82 726.607 1080.82 725.357Z" fill="#4F6CA4"/>
</svg>
