<svg width="617" height="431" viewBox="0 0 617 431" fill="none" xmlns="http://www.w3.org/2000/svg">
<rect width="617" height="431" rx="16" fill="#4F6CA4" fill-opacity="0.05"/>
<rect x="181" y="43" width="362" height="75" rx="16" fill="white"/>
<path d="M199.394 89V74.3H205.988C207.682 74.3 208.984 74.643 209.894 75.329C210.804 76.001 211.259 76.925 211.259 78.101C211.259 78.899 211.077 79.571 210.713 80.117C210.363 80.663 209.887 81.083 209.285 81.377C208.683 81.671 208.032 81.818 207.332 81.818L207.71 81.188C208.55 81.188 209.292 81.335 209.936 81.629C210.58 81.923 211.091 82.357 211.469 82.931C211.847 83.491 212.036 84.191 212.036 85.031C212.036 86.291 211.56 87.271 210.608 87.971C209.67 88.657 208.27 89 206.408 89H199.394ZM201.494 87.299H206.324C207.486 87.299 208.375 87.103 208.991 86.711C209.607 86.319 209.915 85.703 209.915 84.863C209.915 84.009 209.607 83.386 208.991 82.994C208.375 82.602 207.486 82.406 206.324 82.406H201.305V80.705H205.799C206.863 80.705 207.689 80.509 208.277 80.117C208.865 79.725 209.159 79.137 209.159 78.353C209.159 77.569 208.865 76.981 208.277 76.589C207.689 76.197 206.863 76.001 205.799 76.001H201.494V87.299ZM219.677 89.126C218.725 89.126 217.885 88.951 217.157 88.601C216.443 88.251 215.883 87.719 215.477 87.005C215.085 86.277 214.889 85.367 214.889 84.275V77.87H216.905V84.044C216.905 85.136 217.164 85.955 217.682 86.501C218.214 87.047 218.956 87.32 219.908 87.32C220.608 87.32 221.217 87.18 221.735 86.9C222.253 86.606 222.652 86.186 222.932 85.64C223.212 85.08 223.352 84.408 223.352 83.624V77.87H225.368V89H223.457V85.997L223.772 86.795C223.408 87.537 222.862 88.111 222.134 88.517C221.406 88.923 220.587 89.126 219.677 89.126ZM229.205 89V77.87H231.137V80.894L230.948 80.138C231.256 79.368 231.774 78.78 232.502 78.374C233.23 77.968 234.126 77.765 235.19 77.765V79.718C235.106 79.704 235.022 79.697 234.938 79.697C234.868 79.697 234.798 79.697 234.728 79.697C233.65 79.697 232.796 80.019 232.166 80.663C231.536 81.307 231.221 82.238 231.221 83.456V89H229.205ZM242.529 89.126C241.339 89.126 240.289 88.881 239.379 88.391C238.483 87.901 237.783 87.229 237.279 86.375C236.789 85.521 236.544 84.541 236.544 83.435C236.544 82.329 236.782 81.349 237.258 80.495C237.748 79.641 238.413 78.976 239.253 78.5C240.107 78.01 241.066 77.765 242.13 77.765C243.208 77.765 244.16 78.003 244.986 78.479C245.812 78.955 246.456 79.627 246.918 80.495C247.394 81.349 247.632 82.35 247.632 83.498C247.632 83.582 247.625 83.68 247.611 83.792C247.611 83.904 247.604 84.009 247.59 84.107H238.119V82.658H246.54L245.721 83.162C245.735 82.448 245.588 81.811 245.28 81.251C244.972 80.691 244.545 80.257 243.999 79.949C243.467 79.627 242.844 79.466 242.13 79.466C241.43 79.466 240.807 79.627 240.261 79.949C239.715 80.257 239.288 80.698 238.98 81.272C238.672 81.832 238.518 82.476 238.518 83.204V83.54C238.518 84.282 238.686 84.947 239.022 85.535C239.372 86.109 239.855 86.557 240.471 86.879C241.087 87.201 241.794 87.362 242.592 87.362C243.25 87.362 243.845 87.25 244.377 87.026C244.923 86.802 245.399 86.466 245.805 86.018L246.918 87.32C246.414 87.908 245.784 88.356 245.028 88.664C244.286 88.972 243.453 89.126 242.529 89.126ZM257.032 89V86.648L256.927 86.207V82.196C256.927 81.342 256.675 80.684 256.171 80.222C255.681 79.746 254.939 79.508 253.945 79.508C253.287 79.508 252.643 79.62 252.013 79.844C251.383 80.054 250.851 80.341 250.417 80.705L249.577 79.193C250.151 78.731 250.837 78.381 251.635 78.143C252.447 77.891 253.294 77.765 254.176 77.765C255.702 77.765 256.878 78.136 257.704 78.878C258.53 79.62 258.943 80.754 258.943 82.28V89H257.032ZM253.378 89.126C252.552 89.126 251.824 88.986 251.194 88.706C250.578 88.426 250.102 88.041 249.766 87.551C249.43 87.047 249.262 86.48 249.262 85.85C249.262 85.248 249.402 84.702 249.682 84.212C249.976 83.722 250.445 83.33 251.089 83.036C251.747 82.742 252.629 82.595 253.735 82.595H257.263V84.044H253.819C252.811 84.044 252.132 84.212 251.782 84.548C251.432 84.884 251.257 85.29 251.257 85.766C251.257 86.312 251.474 86.753 251.908 87.089C252.342 87.411 252.944 87.572 253.714 87.572C254.47 87.572 255.128 87.404 255.688 87.068C256.262 86.732 256.675 86.242 256.927 85.598L257.326 86.984C257.06 87.642 256.591 88.167 255.919 88.559C255.247 88.937 254.4 89.126 253.378 89.126ZM267.357 89.126C266.405 89.126 265.565 88.951 264.837 88.601C264.123 88.251 263.563 87.719 263.157 87.005C262.765 86.277 262.569 85.367 262.569 84.275V77.87H264.585V84.044C264.585 85.136 264.844 85.955 265.362 86.501C265.894 87.047 266.636 87.32 267.588 87.32C268.288 87.32 268.897 87.18 269.415 86.9C269.933 86.606 270.332 86.186 270.612 85.64C270.892 85.08 271.032 84.408 271.032 83.624V77.87H273.048V89H271.137V85.997L271.452 86.795C271.088 87.537 270.542 88.111 269.814 88.517C269.086 88.923 268.267 89.126 267.357 89.126ZM280.708 89.126C279.588 89.126 278.72 88.825 278.104 88.223C277.488 87.621 277.18 86.76 277.18 85.64V75.434H279.196V85.556C279.196 86.158 279.343 86.62 279.637 86.942C279.945 87.264 280.379 87.425 280.939 87.425C281.569 87.425 282.094 87.25 282.514 86.9L283.144 88.349C282.836 88.615 282.465 88.811 282.031 88.937C281.611 89.063 281.17 89.126 280.708 89.126ZM275.29 79.529V77.87H282.388V79.529H275.29ZM285.581 89V77.87H287.597V89H285.581ZM286.589 75.728C286.197 75.728 285.868 75.602 285.602 75.35C285.35 75.098 285.224 74.79 285.224 74.426C285.224 74.048 285.35 73.733 285.602 73.481C285.868 73.229 286.197 73.103 286.589 73.103C286.981 73.103 287.303 73.229 287.555 73.481C287.821 73.719 287.954 74.02 287.954 74.384C287.954 74.762 287.828 75.084 287.576 75.35C287.324 75.602 286.995 75.728 286.589 75.728ZM296.046 89.126C294.968 89.126 294.002 88.888 293.148 88.412C292.308 87.936 291.643 87.271 291.153 86.417C290.663 85.563 290.418 84.569 290.418 83.435C290.418 82.301 290.663 81.314 291.153 80.474C291.643 79.62 292.308 78.955 293.148 78.479C294.002 78.003 294.968 77.765 296.046 77.765C297.012 77.765 297.873 77.975 298.629 78.395C299.385 78.815 299.98 79.445 300.414 80.285C300.862 81.125 301.086 82.175 301.086 83.435C301.086 84.695 300.855 85.745 300.393 86.585C299.945 87.425 299.343 88.062 298.587 88.496C297.831 88.916 296.984 89.126 296.046 89.126ZM296.214 87.362C296.914 87.362 297.544 87.201 298.104 86.879C298.678 86.557 299.126 86.102 299.448 85.514C299.784 84.912 299.952 84.219 299.952 83.435C299.952 82.637 299.784 81.951 299.448 81.377C299.126 80.789 298.678 80.334 298.104 80.012C297.544 79.69 296.914 79.529 296.214 79.529C295.5 79.529 294.863 79.69 294.303 80.012C293.743 80.334 293.295 80.789 292.959 81.377C292.623 81.951 292.455 82.637 292.455 83.435C292.455 84.219 292.623 84.912 292.959 85.514C293.295 86.102 293.743 86.557 294.303 86.879C294.863 87.201 295.5 87.362 296.214 87.362ZM299.931 93.074V86.039L300.141 83.456L300.015 80.873V77.87H301.947V93.074H299.931ZM310.444 89.126C309.492 89.126 308.652 88.951 307.924 88.601C307.21 88.251 306.65 87.719 306.244 87.005C305.852 86.277 305.656 85.367 305.656 84.275V77.87H307.672V84.044C307.672 85.136 307.931 85.955 308.449 86.501C308.981 87.047 309.723 87.32 310.675 87.32C311.375 87.32 311.984 87.18 312.502 86.9C313.02 86.606 313.419 86.186 313.699 85.64C313.979 85.08 314.119 84.408 314.119 83.624V77.87H316.135V89H314.224V85.997L314.539 86.795C314.175 87.537 313.629 88.111 312.901 88.517C312.173 88.923 311.354 89.126 310.444 89.126ZM324.929 89.126C323.739 89.126 322.689 88.881 321.779 88.391C320.883 87.901 320.183 87.229 319.679 86.375C319.189 85.521 318.944 84.541 318.944 83.435C318.944 82.329 319.182 81.349 319.658 80.495C320.148 79.641 320.813 78.976 321.653 78.5C322.507 78.01 323.466 77.765 324.53 77.765C325.608 77.765 326.56 78.003 327.386 78.479C328.212 78.955 328.856 79.627 329.318 80.495C329.794 81.349 330.032 82.35 330.032 83.498C330.032 83.582 330.025 83.68 330.011 83.792C330.011 83.904 330.004 84.009 329.99 84.107H320.519V82.658H328.94L328.121 83.162C328.135 82.448 327.988 81.811 327.68 81.251C327.372 80.691 326.945 80.257 326.399 79.949C325.867 79.627 325.244 79.466 324.53 79.466C323.83 79.466 323.207 79.627 322.661 79.949C322.115 80.257 321.688 80.698 321.38 81.272C321.072 81.832 320.918 82.476 320.918 83.204V83.54C320.918 84.282 321.086 84.947 321.422 85.535C321.772 86.109 322.255 86.557 322.871 86.879C323.487 87.201 324.194 87.362 324.992 87.362C325.65 87.362 326.245 87.25 326.777 87.026C327.323 86.802 327.799 86.466 328.205 86.018L329.318 87.32C328.814 87.908 328.184 88.356 327.428 88.664C326.686 88.972 325.853 89.126 324.929 89.126ZM342.65 89.168C341.656 89.168 340.774 89.007 340.004 88.685C339.234 88.363 338.625 87.915 338.177 87.341C337.729 86.767 337.505 86.102 337.505 85.346C337.505 84.688 337.652 84.086 337.946 83.54C338.24 82.994 338.709 82.469 339.353 81.965C339.997 81.447 340.844 80.915 341.894 80.369C342.748 79.921 343.413 79.529 343.889 79.193C344.379 78.857 344.722 78.542 344.918 78.248C345.128 77.94 345.233 77.611 345.233 77.261C345.233 76.785 345.065 76.4 344.729 76.106C344.393 75.798 343.91 75.644 343.28 75.644C342.622 75.644 342.104 75.812 341.726 76.148C341.362 76.47 341.18 76.897 341.18 77.429C341.18 77.695 341.222 77.954 341.306 78.206C341.404 78.444 341.572 78.717 341.81 79.025C342.062 79.319 342.419 79.697 342.881 80.159L350.651 87.887L349.517 89.231L341.264 81.02C340.774 80.53 340.389 80.096 340.109 79.718C339.829 79.326 339.626 78.948 339.5 78.584C339.374 78.22 339.311 77.849 339.311 77.471C339.311 76.813 339.472 76.239 339.794 75.749C340.13 75.245 340.592 74.86 341.18 74.594C341.782 74.314 342.482 74.174 343.28 74.174C344.022 74.174 344.666 74.3 345.212 74.552C345.758 74.79 346.178 75.14 346.472 75.602C346.78 76.05 346.934 76.596 346.934 77.24C346.934 77.8 346.794 78.318 346.514 78.794C346.248 79.27 345.814 79.732 345.212 80.18C344.61 80.628 343.798 81.111 342.776 81.629C341.936 82.063 341.278 82.469 340.802 82.847C340.326 83.211 339.983 83.575 339.773 83.939C339.577 84.303 339.479 84.702 339.479 85.136C339.479 85.598 339.612 86.011 339.878 86.375C340.158 86.725 340.543 86.998 341.033 87.194C341.537 87.39 342.118 87.488 342.776 87.488C343.714 87.488 344.561 87.285 345.317 86.879C346.073 86.473 346.703 85.864 347.207 85.052C347.725 84.24 348.103 83.232 348.341 82.028L349.958 82.553C349.678 83.967 349.195 85.164 348.509 86.144C347.837 87.124 347.004 87.873 346.01 88.391C345.016 88.909 343.896 89.168 342.65 89.168ZM360.712 80.642H368.272V82.427H360.712V80.642ZM360.901 87.173H369.469V89H358.801V74.3H369.175V76.127H360.901V87.173ZM377.031 89.126C375.953 89.126 374.987 88.888 374.133 88.412C373.293 87.936 372.628 87.271 372.138 86.417C371.648 85.563 371.403 84.569 371.403 83.435C371.403 82.301 371.648 81.314 372.138 80.474C372.628 79.62 373.293 78.955 374.133 78.479C374.987 78.003 375.953 77.765 377.031 77.765C377.969 77.765 378.816 77.975 379.572 78.395C380.328 78.815 380.93 79.445 381.378 80.285C381.84 81.125 382.071 82.175 382.071 83.435C382.071 84.695 381.847 85.745 381.399 86.585C380.965 87.425 380.37 88.062 379.614 88.496C378.858 88.916 377.997 89.126 377.031 89.126ZM377.199 87.362C377.899 87.362 378.529 87.201 379.089 86.879C379.663 86.557 380.111 86.102 380.433 85.514C380.769 84.912 380.937 84.219 380.937 83.435C380.937 82.637 380.769 81.951 380.433 81.377C380.111 80.789 379.663 80.334 379.089 80.012C378.529 79.69 377.899 79.529 377.199 79.529C376.485 79.529 375.848 79.69 375.288 80.012C374.728 80.334 374.28 80.789 373.944 81.377C373.608 81.951 373.44 82.637 373.44 83.435C373.44 84.219 373.608 84.912 373.944 85.514C374.28 86.102 374.728 86.557 375.288 86.879C375.848 87.201 376.485 87.362 377.199 87.362ZM381 89V85.997L381.126 83.414L380.916 80.831V73.418H382.932V89H381ZM386.746 89V77.87H388.762V89H386.746ZM387.754 75.728C387.362 75.728 387.033 75.602 386.767 75.35C386.515 75.098 386.389 74.79 386.389 74.426C386.389 74.048 386.515 73.733 386.767 73.481C387.033 73.229 387.362 73.103 387.754 73.103C388.146 73.103 388.468 73.229 388.72 73.481C388.986 73.719 389.119 74.02 389.119 74.384C389.119 74.762 388.993 75.084 388.741 75.35C388.489 75.602 388.16 75.728 387.754 75.728ZM396.434 89.126C395.314 89.126 394.446 88.825 393.83 88.223C393.214 87.621 392.906 86.76 392.906 85.64V75.434H394.922V85.556C394.922 86.158 395.069 86.62 395.363 86.942C395.671 87.264 396.105 87.425 396.665 87.425C397.295 87.425 397.82 87.25 398.24 86.9L398.87 88.349C398.562 88.615 398.191 88.811 397.757 88.937C397.337 89.063 396.896 89.126 396.434 89.126ZM391.016 79.529V77.87H398.114V79.529H391.016ZM405.894 89.126C404.704 89.126 403.654 88.881 402.744 88.391C401.848 87.901 401.148 87.229 400.644 86.375C400.154 85.521 399.909 84.541 399.909 83.435C399.909 82.329 400.147 81.349 400.623 80.495C401.113 79.641 401.778 78.976 402.618 78.5C403.472 78.01 404.431 77.765 405.495 77.765C406.573 77.765 407.525 78.003 408.351 78.479C409.177 78.955 409.821 79.627 410.283 80.495C410.759 81.349 410.997 82.35 410.997 83.498C410.997 83.582 410.99 83.68 410.976 83.792C410.976 83.904 410.969 84.009 410.955 84.107H401.484V82.658H409.905L409.086 83.162C409.1 82.448 408.953 81.811 408.645 81.251C408.337 80.691 407.91 80.257 407.364 79.949C406.832 79.627 406.209 79.466 405.495 79.466C404.795 79.466 404.172 79.627 403.626 79.949C403.08 80.257 402.653 80.698 402.345 81.272C402.037 81.832 401.883 82.476 401.883 83.204V83.54C401.883 84.282 402.051 84.947 402.387 85.535C402.737 86.109 403.22 86.557 403.836 86.879C404.452 87.201 405.159 87.362 405.957 87.362C406.615 87.362 407.21 87.25 407.742 87.026C408.288 86.802 408.764 86.466 409.17 86.018L410.283 87.32C409.779 87.908 409.149 88.356 408.393 88.664C407.651 88.972 406.818 89.126 405.894 89.126ZM418.479 89.126C417.527 89.126 416.687 88.951 415.959 88.601C415.245 88.251 414.685 87.719 414.279 87.005C413.887 86.277 413.691 85.367 413.691 84.275V77.87H415.707V84.044C415.707 85.136 415.966 85.955 416.484 86.501C417.016 87.047 417.758 87.32 418.71 87.32C419.41 87.32 420.019 87.18 420.537 86.9C421.055 86.606 421.454 86.186 421.734 85.64C422.014 85.08 422.154 84.408 422.154 83.624V77.87H424.17V89H422.259V85.997L422.574 86.795C422.21 87.537 421.664 88.111 420.936 88.517C420.208 88.923 419.389 89.126 418.479 89.126ZM428.008 89V77.87H429.94V80.894L429.751 80.138C430.059 79.368 430.577 78.78 431.305 78.374C432.033 77.968 432.929 77.765 433.993 77.765V79.718C433.909 79.704 433.825 79.697 433.741 79.697C433.671 79.697 433.601 79.697 433.531 79.697C432.453 79.697 431.599 80.019 430.969 80.663C430.339 81.307 430.024 82.238 430.024 83.456V89H428.008ZM446.86 89.126C445.782 89.126 444.816 88.888 443.962 88.412C443.122 87.936 442.457 87.271 441.967 86.417C441.477 85.563 441.232 84.569 441.232 83.435C441.232 82.301 441.477 81.314 441.967 80.474C442.457 79.62 443.122 78.955 443.962 78.479C444.816 78.003 445.782 77.765 446.86 77.765C447.798 77.765 448.645 77.975 449.401 78.395C450.157 78.815 450.759 79.445 451.207 80.285C451.669 81.125 451.9 82.175 451.9 83.435C451.9 84.695 451.676 85.745 451.228 86.585C450.794 87.425 450.199 88.062 449.443 88.496C448.687 88.916 447.826 89.126 446.86 89.126ZM447.028 87.362C447.728 87.362 448.358 87.201 448.918 86.879C449.492 86.557 449.94 86.102 450.262 85.514C450.598 84.912 450.766 84.219 450.766 83.435C450.766 82.637 450.598 81.951 450.262 81.377C449.94 80.789 449.492 80.334 448.918 80.012C448.358 79.69 447.728 79.529 447.028 79.529C446.314 79.529 445.677 79.69 445.117 80.012C444.557 80.334 444.109 80.789 443.773 81.377C443.437 81.951 443.269 82.637 443.269 83.435C443.269 84.219 443.437 84.912 443.773 85.514C444.109 86.102 444.557 86.557 445.117 86.879C445.677 87.201 446.314 87.362 447.028 87.362ZM450.829 89V85.997L450.955 83.414L450.745 80.831V73.418H452.761V89H450.829ZM461.532 89.126C460.342 89.126 459.292 88.881 458.382 88.391C457.486 87.901 456.786 87.229 456.282 86.375C455.792 85.521 455.547 84.541 455.547 83.435C455.547 82.329 455.785 81.349 456.261 80.495C456.751 79.641 457.416 78.976 458.256 78.5C459.11 78.01 460.069 77.765 461.133 77.765C462.211 77.765 463.163 78.003 463.989 78.479C464.815 78.955 465.459 79.627 465.921 80.495C466.397 81.349 466.635 82.35 466.635 83.498C466.635 83.582 466.628 83.68 466.614 83.792C466.614 83.904 466.607 84.009 466.593 84.107H457.122V82.658H465.543L464.724 83.162C464.738 82.448 464.591 81.811 464.283 81.251C463.975 80.691 463.548 80.257 463.002 79.949C462.47 79.627 461.847 79.466 461.133 79.466C460.433 79.466 459.81 79.627 459.264 79.949C458.718 80.257 458.291 80.698 457.983 81.272C457.675 81.832 457.521 82.476 457.521 83.204V83.54C457.521 84.282 457.689 84.947 458.025 85.535C458.375 86.109 458.858 86.557 459.474 86.879C460.09 87.201 460.797 87.362 461.595 87.362C462.253 87.362 462.848 87.25 463.38 87.026C463.926 86.802 464.402 86.466 464.808 86.018L465.921 87.32C465.417 87.908 464.787 88.356 464.031 88.664C463.289 88.972 462.456 89.126 461.532 89.126ZM478.896 89.126C477.776 89.126 476.908 88.825 476.292 88.223C475.676 87.621 475.368 86.76 475.368 85.64V75.434H477.384V85.556C477.384 86.158 477.531 86.62 477.825 86.942C478.133 87.264 478.567 87.425 479.127 87.425C479.757 87.425 480.282 87.25 480.702 86.9L481.332 88.349C481.024 88.615 480.653 88.811 480.219 88.937C479.799 89.063 479.358 89.126 478.896 89.126ZM473.478 79.529V77.87H480.576V79.529H473.478ZM488.356 89.126C487.166 89.126 486.116 88.881 485.206 88.391C484.31 87.901 483.61 87.229 483.106 86.375C482.616 85.521 482.371 84.541 482.371 83.435C482.371 82.329 482.609 81.349 483.085 80.495C483.575 79.641 484.24 78.976 485.08 78.5C485.934 78.01 486.893 77.765 487.957 77.765C489.035 77.765 489.987 78.003 490.813 78.479C491.639 78.955 492.283 79.627 492.745 80.495C493.221 81.349 493.459 82.35 493.459 83.498C493.459 83.582 493.452 83.68 493.438 83.792C493.438 83.904 493.431 84.009 493.417 84.107H483.946V82.658H492.367L491.548 83.162C491.562 82.448 491.415 81.811 491.107 81.251C490.799 80.691 490.372 80.257 489.826 79.949C489.294 79.627 488.671 79.466 487.957 79.466C487.257 79.466 486.634 79.627 486.088 79.949C485.542 80.257 485.115 80.698 484.807 81.272C484.499 81.832 484.345 82.476 484.345 83.204V83.54C484.345 84.282 484.513 84.947 484.849 85.535C485.199 86.109 485.682 86.557 486.298 86.879C486.914 87.201 487.621 87.362 488.419 87.362C489.077 87.362 489.672 87.25 490.204 87.026C490.75 86.802 491.226 86.466 491.632 86.018L492.745 87.32C492.241 87.908 491.611 88.356 490.855 88.664C490.113 88.972 489.28 89.126 488.356 89.126ZM494.334 89L499.122 82.784L499.101 83.813L494.544 77.87H496.791L500.277 82.448H499.416L502.902 77.87H505.107L500.487 83.855L500.508 82.784L505.338 89H503.049L499.374 84.128L500.193 84.254L496.581 89H494.334ZM511.359 89.126C510.239 89.126 509.371 88.825 508.755 88.223C508.139 87.621 507.831 86.76 507.831 85.64V75.434H509.847V85.556C509.847 86.158 509.994 86.62 510.288 86.942C510.596 87.264 511.03 87.425 511.59 87.425C512.22 87.425 512.745 87.25 513.165 86.9L513.795 88.349C513.487 88.615 513.116 88.811 512.682 88.937C512.262 89.063 511.821 89.126 511.359 89.126ZM505.941 79.529V77.87H513.039V79.529H505.941ZM520.82 89.126C519.63 89.126 518.58 88.881 517.67 88.391C516.774 87.901 516.074 87.229 515.57 86.375C515.08 85.521 514.835 84.541 514.835 83.435C514.835 82.329 515.073 81.349 515.549 80.495C516.039 79.641 516.704 78.976 517.544 78.5C518.398 78.01 519.357 77.765 520.421 77.765C521.499 77.765 522.451 78.003 523.277 78.479C524.103 78.955 524.747 79.627 525.209 80.495C525.685 81.349 525.923 82.35 525.923 83.498C525.923 83.582 525.916 83.68 525.902 83.792C525.902 83.904 525.895 84.009 525.881 84.107H516.41V82.658H524.831L524.012 83.162C524.026 82.448 523.879 81.811 523.571 81.251C523.263 80.691 522.836 80.257 522.29 79.949C521.758 79.627 521.135 79.466 520.421 79.466C519.721 79.466 519.098 79.627 518.552 79.949C518.006 80.257 517.579 80.698 517.271 81.272C516.963 81.832 516.809 82.476 516.809 83.204V83.54C516.809 84.282 516.977 84.947 517.313 85.535C517.663 86.109 518.146 86.557 518.762 86.879C519.378 87.201 520.085 87.362 520.883 87.362C521.541 87.362 522.136 87.25 522.668 87.026C523.214 86.802 523.69 86.466 524.096 86.018L525.209 87.32C524.705 87.908 524.075 88.356 523.319 88.664C522.577 88.972 521.744 89.126 520.82 89.126Z" fill="#0F1727"/>
<rect x="105" y="133" width="362" height="75" rx="16" fill="white"/>
<path d="M163.074 179.168C161.954 179.168 160.883 179 159.861 178.664C158.839 178.314 158.034 177.866 157.446 177.32L158.223 175.682C158.783 176.172 159.497 176.578 160.365 176.9C161.233 177.222 162.136 177.383 163.074 177.383C163.928 177.383 164.621 177.285 165.153 177.089C165.685 176.893 166.077 176.627 166.329 176.291C166.581 175.941 166.707 175.549 166.707 175.115C166.707 174.611 166.539 174.205 166.203 173.897C165.881 173.589 165.454 173.344 164.922 173.162C164.404 172.966 163.83 172.798 163.2 172.658C162.57 172.518 161.933 172.357 161.289 172.175C160.659 171.979 160.078 171.734 159.546 171.44C159.028 171.146 158.608 170.754 158.286 170.264C157.964 169.76 157.803 169.116 157.803 168.332C157.803 167.576 157.999 166.883 158.391 166.253C158.797 165.609 159.413 165.098 160.239 164.72C161.079 164.328 162.143 164.132 163.431 164.132C164.285 164.132 165.132 164.244 165.972 164.468C166.812 164.692 167.54 165.014 168.156 165.434L167.463 167.114C166.833 166.694 166.168 166.393 165.468 166.211C164.768 166.015 164.089 165.917 163.431 165.917C162.605 165.917 161.926 166.022 161.394 166.232C160.862 166.442 160.47 166.722 160.218 167.072C159.98 167.422 159.861 167.814 159.861 168.248C159.861 168.766 160.022 169.179 160.344 169.487C160.68 169.795 161.107 170.04 161.625 170.222C162.157 170.404 162.738 170.572 163.368 170.726C163.998 170.866 164.628 171.027 165.258 171.209C165.902 171.391 166.483 171.629 167.001 171.923C167.533 172.217 167.96 172.609 168.282 173.099C168.604 173.589 168.765 174.219 168.765 174.989C168.765 175.731 168.562 176.424 168.156 177.068C167.75 177.698 167.12 178.209 166.266 178.601C165.426 178.979 164.362 179.168 163.074 179.168ZM176.306 179.126C175.186 179.126 174.192 178.881 173.324 178.391C172.456 177.901 171.77 177.229 171.266 176.375C170.762 175.507 170.51 174.527 170.51 173.435C170.51 172.329 170.762 171.349 171.266 170.495C171.77 169.641 172.456 168.976 173.324 168.5C174.192 168.01 175.186 167.765 176.306 167.765C177.412 167.765 178.399 168.01 179.267 168.5C180.149 168.976 180.835 169.641 181.325 170.495C181.829 171.335 182.081 172.315 182.081 173.435C182.081 174.541 181.829 175.521 181.325 176.375C180.835 177.229 180.149 177.901 179.267 178.391C178.399 178.881 177.412 179.126 176.306 179.126ZM176.306 177.362C177.02 177.362 177.657 177.201 178.217 176.879C178.791 176.557 179.239 176.102 179.561 175.514C179.883 174.912 180.044 174.219 180.044 173.435C180.044 172.637 179.883 171.951 179.561 171.377C179.239 170.789 178.791 170.334 178.217 170.012C177.657 169.69 177.02 169.529 176.306 169.529C175.592 169.529 174.955 169.69 174.395 170.012C173.835 170.334 173.387 170.789 173.051 171.377C172.715 171.951 172.547 172.637 172.547 173.435C172.547 174.219 172.715 174.912 173.051 175.514C173.387 176.102 173.835 176.557 174.395 176.879C174.955 177.201 175.592 177.362 176.306 177.362ZM189.72 179.126C188.586 179.126 187.571 178.881 186.675 178.391C185.793 177.901 185.1 177.229 184.596 176.375C184.092 175.521 183.84 174.541 183.84 173.435C183.84 172.329 184.092 171.349 184.596 170.495C185.1 169.641 185.793 168.976 186.675 168.5C187.571 168.01 188.586 167.765 189.72 167.765C190.728 167.765 191.624 167.968 192.408 168.374C193.206 168.766 193.822 169.354 194.256 170.138L192.723 171.125C192.359 170.579 191.911 170.18 191.379 169.928C190.861 169.662 190.301 169.529 189.699 169.529C188.971 169.529 188.32 169.69 187.746 170.012C187.172 170.334 186.717 170.789 186.381 171.377C186.045 171.951 185.877 172.637 185.877 173.435C185.877 174.233 186.045 174.926 186.381 175.514C186.717 176.102 187.172 176.557 187.746 176.879C188.32 177.201 188.971 177.362 189.699 177.362C190.301 177.362 190.861 177.236 191.379 176.984C191.911 176.718 192.359 176.312 192.723 175.766L194.256 176.732C193.822 177.502 193.206 178.097 192.408 178.517C191.624 178.923 190.728 179.126 189.72 179.126ZM196.723 179V167.87H198.739V179H196.723ZM197.731 165.728C197.339 165.728 197.01 165.602 196.744 165.35C196.492 165.098 196.366 164.79 196.366 164.426C196.366 164.048 196.492 163.733 196.744 163.481C197.01 163.229 197.339 163.103 197.731 163.103C198.123 163.103 198.445 163.229 198.697 163.481C198.963 163.719 199.096 164.02 199.096 164.384C199.096 164.762 198.97 165.084 198.718 165.35C198.466 165.602 198.137 165.728 197.731 165.728ZM209.497 179V176.648L209.392 176.207V172.196C209.392 171.342 209.14 170.684 208.636 170.222C208.146 169.746 207.404 169.508 206.41 169.508C205.752 169.508 205.108 169.62 204.478 169.844C203.848 170.054 203.316 170.341 202.882 170.705L202.042 169.193C202.616 168.731 203.302 168.381 204.1 168.143C204.912 167.891 205.759 167.765 206.641 167.765C208.167 167.765 209.343 168.136 210.169 168.878C210.995 169.62 211.408 170.754 211.408 172.28V179H209.497ZM205.843 179.126C205.017 179.126 204.289 178.986 203.659 178.706C203.043 178.426 202.567 178.041 202.231 177.551C201.895 177.047 201.727 176.48 201.727 175.85C201.727 175.248 201.867 174.702 202.147 174.212C202.441 173.722 202.91 173.33 203.554 173.036C204.212 172.742 205.094 172.595 206.2 172.595H209.728V174.044H206.284C205.276 174.044 204.597 174.212 204.247 174.548C203.897 174.884 203.722 175.29 203.722 175.766C203.722 176.312 203.939 176.753 204.373 177.089C204.807 177.411 205.409 177.572 206.179 177.572C206.935 177.572 207.593 177.404 208.153 177.068C208.727 176.732 209.14 176.242 209.392 175.598L209.791 176.984C209.525 177.642 209.056 178.167 208.384 178.559C207.712 178.937 206.865 179.126 205.843 179.126ZM215.139 179V163.418H217.155V179H215.139ZM230.823 179.168C229.829 179.168 228.947 179.007 228.177 178.685C227.407 178.363 226.798 177.915 226.35 177.341C225.902 176.767 225.678 176.102 225.678 175.346C225.678 174.688 225.825 174.086 226.119 173.54C226.413 172.994 226.882 172.469 227.526 171.965C228.17 171.447 229.017 170.915 230.067 170.369C230.921 169.921 231.586 169.529 232.062 169.193C232.552 168.857 232.895 168.542 233.091 168.248C233.301 167.94 233.406 167.611 233.406 167.261C233.406 166.785 233.238 166.4 232.902 166.106C232.566 165.798 232.083 165.644 231.453 165.644C230.795 165.644 230.277 165.812 229.899 166.148C229.535 166.47 229.353 166.897 229.353 167.429C229.353 167.695 229.395 167.954 229.479 168.206C229.577 168.444 229.745 168.717 229.983 169.025C230.235 169.319 230.592 169.697 231.054 170.159L238.824 177.887L237.69 179.231L229.437 171.02C228.947 170.53 228.562 170.096 228.282 169.718C228.002 169.326 227.799 168.948 227.673 168.584C227.547 168.22 227.484 167.849 227.484 167.471C227.484 166.813 227.645 166.239 227.967 165.749C228.303 165.245 228.765 164.86 229.353 164.594C229.955 164.314 230.655 164.174 231.453 164.174C232.195 164.174 232.839 164.3 233.385 164.552C233.931 164.79 234.351 165.14 234.645 165.602C234.953 166.05 235.107 166.596 235.107 167.24C235.107 167.8 234.967 168.318 234.687 168.794C234.421 169.27 233.987 169.732 233.385 170.18C232.783 170.628 231.971 171.111 230.949 171.629C230.109 172.063 229.451 172.469 228.975 172.847C228.499 173.211 228.156 173.575 227.946 173.939C227.75 174.303 227.652 174.702 227.652 175.136C227.652 175.598 227.785 176.011 228.051 176.375C228.331 176.725 228.716 176.998 229.206 177.194C229.71 177.39 230.291 177.488 230.949 177.488C231.887 177.488 232.734 177.285 233.49 176.879C234.246 176.473 234.876 175.864 235.38 175.052C235.898 174.24 236.276 173.232 236.514 172.028L238.131 172.553C237.851 173.967 237.368 175.164 236.682 176.144C236.01 177.124 235.177 177.873 234.183 178.391C233.189 178.909 232.069 179.168 230.823 179.168ZM251.531 179.126C250.397 179.126 249.382 178.881 248.486 178.391C247.604 177.901 246.911 177.229 246.407 176.375C245.903 175.521 245.651 174.541 245.651 173.435C245.651 172.329 245.903 171.349 246.407 170.495C246.911 169.641 247.604 168.976 248.486 168.5C249.382 168.01 250.397 167.765 251.531 167.765C252.539 167.765 253.435 167.968 254.219 168.374C255.017 168.766 255.633 169.354 256.067 170.138L254.534 171.125C254.17 170.579 253.722 170.18 253.19 169.928C252.672 169.662 252.112 169.529 251.51 169.529C250.782 169.529 250.131 169.69 249.557 170.012C248.983 170.334 248.528 170.789 248.192 171.377C247.856 171.951 247.688 172.637 247.688 173.435C247.688 174.233 247.856 174.926 248.192 175.514C248.528 176.102 248.983 176.557 249.557 176.879C250.131 177.201 250.782 177.362 251.51 177.362C252.112 177.362 252.672 177.236 253.19 176.984C253.722 176.718 254.17 176.312 254.534 175.766L256.067 176.732C255.633 177.502 255.017 178.097 254.219 178.517C253.435 178.923 252.539 179.126 251.531 179.126ZM263.28 179.126C262.16 179.126 261.166 178.881 260.298 178.391C259.43 177.901 258.744 177.229 258.24 176.375C257.736 175.507 257.484 174.527 257.484 173.435C257.484 172.329 257.736 171.349 258.24 170.495C258.744 169.641 259.43 168.976 260.298 168.5C261.166 168.01 262.16 167.765 263.28 167.765C264.386 167.765 265.373 168.01 266.241 168.5C267.123 168.976 267.809 169.641 268.299 170.495C268.803 171.335 269.055 172.315 269.055 173.435C269.055 174.541 268.803 175.521 268.299 176.375C267.809 177.229 267.123 177.901 266.241 178.391C265.373 178.881 264.386 179.126 263.28 179.126ZM263.28 177.362C263.994 177.362 264.631 177.201 265.191 176.879C265.765 176.557 266.213 176.102 266.535 175.514C266.857 174.912 267.018 174.219 267.018 173.435C267.018 172.637 266.857 171.951 266.535 171.377C266.213 170.789 265.765 170.334 265.191 170.012C264.631 169.69 263.994 169.529 263.28 169.529C262.566 169.529 261.929 169.69 261.369 170.012C260.809 170.334 260.361 170.789 260.025 171.377C259.689 171.951 259.521 172.637 259.521 173.435C259.521 174.219 259.689 174.912 260.025 175.514C260.361 176.102 260.809 176.557 261.369 176.879C261.929 177.201 262.566 177.362 263.28 177.362ZM285.766 167.765C286.662 167.765 287.453 167.94 288.139 168.29C288.825 168.64 289.357 169.172 289.735 169.886C290.127 170.6 290.323 171.503 290.323 172.595V179H288.307V172.826C288.307 171.748 288.055 170.936 287.551 170.39C287.047 169.844 286.34 169.571 285.43 169.571C284.758 169.571 284.17 169.711 283.666 169.991C283.162 170.271 282.77 170.684 282.49 171.23C282.224 171.776 282.091 172.455 282.091 173.267V179H280.075V172.826C280.075 171.748 279.823 170.936 279.319 170.39C278.829 169.844 278.122 169.571 277.198 169.571C276.54 169.571 275.959 169.711 275.455 169.991C274.951 170.271 274.559 170.684 274.279 171.23C273.999 171.776 273.859 172.455 273.859 173.267V179H271.843V167.87H273.775V170.831L273.46 170.075C273.81 169.347 274.349 168.78 275.077 168.374C275.805 167.968 276.652 167.765 277.618 167.765C278.682 167.765 279.599 168.031 280.369 168.563C281.139 169.081 281.643 169.872 281.881 170.936L281.062 170.6C281.398 169.746 281.986 169.06 282.826 168.542C283.666 168.024 284.646 167.765 285.766 167.765ZM307.956 167.765C308.852 167.765 309.643 167.94 310.329 168.29C311.015 168.64 311.547 169.172 311.925 169.886C312.317 170.6 312.513 171.503 312.513 172.595V179H310.497V172.826C310.497 171.748 310.245 170.936 309.741 170.39C309.237 169.844 308.53 169.571 307.62 169.571C306.948 169.571 306.36 169.711 305.856 169.991C305.352 170.271 304.96 170.684 304.68 171.23C304.414 171.776 304.281 172.455 304.281 173.267V179H302.265V172.826C302.265 171.748 302.013 170.936 301.509 170.39C301.019 169.844 300.312 169.571 299.388 169.571C298.73 169.571 298.149 169.711 297.645 169.991C297.141 170.271 296.749 170.684 296.469 171.23C296.189 171.776 296.049 172.455 296.049 173.267V179H294.033V167.87H295.965V170.831L295.65 170.075C296 169.347 296.539 168.78 297.267 168.374C297.995 167.968 298.842 167.765 299.808 167.765C300.872 167.765 301.789 168.031 302.559 168.563C303.329 169.081 303.833 169.872 304.071 170.936L303.252 170.6C303.588 169.746 304.176 169.06 305.016 168.542C305.856 168.024 306.836 167.765 307.956 167.765ZM320.905 179.126C319.953 179.126 319.113 178.951 318.385 178.601C317.671 178.251 317.111 177.719 316.705 177.005C316.313 176.277 316.117 175.367 316.117 174.275V167.87H318.133V174.044C318.133 175.136 318.392 175.955 318.91 176.501C319.442 177.047 320.184 177.32 321.136 177.32C321.836 177.32 322.445 177.18 322.963 176.9C323.481 176.606 323.88 176.186 324.16 175.64C324.44 175.08 324.58 174.408 324.58 173.624V167.87H326.596V179H324.685V175.997L325 176.795C324.636 177.537 324.09 178.111 323.362 178.517C322.634 178.923 321.815 179.126 320.905 179.126ZM336.377 167.765C337.287 167.765 338.085 167.94 338.771 168.29C339.471 168.64 340.017 169.172 340.409 169.886C340.801 170.6 340.997 171.503 340.997 172.595V179H338.981V172.826C338.981 171.748 338.715 170.936 338.183 170.39C337.665 169.844 336.93 169.571 335.978 169.571C335.264 169.571 334.641 169.711 334.109 169.991C333.577 170.271 333.164 170.684 332.87 171.23C332.59 171.776 332.45 172.455 332.45 173.267V179H330.434V167.87H332.366V170.873L332.051 170.075C332.415 169.347 332.975 168.78 333.731 168.374C334.487 167.968 335.369 167.765 336.377 167.765ZM344.728 179V167.87H346.744V179H344.728ZM345.736 165.728C345.344 165.728 345.015 165.602 344.749 165.35C344.497 165.098 344.371 164.79 344.371 164.426C344.371 164.048 344.497 163.733 344.749 163.481C345.015 163.229 345.344 163.103 345.736 163.103C346.128 163.103 346.45 163.229 346.702 163.481C346.968 163.719 347.101 164.02 347.101 164.384C347.101 164.762 346.975 165.084 346.723 165.35C346.471 165.602 346.142 165.728 345.736 165.728ZM355.444 179.126C354.31 179.126 353.295 178.881 352.399 178.391C351.517 177.901 350.824 177.229 350.32 176.375C349.816 175.521 349.564 174.541 349.564 173.435C349.564 172.329 349.816 171.349 350.32 170.495C350.824 169.641 351.517 168.976 352.399 168.5C353.295 168.01 354.31 167.765 355.444 167.765C356.452 167.765 357.348 167.968 358.132 168.374C358.93 168.766 359.546 169.354 359.98 170.138L358.447 171.125C358.083 170.579 357.635 170.18 357.103 169.928C356.585 169.662 356.025 169.529 355.423 169.529C354.695 169.529 354.044 169.69 353.47 170.012C352.896 170.334 352.441 170.789 352.105 171.377C351.769 171.951 351.601 172.637 351.601 173.435C351.601 174.233 351.769 174.926 352.105 175.514C352.441 176.102 352.896 176.557 353.47 176.879C354.044 177.201 354.695 177.362 355.423 177.362C356.025 177.362 356.585 177.236 357.103 176.984C357.635 176.718 358.083 176.312 358.447 175.766L359.98 176.732C359.546 177.502 358.93 178.097 358.132 178.517C357.348 178.923 356.452 179.126 355.444 179.126ZM369.499 179V176.648L369.394 176.207V172.196C369.394 171.342 369.142 170.684 368.638 170.222C368.148 169.746 367.406 169.508 366.412 169.508C365.754 169.508 365.11 169.62 364.48 169.844C363.85 170.054 363.318 170.341 362.884 170.705L362.044 169.193C362.618 168.731 363.304 168.381 364.102 168.143C364.914 167.891 365.761 167.765 366.643 167.765C368.169 167.765 369.345 168.136 370.171 168.878C370.997 169.62 371.41 170.754 371.41 172.28V179H369.499ZM365.845 179.126C365.019 179.126 364.291 178.986 363.661 178.706C363.045 178.426 362.569 178.041 362.233 177.551C361.897 177.047 361.729 176.48 361.729 175.85C361.729 175.248 361.869 174.702 362.149 174.212C362.443 173.722 362.912 173.33 363.556 173.036C364.214 172.742 365.096 172.595 366.202 172.595H369.73V174.044H366.286C365.278 174.044 364.599 174.212 364.249 174.548C363.899 174.884 363.724 175.29 363.724 175.766C363.724 176.312 363.941 176.753 364.375 177.089C364.809 177.411 365.411 177.572 366.181 177.572C366.937 177.572 367.595 177.404 368.155 177.068C368.729 176.732 369.142 176.242 369.394 175.598L369.793 176.984C369.527 177.642 369.058 178.167 368.386 178.559C367.714 178.937 366.867 179.126 365.845 179.126ZM378.963 179.126C377.843 179.126 376.975 178.825 376.359 178.223C375.743 177.621 375.435 176.76 375.435 175.64V165.434H377.451V175.556C377.451 176.158 377.598 176.62 377.892 176.942C378.2 177.264 378.634 177.425 379.194 177.425C379.824 177.425 380.349 177.25 380.769 176.9L381.399 178.349C381.091 178.615 380.72 178.811 380.286 178.937C379.866 179.063 379.425 179.126 378.963 179.126ZM373.545 169.529V167.87H380.643V169.529H373.545ZM383.836 179V167.87H385.852V179H383.836ZM384.844 165.728C384.452 165.728 384.123 165.602 383.857 165.35C383.605 165.098 383.479 164.79 383.479 164.426C383.479 164.048 383.605 163.733 383.857 163.481C384.123 163.229 384.452 163.103 384.844 163.103C385.236 163.103 385.558 163.229 385.81 163.481C386.076 163.719 386.209 164.02 386.209 164.384C386.209 164.762 386.083 165.084 385.831 165.35C385.579 165.602 385.25 165.728 384.844 165.728ZM394.469 179.126C393.349 179.126 392.355 178.881 391.487 178.391C390.619 177.901 389.933 177.229 389.429 176.375C388.925 175.507 388.673 174.527 388.673 173.435C388.673 172.329 388.925 171.349 389.429 170.495C389.933 169.641 390.619 168.976 391.487 168.5C392.355 168.01 393.349 167.765 394.469 167.765C395.575 167.765 396.562 168.01 397.43 168.5C398.312 168.976 398.998 169.641 399.488 170.495C399.992 171.335 400.244 172.315 400.244 173.435C400.244 174.541 399.992 175.521 399.488 176.375C398.998 177.229 398.312 177.901 397.43 178.391C396.562 178.881 395.575 179.126 394.469 179.126ZM394.469 177.362C395.183 177.362 395.82 177.201 396.38 176.879C396.954 176.557 397.402 176.102 397.724 175.514C398.046 174.912 398.207 174.219 398.207 173.435C398.207 172.637 398.046 171.951 397.724 171.377C397.402 170.789 396.954 170.334 396.38 170.012C395.82 169.69 395.183 169.529 394.469 169.529C393.755 169.529 393.118 169.69 392.558 170.012C391.998 170.334 391.55 170.789 391.214 171.377C390.878 171.951 390.71 172.637 390.71 173.435C390.71 174.219 390.878 174.912 391.214 175.514C391.55 176.102 391.998 176.557 392.558 176.879C393.118 177.201 393.755 177.362 394.469 177.362ZM408.975 167.765C409.885 167.765 410.683 167.94 411.369 168.29C412.069 168.64 412.615 169.172 413.007 169.886C413.399 170.6 413.595 171.503 413.595 172.595V179H411.579V172.826C411.579 171.748 411.313 170.936 410.781 170.39C410.263 169.844 409.528 169.571 408.576 169.571C407.862 169.571 407.239 169.711 406.707 169.991C406.175 170.271 405.762 170.684 405.468 171.23C405.188 171.776 405.048 172.455 405.048 173.267V179H403.032V167.87H404.964V170.873L404.649 170.075C405.013 169.347 405.573 168.78 406.329 168.374C407.085 167.968 407.967 167.765 408.975 167.765Z" fill="#0F1727"/>
<rect x="105" y="314" width="362" height="75" rx="16" fill="white"/>
<path d="M156.955 360V345.3H162.688C163.976 345.3 165.075 345.503 165.985 345.909C166.895 346.315 167.595 346.903 168.085 347.673C168.575 348.443 168.82 349.36 168.82 350.424C168.82 351.488 168.575 352.405 168.085 353.175C167.595 353.931 166.895 354.519 165.985 354.939C165.075 355.345 163.976 355.548 162.688 355.548H158.11L159.055 354.561V360H156.955ZM159.055 354.771L158.11 353.721H162.625C163.969 353.721 164.984 353.434 165.67 352.86C166.37 352.286 166.72 351.474 166.72 350.424C166.72 349.374 166.37 348.562 165.67 347.988C164.984 347.414 163.969 347.127 162.625 347.127H158.11L159.055 346.077V354.771ZM176.526 360.126C175.336 360.126 174.286 359.881 173.376 359.391C172.48 358.901 171.78 358.229 171.276 357.375C170.786 356.521 170.541 355.541 170.541 354.435C170.541 353.329 170.779 352.349 171.255 351.495C171.745 350.641 172.41 349.976 173.25 349.5C174.104 349.01 175.063 348.765 176.127 348.765C177.205 348.765 178.157 349.003 178.983 349.479C179.809 349.955 180.453 350.627 180.915 351.495C181.391 352.349 181.629 353.35 181.629 354.498C181.629 354.582 181.622 354.68 181.608 354.792C181.608 354.904 181.601 355.009 181.587 355.107H172.116V353.658H180.537L179.718 354.162C179.732 353.448 179.585 352.811 179.277 352.251C178.969 351.691 178.542 351.257 177.996 350.949C177.464 350.627 176.841 350.466 176.127 350.466C175.427 350.466 174.804 350.627 174.258 350.949C173.712 351.257 173.285 351.698 172.977 352.272C172.669 352.832 172.515 353.476 172.515 354.204V354.54C172.515 355.282 172.683 355.947 173.019 356.535C173.369 357.109 173.852 357.557 174.468 357.879C175.084 358.201 175.791 358.362 176.589 358.362C177.247 358.362 177.842 358.25 178.374 358.026C178.92 357.802 179.396 357.466 179.802 357.018L180.915 358.32C180.411 358.908 179.781 359.356 179.025 359.664C178.283 359.972 177.45 360.126 176.526 360.126ZM184.429 360V348.87H186.361V351.894L186.172 351.138C186.48 350.368 186.998 349.78 187.726 349.374C188.454 348.968 189.35 348.765 190.414 348.765V350.718C190.33 350.704 190.246 350.697 190.162 350.697C190.092 350.697 190.022 350.697 189.952 350.697C188.874 350.697 188.02 351.019 187.39 351.663C186.76 352.307 186.445 353.238 186.445 354.456V360H184.429ZM196.213 360.126C195.289 360.126 194.407 360 193.567 359.748C192.741 359.496 192.09 359.188 191.614 358.824L192.454 357.228C192.93 357.55 193.518 357.823 194.218 358.047C194.918 358.271 195.632 358.383 196.36 358.383C197.298 358.383 197.97 358.25 198.376 357.984C198.796 357.718 199.006 357.347 199.006 356.871C199.006 356.521 198.88 356.248 198.628 356.052C198.376 355.856 198.04 355.709 197.62 355.611C197.214 355.513 196.759 355.429 196.255 355.359C195.751 355.275 195.247 355.177 194.743 355.065C194.239 354.939 193.777 354.771 193.357 354.561C192.937 354.337 192.601 354.036 192.349 353.658C192.097 353.266 191.971 352.748 191.971 352.104C191.971 351.432 192.16 350.844 192.538 350.34C192.916 349.836 193.448 349.451 194.134 349.185C194.834 348.905 195.66 348.765 196.612 348.765C197.34 348.765 198.075 348.856 198.817 349.038C199.573 349.206 200.189 349.451 200.665 349.773L199.804 351.369C199.3 351.033 198.775 350.802 198.229 350.676C197.683 350.55 197.137 350.487 196.591 350.487C195.709 350.487 195.051 350.634 194.617 350.928C194.183 351.208 193.966 351.572 193.966 352.02C193.966 352.398 194.092 352.692 194.344 352.902C194.61 353.098 194.946 353.252 195.352 353.364C195.772 353.476 196.234 353.574 196.738 353.658C197.242 353.728 197.746 353.826 198.25 353.952C198.754 354.064 199.209 354.225 199.615 354.435C200.035 354.645 200.371 354.939 200.623 355.317C200.889 355.695 201.022 356.199 201.022 356.829C201.022 357.501 200.826 358.082 200.434 358.572C200.042 359.062 199.489 359.447 198.775 359.727C198.061 359.993 197.207 360.126 196.213 360.126ZM208.309 360.126C207.189 360.126 206.195 359.881 205.327 359.391C204.459 358.901 203.773 358.229 203.269 357.375C202.765 356.507 202.513 355.527 202.513 354.435C202.513 353.329 202.765 352.349 203.269 351.495C203.773 350.641 204.459 349.976 205.327 349.5C206.195 349.01 207.189 348.765 208.309 348.765C209.415 348.765 210.402 349.01 211.27 349.5C212.152 349.976 212.838 350.641 213.328 351.495C213.832 352.335 214.084 353.315 214.084 354.435C214.084 355.541 213.832 356.521 213.328 357.375C212.838 358.229 212.152 358.901 211.27 359.391C210.402 359.881 209.415 360.126 208.309 360.126ZM208.309 358.362C209.023 358.362 209.66 358.201 210.22 357.879C210.794 357.557 211.242 357.102 211.564 356.514C211.886 355.912 212.047 355.219 212.047 354.435C212.047 353.637 211.886 352.951 211.564 352.377C211.242 351.789 210.794 351.334 210.22 351.012C209.66 350.69 209.023 350.529 208.309 350.529C207.595 350.529 206.958 350.69 206.398 351.012C205.838 351.334 205.39 351.789 205.054 352.377C204.718 352.951 204.55 353.637 204.55 354.435C204.55 355.219 204.718 355.912 205.054 356.514C205.39 357.102 205.838 357.557 206.398 357.879C206.958 358.201 207.595 358.362 208.309 358.362ZM222.815 348.765C223.725 348.765 224.523 348.94 225.209 349.29C225.909 349.64 226.455 350.172 226.847 350.886C227.239 351.6 227.435 352.503 227.435 353.595V360H225.419V353.826C225.419 352.748 225.153 351.936 224.621 351.39C224.103 350.844 223.368 350.571 222.416 350.571C221.702 350.571 221.079 350.711 220.547 350.991C220.015 351.271 219.602 351.684 219.308 352.23C219.028 352.776 218.888 353.455 218.888 354.267V360H216.872V348.87H218.804V351.873L218.489 351.075C218.853 350.347 219.413 349.78 220.169 349.374C220.925 348.968 221.807 348.765 222.815 348.765ZM237.109 348.765C238.019 348.765 238.817 348.94 239.503 349.29C240.203 349.64 240.749 350.172 241.141 350.886C241.533 351.6 241.729 352.503 241.729 353.595V360H239.713V353.826C239.713 352.748 239.447 351.936 238.915 351.39C238.397 350.844 237.662 350.571 236.71 350.571C235.996 350.571 235.373 350.711 234.841 350.991C234.309 351.271 233.896 351.684 233.602 352.23C233.322 352.776 233.182 353.455 233.182 354.267V360H231.166V348.87H233.098V351.873L232.783 351.075C233.147 350.347 233.707 349.78 234.463 349.374C235.219 348.968 236.101 348.765 237.109 348.765ZM252.369 360V357.648L252.264 357.207V353.196C252.264 352.342 252.012 351.684 251.508 351.222C251.018 350.746 250.276 350.508 249.282 350.508C248.624 350.508 247.98 350.62 247.35 350.844C246.72 351.054 246.188 351.341 245.754 351.705L244.914 350.193C245.488 349.731 246.174 349.381 246.972 349.143C247.784 348.891 248.631 348.765 249.513 348.765C251.039 348.765 252.215 349.136 253.041 349.878C253.867 350.62 254.28 351.754 254.28 353.28V360H252.369ZM248.715 360.126C247.889 360.126 247.161 359.986 246.531 359.706C245.915 359.426 245.439 359.041 245.103 358.551C244.767 358.047 244.599 357.48 244.599 356.85C244.599 356.248 244.739 355.702 245.019 355.212C245.313 354.722 245.782 354.33 246.426 354.036C247.084 353.742 247.966 353.595 249.072 353.595H252.6V355.044H249.156C248.148 355.044 247.469 355.212 247.119 355.548C246.769 355.884 246.594 356.29 246.594 356.766C246.594 357.312 246.811 357.753 247.245 358.089C247.679 358.411 248.281 358.572 249.051 358.572C249.807 358.572 250.465 358.404 251.025 358.068C251.599 357.732 252.012 357.242 252.264 356.598L252.663 357.984C252.397 358.642 251.928 359.167 251.256 359.559C250.584 359.937 249.737 360.126 248.715 360.126ZM258.011 360V344.418H260.027V360H258.011ZM263.876 360V348.87H265.892V360H263.876ZM264.884 346.728C264.492 346.728 264.163 346.602 263.897 346.35C263.645 346.098 263.519 345.79 263.519 345.426C263.519 345.048 263.645 344.733 263.897 344.481C264.163 344.229 264.492 344.103 264.884 344.103C265.276 344.103 265.598 344.229 265.85 344.481C266.116 344.719 266.249 345.02 266.249 345.384C266.249 345.762 266.123 346.084 265.871 346.35C265.619 346.602 265.29 346.728 264.884 346.728ZM272.933 360.126C272.009 360.126 271.127 360 270.287 359.748C269.461 359.496 268.81 359.188 268.334 358.824L269.174 357.228C269.65 357.55 270.238 357.823 270.938 358.047C271.638 358.271 272.352 358.383 273.08 358.383C274.018 358.383 274.69 358.25 275.096 357.984C275.516 357.718 275.726 357.347 275.726 356.871C275.726 356.521 275.6 356.248 275.348 356.052C275.096 355.856 274.76 355.709 274.34 355.611C273.934 355.513 273.479 355.429 272.975 355.359C272.471 355.275 271.967 355.177 271.463 355.065C270.959 354.939 270.497 354.771 270.077 354.561C269.657 354.337 269.321 354.036 269.069 353.658C268.817 353.266 268.691 352.748 268.691 352.104C268.691 351.432 268.88 350.844 269.258 350.34C269.636 349.836 270.168 349.451 270.854 349.185C271.554 348.905 272.38 348.765 273.332 348.765C274.06 348.765 274.795 348.856 275.537 349.038C276.293 349.206 276.909 349.451 277.385 349.773L276.524 351.369C276.02 351.033 275.495 350.802 274.949 350.676C274.403 350.55 273.857 350.487 273.311 350.487C272.429 350.487 271.771 350.634 271.337 350.928C270.903 351.208 270.686 351.572 270.686 352.02C270.686 352.398 270.812 352.692 271.064 352.902C271.33 353.098 271.666 353.252 272.072 353.364C272.492 353.476 272.954 353.574 273.458 353.658C273.962 353.728 274.466 353.826 274.97 353.952C275.474 354.064 275.929 354.225 276.335 354.435C276.755 354.645 277.091 354.939 277.343 355.317C277.609 355.695 277.742 356.199 277.742 356.829C277.742 357.501 277.546 358.082 277.154 358.572C276.762 359.062 276.209 359.447 275.495 359.727C274.781 359.993 273.927 360.126 272.933 360.126ZM287.171 360V357.648L287.066 357.207V353.196C287.066 352.342 286.814 351.684 286.31 351.222C285.82 350.746 285.078 350.508 284.084 350.508C283.426 350.508 282.782 350.62 282.152 350.844C281.522 351.054 280.99 351.341 280.556 351.705L279.716 350.193C280.29 349.731 280.976 349.381 281.774 349.143C282.586 348.891 283.433 348.765 284.315 348.765C285.841 348.765 287.017 349.136 287.843 349.878C288.669 350.62 289.082 351.754 289.082 353.28V360H287.171ZM283.517 360.126C282.691 360.126 281.963 359.986 281.333 359.706C280.717 359.426 280.241 359.041 279.905 358.551C279.569 358.047 279.401 357.48 279.401 356.85C279.401 356.248 279.541 355.702 279.821 355.212C280.115 354.722 280.584 354.33 281.228 354.036C281.886 353.742 282.768 353.595 283.874 353.595H287.402V355.044H283.958C282.95 355.044 282.271 355.212 281.921 355.548C281.571 355.884 281.396 356.29 281.396 356.766C281.396 357.312 281.613 357.753 282.047 358.089C282.481 358.411 283.083 358.572 283.853 358.572C284.609 358.572 285.267 358.404 285.827 358.068C286.401 357.732 286.814 357.242 287.066 356.598L287.465 357.984C287.199 358.642 286.73 359.167 286.058 359.559C285.386 359.937 284.539 360.126 283.517 360.126ZM296.634 360.126C295.514 360.126 294.646 359.825 294.03 359.223C293.414 358.621 293.106 357.76 293.106 356.64V346.434H295.122V356.556C295.122 357.158 295.269 357.62 295.563 357.942C295.871 358.264 296.305 358.425 296.865 358.425C297.495 358.425 298.02 358.25 298.44 357.9L299.07 359.349C298.762 359.615 298.391 359.811 297.957 359.937C297.537 360.063 297.096 360.126 296.634 360.126ZM291.216 350.529V348.87H298.314V350.529H291.216ZM301.508 360V348.87H303.524V360H301.508ZM302.516 346.728C302.124 346.728 301.795 346.602 301.529 346.35C301.277 346.098 301.151 345.79 301.151 345.426C301.151 345.048 301.277 344.733 301.529 344.481C301.795 344.229 302.124 344.103 302.516 344.103C302.908 344.103 303.23 344.229 303.482 344.481C303.748 344.719 303.881 345.02 303.881 345.384C303.881 345.762 303.755 346.084 303.503 346.35C303.251 346.602 302.922 346.728 302.516 346.728ZM312.14 360.126C311.02 360.126 310.026 359.881 309.158 359.391C308.29 358.901 307.604 358.229 307.1 357.375C306.596 356.507 306.344 355.527 306.344 354.435C306.344 353.329 306.596 352.349 307.1 351.495C307.604 350.641 308.29 349.976 309.158 349.5C310.026 349.01 311.02 348.765 312.14 348.765C313.246 348.765 314.233 349.01 315.101 349.5C315.983 349.976 316.669 350.641 317.159 351.495C317.663 352.335 317.915 353.315 317.915 354.435C317.915 355.541 317.663 356.521 317.159 357.375C316.669 358.229 315.983 358.901 315.101 359.391C314.233 359.881 313.246 360.126 312.14 360.126ZM312.14 358.362C312.854 358.362 313.491 358.201 314.051 357.879C314.625 357.557 315.073 357.102 315.395 356.514C315.717 355.912 315.878 355.219 315.878 354.435C315.878 353.637 315.717 352.951 315.395 352.377C315.073 351.789 314.625 351.334 314.051 351.012C313.491 350.69 312.854 350.529 312.14 350.529C311.426 350.529 310.789 350.69 310.229 351.012C309.669 351.334 309.221 351.789 308.885 352.377C308.549 352.951 308.381 353.637 308.381 354.435C308.381 355.219 308.549 355.912 308.885 356.514C309.221 357.102 309.669 357.557 310.229 357.879C310.789 358.201 311.426 358.362 312.14 358.362ZM326.646 348.765C327.556 348.765 328.354 348.94 329.04 349.29C329.74 349.64 330.286 350.172 330.678 350.886C331.07 351.6 331.266 352.503 331.266 353.595V360H329.25V353.826C329.25 352.748 328.984 351.936 328.452 351.39C327.934 350.844 327.199 350.571 326.247 350.571C325.533 350.571 324.91 350.711 324.378 350.991C323.846 351.271 323.433 351.684 323.139 352.23C322.859 352.776 322.719 353.455 322.719 354.267V360H320.703V348.87H322.635V351.873L322.32 351.075C322.684 350.347 323.244 349.78 324 349.374C324.756 348.968 325.638 348.765 326.646 348.765ZM344.816 360.168C343.822 360.168 342.94 360.007 342.17 359.685C341.4 359.363 340.791 358.915 340.343 358.341C339.895 357.767 339.671 357.102 339.671 356.346C339.671 355.688 339.818 355.086 340.112 354.54C340.406 353.994 340.875 353.469 341.519 352.965C342.163 352.447 343.01 351.915 344.06 351.369C344.914 350.921 345.579 350.529 346.055 350.193C346.545 349.857 346.888 349.542 347.084 349.248C347.294 348.94 347.399 348.611 347.399 348.261C347.399 347.785 347.231 347.4 346.895 347.106C346.559 346.798 346.076 346.644 345.446 346.644C344.788 346.644 344.27 346.812 343.892 347.148C343.528 347.47 343.346 347.897 343.346 348.429C343.346 348.695 343.388 348.954 343.472 349.206C343.57 349.444 343.738 349.717 343.976 350.025C344.228 350.319 344.585 350.697 345.047 351.159L352.817 358.887L351.683 360.231L343.43 352.02C342.94 351.53 342.555 351.096 342.275 350.718C341.995 350.326 341.792 349.948 341.666 349.584C341.54 349.22 341.477 348.849 341.477 348.471C341.477 347.813 341.638 347.239 341.96 346.749C342.296 346.245 342.758 345.86 343.346 345.594C343.948 345.314 344.648 345.174 345.446 345.174C346.188 345.174 346.832 345.3 347.378 345.552C347.924 345.79 348.344 346.14 348.638 346.602C348.946 347.05 349.1 347.596 349.1 348.24C349.1 348.8 348.96 349.318 348.68 349.794C348.414 350.27 347.98 350.732 347.378 351.18C346.776 351.628 345.964 352.111 344.942 352.629C344.102 353.063 343.444 353.469 342.968 353.847C342.492 354.211 342.149 354.575 341.939 354.939C341.743 355.303 341.645 355.702 341.645 356.136C341.645 356.598 341.778 357.011 342.044 357.375C342.324 357.725 342.709 357.998 343.199 358.194C343.703 358.39 344.284 358.488 344.942 358.488C345.88 358.488 346.727 358.285 347.483 357.879C348.239 357.473 348.869 356.864 349.373 356.052C349.891 355.24 350.269 354.232 350.507 353.028L352.124 353.553C351.844 354.967 351.361 356.164 350.675 357.144C350.003 358.124 349.17 358.873 348.176 359.391C347.182 359.909 346.062 360.168 344.816 360.168ZM365.44 360.126C364.32 360.126 363.326 359.881 362.458 359.391C361.59 358.901 360.904 358.229 360.4 357.375C359.896 356.507 359.644 355.527 359.644 354.435C359.644 353.329 359.896 352.349 360.4 351.495C360.904 350.641 361.59 349.976 362.458 349.5C363.326 349.01 364.32 348.765 365.44 348.765C366.546 348.765 367.533 349.01 368.401 349.5C369.283 349.976 369.969 350.641 370.459 351.495C370.963 352.335 371.215 353.315 371.215 354.435C371.215 355.541 370.963 356.521 370.459 357.375C369.969 358.229 369.283 358.901 368.401 359.391C367.533 359.881 366.546 360.126 365.44 360.126ZM365.44 358.362C366.154 358.362 366.791 358.201 367.351 357.879C367.925 357.557 368.373 357.102 368.695 356.514C369.017 355.912 369.178 355.219 369.178 354.435C369.178 353.637 369.017 352.951 368.695 352.377C368.373 351.789 367.925 351.334 367.351 351.012C366.791 350.69 366.154 350.529 365.44 350.529C364.726 350.529 364.089 350.69 363.529 351.012C362.969 351.334 362.521 351.789 362.185 352.377C361.849 352.951 361.681 353.637 361.681 354.435C361.681 355.219 361.849 355.912 362.185 356.514C362.521 357.102 362.969 357.557 363.529 357.879C364.089 358.201 364.726 358.362 365.44 358.362ZM378.686 360.126C377.734 360.126 376.894 359.951 376.166 359.601C375.452 359.251 374.892 358.719 374.486 358.005C374.094 357.277 373.898 356.367 373.898 355.275V348.87H375.914V355.044C375.914 356.136 376.173 356.955 376.691 357.501C377.223 358.047 377.965 358.32 378.917 358.32C379.617 358.32 380.226 358.18 380.744 357.9C381.262 357.606 381.661 357.186 381.941 356.64C382.221 356.08 382.361 355.408 382.361 354.624V348.87H384.377V360H382.466V356.997L382.781 357.795C382.417 358.537 381.871 359.111 381.143 359.517C380.415 359.923 379.596 360.126 378.686 360.126ZM392.037 360.126C390.917 360.126 390.049 359.825 389.433 359.223C388.817 358.621 388.509 357.76 388.509 356.64V346.434H390.525V356.556C390.525 357.158 390.672 357.62 390.966 357.942C391.274 358.264 391.708 358.425 392.268 358.425C392.898 358.425 393.423 358.25 393.843 357.9L394.473 359.349C394.165 359.615 393.794 359.811 393.36 359.937C392.94 360.063 392.499 360.126 392.037 360.126ZM386.619 350.529V348.87H393.717V350.529H386.619ZM396.91 360V348.87H398.926V360H396.91ZM397.918 346.728C397.526 346.728 397.197 346.602 396.931 346.35C396.679 346.098 396.553 345.79 396.553 345.426C396.553 345.048 396.679 344.733 396.931 344.481C397.197 344.229 397.526 344.103 397.918 344.103C398.31 344.103 398.632 344.229 398.884 344.481C399.15 344.719 399.283 345.02 399.283 345.384C399.283 345.762 399.157 346.084 398.905 346.35C398.653 346.602 398.324 346.728 397.918 346.728ZM402.775 360V344.418H404.791V360H402.775ZM411.832 360.126C410.908 360.126 410.026 360 409.186 359.748C408.36 359.496 407.709 359.188 407.233 358.824L408.073 357.228C408.549 357.55 409.137 357.823 409.837 358.047C410.537 358.271 411.251 358.383 411.979 358.383C412.917 358.383 413.589 358.25 413.995 357.984C414.415 357.718 414.625 357.347 414.625 356.871C414.625 356.521 414.499 356.248 414.247 356.052C413.995 355.856 413.659 355.709 413.239 355.611C412.833 355.513 412.378 355.429 411.874 355.359C411.37 355.275 410.866 355.177 410.362 355.065C409.858 354.939 409.396 354.771 408.976 354.561C408.556 354.337 408.22 354.036 407.968 353.658C407.716 353.266 407.59 352.748 407.59 352.104C407.59 351.432 407.779 350.844 408.157 350.34C408.535 349.836 409.067 349.451 409.753 349.185C410.453 348.905 411.279 348.765 412.231 348.765C412.959 348.765 413.694 348.856 414.436 349.038C415.192 349.206 415.808 349.451 416.284 349.773L415.423 351.369C414.919 351.033 414.394 350.802 413.848 350.676C413.302 350.55 412.756 350.487 412.21 350.487C411.328 350.487 410.67 350.634 410.236 350.928C409.802 351.208 409.585 351.572 409.585 352.02C409.585 352.398 409.711 352.692 409.963 352.902C410.229 353.098 410.565 353.252 410.971 353.364C411.391 353.476 411.853 353.574 412.357 353.658C412.861 353.728 413.365 353.826 413.869 353.952C414.373 354.064 414.828 354.225 415.234 354.435C415.654 354.645 415.99 354.939 416.242 355.317C416.508 355.695 416.641 356.199 416.641 356.829C416.641 357.501 416.445 358.082 416.053 358.572C415.661 359.062 415.108 359.447 414.394 359.727C413.68 359.993 412.826 360.126 411.832 360.126Z" fill="#0F1727"/>
<rect x="82" y="223" width="167" height="75" rx="16" fill="white"/>
<path d="M105.825 269V254.3H107.547L114.141 265.409H113.217L119.727 254.3H121.449L121.47 269H119.454L119.433 257.471H119.916L114.12 267.215H113.154L107.316 257.471H107.841V269H105.825ZM130.271 269.126C129.319 269.126 128.479 268.951 127.751 268.601C127.037 268.251 126.477 267.719 126.071 267.005C125.679 266.277 125.483 265.367 125.483 264.275V257.87H127.499V264.044C127.499 265.136 127.758 265.955 128.276 266.501C128.808 267.047 129.55 267.32 130.502 267.32C131.202 267.32 131.811 267.18 132.329 266.9C132.847 266.606 133.246 266.186 133.526 265.64C133.806 265.08 133.946 264.408 133.946 263.624V257.87H135.962V269H134.051V265.997L134.366 266.795C134.002 267.537 133.456 268.111 132.728 268.517C132 268.923 131.181 269.126 130.271 269.126ZM139.8 269V253.418H141.816V269H139.8ZM149.774 269.126C148.654 269.126 147.786 268.825 147.17 268.223C146.554 267.621 146.246 266.76 146.246 265.64V255.434H148.262V265.556C148.262 266.158 148.409 266.62 148.703 266.942C149.011 267.264 149.445 267.425 150.005 267.425C150.635 267.425 151.16 267.25 151.58 266.9L152.21 268.349C151.902 268.615 151.531 268.811 151.097 268.937C150.677 269.063 150.236 269.126 149.774 269.126ZM144.356 259.529V257.87H151.454V259.529H144.356ZM154.647 269V257.87H156.663V269H154.647ZM155.655 255.728C155.263 255.728 154.934 255.602 154.668 255.35C154.416 255.098 154.29 254.79 154.29 254.426C154.29 254.048 154.416 253.733 154.668 253.481C154.934 253.229 155.263 253.103 155.655 253.103C156.047 253.103 156.369 253.229 156.621 253.481C156.887 253.719 157.02 254.02 157.02 254.384C157.02 254.762 156.894 255.084 156.642 255.35C156.39 255.602 156.061 255.728 155.655 255.728ZM174.436 257.765C175.332 257.765 176.123 257.94 176.809 258.29C177.495 258.64 178.027 259.172 178.405 259.886C178.797 260.6 178.993 261.503 178.993 262.595V269H176.977V262.826C176.977 261.748 176.725 260.936 176.221 260.39C175.717 259.844 175.01 259.571 174.1 259.571C173.428 259.571 172.84 259.711 172.336 259.991C171.832 260.271 171.44 260.684 171.16 261.23C170.894 261.776 170.761 262.455 170.761 263.267V269H168.745V262.826C168.745 261.748 168.493 260.936 167.989 260.39C167.499 259.844 166.792 259.571 165.868 259.571C165.21 259.571 164.629 259.711 164.125 259.991C163.621 260.271 163.229 260.684 162.949 261.23C162.669 261.776 162.529 262.455 162.529 263.267V269H160.513V257.87H162.445V260.831L162.13 260.075C162.48 259.347 163.019 258.78 163.747 258.374C164.475 257.968 165.322 257.765 166.288 257.765C167.352 257.765 168.269 258.031 169.039 258.563C169.809 259.081 170.313 259.872 170.551 260.936L169.732 260.6C170.068 259.746 170.656 259.06 171.496 258.542C172.336 258.024 173.316 257.765 174.436 257.765ZM187.658 269.126C186.468 269.126 185.418 268.881 184.508 268.391C183.612 267.901 182.912 267.229 182.408 266.375C181.918 265.521 181.673 264.541 181.673 263.435C181.673 262.329 181.911 261.349 182.387 260.495C182.877 259.641 183.542 258.976 184.382 258.5C185.236 258.01 186.195 257.765 187.259 257.765C188.337 257.765 189.289 258.003 190.115 258.479C190.941 258.955 191.585 259.627 192.047 260.495C192.523 261.349 192.761 262.35 192.761 263.498C192.761 263.582 192.754 263.68 192.74 263.792C192.74 263.904 192.733 264.009 192.719 264.107H183.248V262.658H191.669L190.85 263.162C190.864 262.448 190.717 261.811 190.409 261.251C190.101 260.691 189.674 260.257 189.128 259.949C188.596 259.627 187.973 259.466 187.259 259.466C186.559 259.466 185.936 259.627 185.39 259.949C184.844 260.257 184.417 260.698 184.109 261.272C183.801 261.832 183.647 262.476 183.647 263.204V263.54C183.647 264.282 183.815 264.947 184.151 265.535C184.501 266.109 184.984 266.557 185.6 266.879C186.216 267.201 186.923 267.362 187.721 267.362C188.379 267.362 188.974 267.25 189.506 267.026C190.052 266.802 190.528 266.466 190.934 266.018L192.047 267.32C191.543 267.908 190.913 268.356 190.157 268.664C189.415 268.972 188.582 269.126 187.658 269.126ZM185.663 256.253L188.519 253.523H191.081L187.553 256.253H185.663ZM200.159 269.126C199.081 269.126 198.115 268.888 197.261 268.412C196.421 267.936 195.756 267.271 195.266 266.417C194.776 265.563 194.531 264.569 194.531 263.435C194.531 262.301 194.776 261.314 195.266 260.474C195.756 259.62 196.421 258.955 197.261 258.479C198.115 258.003 199.081 257.765 200.159 257.765C201.097 257.765 201.944 257.975 202.7 258.395C203.456 258.815 204.058 259.445 204.506 260.285C204.968 261.125 205.199 262.175 205.199 263.435C205.199 264.695 204.975 265.745 204.527 266.585C204.093 267.425 203.498 268.062 202.742 268.496C201.986 268.916 201.125 269.126 200.159 269.126ZM200.327 267.362C201.027 267.362 201.657 267.201 202.217 266.879C202.791 266.557 203.239 266.102 203.561 265.514C203.897 264.912 204.065 264.219 204.065 263.435C204.065 262.637 203.897 261.951 203.561 261.377C203.239 260.789 202.791 260.334 202.217 260.012C201.657 259.69 201.027 259.529 200.327 259.529C199.613 259.529 198.976 259.69 198.416 260.012C197.856 260.334 197.408 260.789 197.072 261.377C196.736 261.951 196.568 262.637 196.568 263.435C196.568 264.219 196.736 264.912 197.072 265.514C197.408 266.102 197.856 266.557 198.416 266.879C198.976 267.201 199.613 267.362 200.327 267.362ZM204.128 269V265.997L204.254 263.414L204.044 260.831V253.418H206.06V269H204.128ZM209.875 269V257.87H211.891V269H209.875ZM210.883 255.728C210.491 255.728 210.162 255.602 209.896 255.35C209.644 255.098 209.518 254.79 209.518 254.426C209.518 254.048 209.644 253.733 209.896 253.481C210.162 253.229 210.491 253.103 210.883 253.103C211.275 253.103 211.597 253.229 211.849 253.481C212.115 253.719 212.248 254.02 212.248 254.384C212.248 254.762 212.122 255.084 211.87 255.35C211.618 255.602 211.289 255.728 210.883 255.728ZM222.649 269V266.648L222.544 266.207V262.196C222.544 261.342 222.292 260.684 221.788 260.222C221.298 259.746 220.556 259.508 219.562 259.508C218.904 259.508 218.26 259.62 217.63 259.844C217 260.054 216.468 260.341 216.034 260.705L215.194 259.193C215.768 258.731 216.454 258.381 217.252 258.143C218.064 257.891 218.911 257.765 219.793 257.765C221.319 257.765 222.495 258.136 223.321 258.878C224.147 259.62 224.56 260.754 224.56 262.28V269H222.649ZM218.995 269.126C218.169 269.126 217.441 268.986 216.811 268.706C216.195 268.426 215.719 268.041 215.383 267.551C215.047 267.047 214.879 266.48 214.879 265.85C214.879 265.248 215.019 264.702 215.299 264.212C215.593 263.722 216.062 263.33 216.706 263.036C217.364 262.742 218.246 262.595 219.352 262.595H222.88V264.044H219.436C218.428 264.044 217.749 264.212 217.399 264.548C217.049 264.884 216.874 265.29 216.874 265.766C216.874 266.312 217.091 266.753 217.525 267.089C217.959 267.411 218.561 267.572 219.331 267.572C220.087 267.572 220.745 267.404 221.305 267.068C221.879 266.732 222.292 266.242 222.544 265.598L222.943 266.984C222.677 267.642 222.208 268.167 221.536 268.559C220.864 268.937 220.017 269.126 218.995 269.126Z" fill="#0F1727"/>
<rect x="264" y="223" width="167" height="75" rx="16" fill="white"/>
<path d="M309.674 269.168C308.554 269.168 307.483 269 306.461 268.664C305.439 268.314 304.634 267.866 304.046 267.32L304.823 265.682C305.383 266.172 306.097 266.578 306.965 266.9C307.833 267.222 308.736 267.383 309.674 267.383C310.528 267.383 311.221 267.285 311.753 267.089C312.285 266.893 312.677 266.627 312.929 266.291C313.181 265.941 313.307 265.549 313.307 265.115C313.307 264.611 313.139 264.205 312.803 263.897C312.481 263.589 312.054 263.344 311.522 263.162C311.004 262.966 310.43 262.798 309.8 262.658C309.17 262.518 308.533 262.357 307.889 262.175C307.259 261.979 306.678 261.734 306.146 261.44C305.628 261.146 305.208 260.754 304.886 260.264C304.564 259.76 304.403 259.116 304.403 258.332C304.403 257.576 304.599 256.883 304.991 256.253C305.397 255.609 306.013 255.098 306.839 254.72C307.679 254.328 308.743 254.132 310.031 254.132C310.885 254.132 311.732 254.244 312.572 254.468C313.412 254.692 314.14 255.014 314.756 255.434L314.063 257.114C313.433 256.694 312.768 256.393 312.068 256.211C311.368 256.015 310.689 255.917 310.031 255.917C309.205 255.917 308.526 256.022 307.994 256.232C307.462 256.442 307.07 256.722 306.818 257.072C306.58 257.422 306.461 257.814 306.461 258.248C306.461 258.766 306.622 259.179 306.944 259.487C307.28 259.795 307.707 260.04 308.225 260.222C308.757 260.404 309.338 260.572 309.968 260.726C310.598 260.866 311.228 261.027 311.858 261.209C312.502 261.391 313.083 261.629 313.601 261.923C314.133 262.217 314.56 262.609 314.882 263.099C315.204 263.589 315.365 264.219 315.365 264.989C315.365 265.731 315.162 266.424 314.756 267.068C314.35 267.698 313.72 268.209 312.866 268.601C312.026 268.979 310.962 269.168 309.674 269.168ZM323.095 269.126C321.905 269.126 320.855 268.881 319.945 268.391C319.049 267.901 318.349 267.229 317.845 266.375C317.355 265.521 317.11 264.541 317.11 263.435C317.11 262.329 317.348 261.349 317.824 260.495C318.314 259.641 318.979 258.976 319.819 258.5C320.673 258.01 321.632 257.765 322.696 257.765C323.774 257.765 324.726 258.003 325.552 258.479C326.378 258.955 327.022 259.627 327.484 260.495C327.96 261.349 328.198 262.35 328.198 263.498C328.198 263.582 328.191 263.68 328.177 263.792C328.177 263.904 328.17 264.009 328.156 264.107H318.685V262.658H327.106L326.287 263.162C326.301 262.448 326.154 261.811 325.846 261.251C325.538 260.691 325.111 260.257 324.565 259.949C324.033 259.627 323.41 259.466 322.696 259.466C321.996 259.466 321.373 259.627 320.827 259.949C320.281 260.257 319.854 260.698 319.546 261.272C319.238 261.832 319.084 262.476 319.084 263.204V263.54C319.084 264.282 319.252 264.947 319.588 265.535C319.938 266.109 320.421 266.557 321.037 266.879C321.653 267.201 322.36 267.362 323.158 267.362C323.816 267.362 324.411 267.25 324.943 267.026C325.489 266.802 325.965 266.466 326.371 266.018L327.484 267.32C326.98 267.908 326.35 268.356 325.594 268.664C324.852 268.972 324.019 269.126 323.095 269.126ZM321.1 256.253L323.956 253.523H326.518L322.99 256.253H321.1ZM335.848 269.126C334.714 269.126 333.699 268.881 332.803 268.391C331.921 267.901 331.228 267.229 330.724 266.375C330.22 265.521 329.968 264.541 329.968 263.435C329.968 262.329 330.22 261.349 330.724 260.495C331.228 259.641 331.921 258.976 332.803 258.5C333.699 258.01 334.714 257.765 335.848 257.765C336.856 257.765 337.752 257.968 338.536 258.374C339.334 258.766 339.95 259.354 340.384 260.138L338.851 261.125C338.487 260.579 338.039 260.18 337.507 259.928C336.989 259.662 336.429 259.529 335.827 259.529C335.099 259.529 334.448 259.69 333.874 260.012C333.3 260.334 332.845 260.789 332.509 261.377C332.173 261.951 332.005 262.637 332.005 263.435C332.005 264.233 332.173 264.926 332.509 265.514C332.845 266.102 333.3 266.557 333.874 266.879C334.448 267.201 335.099 267.362 335.827 267.362C336.429 267.362 336.989 267.236 337.507 266.984C338.039 266.718 338.487 266.312 338.851 265.766L340.384 266.732C339.95 267.502 339.334 268.097 338.536 268.517C337.752 268.923 336.856 269.126 335.848 269.126ZM347.677 269.126C346.725 269.126 345.885 268.951 345.157 268.601C344.443 268.251 343.883 267.719 343.477 267.005C343.085 266.277 342.889 265.367 342.889 264.275V257.87H344.905V264.044C344.905 265.136 345.164 265.955 345.682 266.501C346.214 267.047 346.956 267.32 347.908 267.32C348.608 267.32 349.217 267.18 349.735 266.9C350.253 266.606 350.652 266.186 350.932 265.64C351.212 265.08 351.352 264.408 351.352 263.624V257.87H353.368V269H351.457V265.997L351.772 266.795C351.408 267.537 350.862 268.111 350.134 268.517C349.406 268.923 348.587 269.126 347.677 269.126ZM357.206 269V257.87H359.138V260.894L358.949 260.138C359.257 259.368 359.775 258.78 360.503 258.374C361.231 257.968 362.127 257.765 363.191 257.765V259.718C363.107 259.704 363.023 259.697 362.939 259.697C362.869 259.697 362.799 259.697 362.729 259.697C361.651 259.697 360.797 260.019 360.167 260.663C359.537 261.307 359.222 262.238 359.222 263.456V269H357.206ZM365.676 269V257.87H367.692V269H365.676ZM366.684 255.728C366.292 255.728 365.963 255.602 365.697 255.35C365.445 255.098 365.319 254.79 365.319 254.426C365.319 254.048 365.445 253.733 365.697 253.481C365.963 253.229 366.292 253.103 366.684 253.103C367.076 253.103 367.398 253.229 367.65 253.481C367.916 253.719 368.049 254.02 368.049 254.384C368.049 254.762 367.923 255.084 367.671 255.35C367.419 255.602 367.09 255.728 366.684 255.728ZM375.363 269.126C374.243 269.126 373.375 268.825 372.759 268.223C372.143 267.621 371.835 266.76 371.835 265.64V255.434H373.851V265.556C373.851 266.158 373.998 266.62 374.292 266.942C374.6 267.264 375.034 267.425 375.594 267.425C376.224 267.425 376.749 267.25 377.169 266.9L377.799 268.349C377.491 268.615 377.12 268.811 376.686 268.937C376.266 269.063 375.825 269.126 375.363 269.126ZM369.945 259.529V257.87H377.043V259.529H369.945ZM384.824 269.126C383.634 269.126 382.584 268.881 381.674 268.391C380.778 267.901 380.078 267.229 379.574 266.375C379.084 265.521 378.839 264.541 378.839 263.435C378.839 262.329 379.077 261.349 379.553 260.495C380.043 259.641 380.708 258.976 381.548 258.5C382.402 258.01 383.361 257.765 384.425 257.765C385.503 257.765 386.455 258.003 387.281 258.479C388.107 258.955 388.751 259.627 389.213 260.495C389.689 261.349 389.927 262.35 389.927 263.498C389.927 263.582 389.92 263.68 389.906 263.792C389.906 263.904 389.899 264.009 389.885 264.107H380.414V262.658H388.835L388.016 263.162C388.03 262.448 387.883 261.811 387.575 261.251C387.267 260.691 386.84 260.257 386.294 259.949C385.762 259.627 385.139 259.466 384.425 259.466C383.725 259.466 383.102 259.627 382.556 259.949C382.01 260.257 381.583 260.698 381.275 261.272C380.967 261.832 380.813 262.476 380.813 263.204V263.54C380.813 264.282 380.981 264.947 381.317 265.535C381.667 266.109 382.15 266.557 382.766 266.879C383.382 267.201 384.089 267.362 384.887 267.362C385.545 267.362 386.14 267.25 386.672 267.026C387.218 266.802 387.694 266.466 388.1 266.018L389.213 267.32C388.709 267.908 388.079 268.356 387.323 268.664C386.581 268.972 385.748 269.126 384.824 269.126ZM382.829 256.253L385.685 253.523H388.247L384.719 256.253H382.829Z" fill="#0F1727"/>
</svg>
