<svg width="760" height="570" viewBox="0 0 760 570" fill="none" xmlns="http://www.w3.org/2000/svg">
<g filter="url(#filter0_d_1_37)">
<rect x="70" y="110" width="350" height="350" rx="16" fill="white"/>
</g>
<path d="M105.199 169.276C103.911 169.276 102.677 169.107 101.496 168.77C100.315 168.417 99.3647 167.965 98.644 167.413L99.909 164.607C100.599 165.098 101.412 165.504 102.347 165.826C103.298 166.133 104.256 166.286 105.222 166.286C105.958 166.286 106.548 166.217 106.993 166.079C107.453 165.926 107.79 165.719 108.005 165.458C108.22 165.197 108.327 164.898 108.327 164.561C108.327 164.132 108.158 163.794 107.821 163.549C107.484 163.288 107.039 163.081 106.487 162.928C105.935 162.759 105.322 162.606 104.647 162.468C103.988 162.315 103.321 162.131 102.646 161.916C101.987 161.701 101.381 161.425 100.829 161.088C100.277 160.751 99.8247 160.306 99.472 159.754C99.1347 159.202 98.966 158.497 98.966 157.638C98.966 156.718 99.2113 155.882 99.702 155.131C100.208 154.364 100.959 153.759 101.956 153.314C102.968 152.854 104.233 152.624 105.751 152.624C106.763 152.624 107.76 152.747 108.741 152.992C109.722 153.222 110.589 153.575 111.34 154.05L110.19 156.879C109.439 156.45 108.687 156.135 107.936 155.936C107.185 155.721 106.449 155.614 105.728 155.614C105.007 155.614 104.417 155.698 103.957 155.867C103.497 156.036 103.167 156.258 102.968 156.534C102.769 156.795 102.669 157.101 102.669 157.454C102.669 157.868 102.838 158.205 103.175 158.466C103.512 158.711 103.957 158.911 104.509 159.064C105.061 159.217 105.667 159.371 106.326 159.524C107.001 159.677 107.668 159.854 108.327 160.053C109.002 160.252 109.615 160.521 110.167 160.858C110.719 161.195 111.164 161.64 111.501 162.192C111.854 162.744 112.03 163.442 112.03 164.285C112.03 165.19 111.777 166.018 111.271 166.769C110.765 167.52 110.006 168.126 108.994 168.586C107.997 169.046 106.732 169.276 105.199 169.276ZM119.383 169.184C117.926 169.184 116.792 168.816 115.979 168.08C115.166 167.329 114.76 166.217 114.76 164.745V153.889H118.348V164.699C118.348 165.22 118.486 165.627 118.762 165.918C119.038 166.194 119.414 166.332 119.889 166.332C120.456 166.332 120.939 166.179 121.338 165.872L122.304 168.402C121.936 168.663 121.491 168.862 120.97 169C120.464 169.123 119.935 169.184 119.383 169.184ZM112.851 159.662V156.902H121.43V159.662H112.851ZM129.824 169.184C128.506 169.184 127.333 168.908 126.305 168.356C125.293 167.804 124.488 167.053 123.89 166.102C123.308 165.136 123.016 164.04 123.016 162.813C123.016 161.571 123.308 160.475 123.89 159.524C124.488 158.558 125.293 157.807 126.305 157.27C127.333 156.718 128.506 156.442 129.824 156.442C131.128 156.442 132.293 156.718 133.32 157.27C134.348 157.807 135.153 158.55 135.735 159.501C136.318 160.452 136.609 161.556 136.609 162.813C136.609 164.04 136.318 165.136 135.735 166.102C135.153 167.053 134.348 167.804 133.32 168.356C132.293 168.908 131.128 169.184 129.824 169.184ZM129.824 166.24C130.422 166.24 130.959 166.102 131.434 165.826C131.91 165.55 132.285 165.159 132.561 164.653C132.837 164.132 132.975 163.518 132.975 162.813C132.975 162.092 132.837 161.479 132.561 160.973C132.285 160.467 131.91 160.076 131.434 159.8C130.959 159.524 130.422 159.386 129.824 159.386C129.226 159.386 128.69 159.524 128.214 159.8C127.739 160.076 127.356 160.467 127.064 160.973C126.788 161.479 126.65 162.092 126.65 162.813C126.65 163.518 126.788 164.132 127.064 164.653C127.356 165.159 127.739 165.55 128.214 165.826C128.69 166.102 129.226 166.24 129.824 166.24ZM144.988 169.184C143.654 169.184 142.465 168.916 141.423 168.379C140.38 167.827 139.56 167.068 138.962 166.102C138.379 165.136 138.088 164.04 138.088 162.813C138.088 161.571 138.379 160.475 138.962 159.524C139.56 158.558 140.38 157.807 141.423 157.27C142.465 156.718 143.654 156.442 144.988 156.442C146.291 156.442 147.426 156.718 148.392 157.27C149.358 157.807 150.071 158.581 150.531 159.593L147.748 161.088C147.426 160.505 147.019 160.076 146.529 159.8C146.053 159.524 145.532 159.386 144.965 159.386C144.351 159.386 143.799 159.524 143.309 159.8C142.818 160.076 142.427 160.467 142.136 160.973C141.86 161.479 141.722 162.092 141.722 162.813C141.722 163.534 141.86 164.147 142.136 164.653C142.427 165.159 142.818 165.55 143.309 165.826C143.799 166.102 144.351 166.24 144.965 166.24C145.532 166.24 146.053 166.11 146.529 165.849C147.019 165.573 147.426 165.136 147.748 164.538L150.531 166.056C150.071 167.053 149.358 167.827 148.392 168.379C147.426 168.916 146.291 169.184 144.988 169.184ZM155.496 166.47L155.588 162.1L161.361 156.626H165.639L160.096 162.261L158.233 163.779L155.496 166.47ZM152.529 169V151.934H156.117V169H152.529ZM161.752 169L157.566 163.802L159.82 161.019L166.099 169H161.752ZM173.337 169.184C171.926 169.184 170.684 168.908 169.611 168.356C168.553 167.804 167.733 167.053 167.15 166.102C166.567 165.136 166.276 164.04 166.276 162.813C166.276 161.571 166.56 160.475 167.127 159.524C167.71 158.558 168.499 157.807 169.496 157.27C170.493 156.718 171.62 156.442 172.877 156.442C174.088 156.442 175.177 156.703 176.143 157.224C177.124 157.73 177.899 158.466 178.466 159.432C179.033 160.383 179.317 161.525 179.317 162.859C179.317 162.997 179.309 163.158 179.294 163.342C179.279 163.511 179.263 163.672 179.248 163.825H169.197V161.732H177.362L175.982 162.353C175.982 161.709 175.852 161.149 175.591 160.674C175.33 160.199 174.97 159.831 174.51 159.57C174.05 159.294 173.513 159.156 172.9 159.156C172.287 159.156 171.742 159.294 171.267 159.57C170.807 159.831 170.447 160.206 170.186 160.697C169.925 161.172 169.795 161.74 169.795 162.399V162.951C169.795 163.626 169.941 164.224 170.232 164.745C170.539 165.251 170.96 165.642 171.497 165.918C172.049 166.179 172.693 166.309 173.429 166.309C174.088 166.309 174.663 166.209 175.154 166.01C175.66 165.811 176.12 165.512 176.534 165.113L178.443 167.183C177.876 167.827 177.163 168.325 176.304 168.678C175.445 169.015 174.456 169.184 173.337 169.184ZM180.743 169V166.838L188.057 158.19L188.678 159.386H180.904V156.626H191.576V158.788L184.262 167.436L183.618 166.24H191.783V169H180.743ZM205.655 169.184C204.199 169.184 203.064 168.816 202.251 168.08C201.439 167.329 201.032 166.217 201.032 164.745V153.889H204.62V164.699C204.62 165.22 204.758 165.627 205.034 165.918C205.31 166.194 205.686 166.332 206.161 166.332C206.729 166.332 207.212 166.179 207.61 165.872L208.576 168.402C208.208 168.663 207.764 168.862 207.242 169C206.736 169.123 206.207 169.184 205.655 169.184ZM199.123 159.662V156.902H207.702V159.662H199.123ZM216.097 169.184C214.778 169.184 213.605 168.908 212.578 168.356C211.566 167.804 210.761 167.053 210.163 166.102C209.58 165.136 209.289 164.04 209.289 162.813C209.289 161.571 209.58 160.475 210.163 159.524C210.761 158.558 211.566 157.807 212.578 157.27C213.605 156.718 214.778 156.442 216.097 156.442C217.4 156.442 218.565 156.718 219.593 157.27C220.62 157.807 221.425 158.55 222.008 159.501C222.59 160.452 222.882 161.556 222.882 162.813C222.882 164.04 222.59 165.136 222.008 166.102C221.425 167.053 220.62 167.804 219.593 168.356C218.565 168.908 217.4 169.184 216.097 169.184ZM216.097 166.24C216.695 166.24 217.231 166.102 217.707 165.826C218.182 165.55 218.558 165.159 218.834 164.653C219.11 164.132 219.248 163.518 219.248 162.813C219.248 162.092 219.11 161.479 218.834 160.973C218.558 160.467 218.182 160.076 217.707 159.8C217.231 159.524 216.695 159.386 216.097 159.386C215.499 159.386 214.962 159.524 214.487 159.8C214.011 160.076 213.628 160.467 213.337 160.973C213.061 161.479 212.923 162.092 212.923 162.813C212.923 163.518 213.061 164.132 213.337 164.653C213.628 165.159 214.011 165.55 214.487 165.826C214.962 166.102 215.499 166.24 216.097 166.24ZM230.501 169.184C229.474 169.184 228.554 168.985 227.741 168.586C226.944 168.187 226.323 167.582 225.878 166.769C225.433 165.941 225.211 164.891 225.211 163.618V156.626H228.799V163.089C228.799 164.116 229.014 164.875 229.443 165.366C229.888 165.841 230.509 166.079 231.306 166.079C231.858 166.079 232.349 165.964 232.778 165.734C233.207 165.489 233.545 165.121 233.79 164.63C234.035 164.124 234.158 163.495 234.158 162.744V156.626H237.746V169H234.342V165.596L234.963 166.585C234.549 167.444 233.936 168.095 233.123 168.54C232.326 168.969 231.452 169.184 230.501 169.184ZM246.13 169.184C244.673 169.184 243.539 168.816 242.726 168.08C241.913 167.329 241.507 166.217 241.507 164.745V153.889H245.095V164.699C245.095 165.22 245.233 165.627 245.509 165.918C245.785 166.194 246.161 166.332 246.636 166.332C247.203 166.332 247.686 166.179 248.085 165.872L249.051 168.402C248.683 168.663 248.238 168.862 247.717 169C247.211 169.123 246.682 169.184 246.13 169.184ZM239.598 159.662V156.902H248.177V159.662H239.598ZM262.639 169.184C261.182 169.184 260.048 168.816 259.235 168.08C258.422 167.329 258.016 166.217 258.016 164.745V153.889H261.604V164.699C261.604 165.22 261.742 165.627 262.018 165.918C262.294 166.194 262.67 166.332 263.145 166.332C263.712 166.332 264.195 166.179 264.594 165.872L265.56 168.402C265.192 168.663 264.747 168.862 264.226 169C263.72 169.123 263.191 169.184 262.639 169.184ZM256.107 159.662V156.902H264.686V159.662H256.107ZM268.913 173.646C268.269 173.646 267.633 173.546 267.004 173.347C266.376 173.148 265.862 172.872 265.463 172.519L266.774 169.966C267.05 170.211 267.365 170.403 267.717 170.541C268.085 170.679 268.446 170.748 268.798 170.748C269.304 170.748 269.703 170.625 269.994 170.38C270.301 170.15 270.577 169.759 270.822 169.207L271.466 167.689L271.742 167.298L276.181 156.626H279.631L274.042 169.759C273.644 170.756 273.184 171.538 272.662 172.105C272.156 172.672 271.589 173.071 270.96 173.301C270.347 173.531 269.665 173.646 268.913 173.646ZM271.029 169.483L265.509 156.626H269.212L273.49 166.976L271.029 169.483ZM288.409 169.184C287.367 169.184 286.454 168.954 285.672 168.494C284.89 168.034 284.277 167.336 283.832 166.401C283.403 165.45 283.188 164.254 283.188 162.813C283.188 161.356 283.395 160.16 283.809 159.225C284.223 158.29 284.821 157.592 285.603 157.132C286.385 156.672 287.321 156.442 288.409 156.442C289.575 156.442 290.617 156.71 291.537 157.247C292.473 157.768 293.209 158.504 293.745 159.455C294.297 160.406 294.573 161.525 294.573 162.813C294.573 164.116 294.297 165.243 293.745 166.194C293.209 167.145 292.473 167.881 291.537 168.402C290.617 168.923 289.575 169.184 288.409 169.184ZM281.095 173.462V156.626H284.522V159.156L284.453 162.836L284.683 166.493V173.462H281.095ZM287.788 166.24C288.386 166.24 288.915 166.102 289.375 165.826C289.851 165.55 290.226 165.159 290.502 164.653C290.794 164.132 290.939 163.518 290.939 162.813C290.939 162.092 290.794 161.479 290.502 160.973C290.226 160.467 289.851 160.076 289.375 159.8C288.915 159.524 288.386 159.386 287.788 159.386C287.19 159.386 286.654 159.524 286.178 159.8C285.703 160.076 285.327 160.467 285.051 160.973C284.775 161.479 284.637 162.092 284.637 162.813C284.637 163.518 284.775 164.132 285.051 164.653C285.327 165.159 285.703 165.55 286.178 165.826C286.654 166.102 287.19 166.24 287.788 166.24ZM303.116 169.184C301.706 169.184 300.464 168.908 299.39 168.356C298.332 167.804 297.512 167.053 296.929 166.102C296.347 165.136 296.055 164.04 296.055 162.813C296.055 161.571 296.339 160.475 296.906 159.524C297.489 158.558 298.279 157.807 299.275 157.27C300.272 156.718 301.399 156.442 302.656 156.442C303.868 156.442 304.956 156.703 305.922 157.224C306.904 157.73 307.678 158.466 308.245 159.432C308.813 160.383 309.096 161.525 309.096 162.859C309.096 162.997 309.089 163.158 309.073 163.342C309.058 163.511 309.043 163.672 309.027 163.825H298.976V161.732H307.141L305.761 162.353C305.761 161.709 305.631 161.149 305.37 160.674C305.11 160.199 304.749 159.831 304.289 159.57C303.829 159.294 303.293 159.156 302.679 159.156C302.066 159.156 301.522 159.294 301.046 159.57C300.586 159.831 300.226 160.206 299.965 160.697C299.705 161.172 299.574 161.74 299.574 162.399V162.951C299.574 163.626 299.72 164.224 300.011 164.745C300.318 165.251 300.74 165.642 301.276 165.918C301.828 166.179 302.472 166.309 303.208 166.309C303.868 166.309 304.443 166.209 304.933 166.01C305.439 165.811 305.899 165.512 306.313 165.113L308.222 167.183C307.655 167.827 306.942 168.325 306.083 168.678C305.225 169.015 304.236 169.184 303.116 169.184ZM104.969 199.184C103.804 199.184 102.753 198.923 101.818 198.402C100.883 197.865 100.139 197.122 99.587 196.171C99.0503 195.22 98.782 194.101 98.782 192.813C98.782 191.51 99.0503 190.383 99.587 189.432C100.139 188.481 100.883 187.745 101.818 187.224C102.753 186.703 103.804 186.442 104.969 186.442C106.012 186.442 106.924 186.672 107.706 187.132C108.488 187.592 109.094 188.29 109.523 189.225C109.952 190.16 110.167 191.356 110.167 192.813C110.167 194.254 109.96 195.45 109.546 196.401C109.132 197.336 108.534 198.034 107.752 198.494C106.985 198.954 106.058 199.184 104.969 199.184ZM105.59 196.24C106.173 196.24 106.702 196.102 107.177 195.826C107.652 195.55 108.028 195.159 108.304 194.653C108.595 194.132 108.741 193.518 108.741 192.813C108.741 192.092 108.595 191.479 108.304 190.973C108.028 190.467 107.652 190.076 107.177 189.8C106.702 189.524 106.173 189.386 105.59 189.386C104.992 189.386 104.455 189.524 103.98 189.8C103.505 190.076 103.121 190.467 102.83 190.973C102.554 191.479 102.416 192.092 102.416 192.813C102.416 193.518 102.554 194.132 102.83 194.653C103.121 195.159 103.505 195.55 103.98 195.826C104.455 196.102 104.992 196.24 105.59 196.24ZM108.833 199V196.47L108.902 192.79L108.672 189.133V181.934H112.26V199H108.833ZM121.722 199.184C120.311 199.184 119.069 198.908 117.996 198.356C116.938 197.804 116.117 197.053 115.535 196.102C114.952 195.136 114.661 194.04 114.661 192.813C114.661 191.571 114.944 190.475 115.512 189.524C116.094 188.558 116.884 187.807 117.881 187.27C118.877 186.718 120.004 186.442 121.262 186.442C122.473 186.442 123.562 186.703 124.528 187.224C125.509 187.73 126.283 188.466 126.851 189.432C127.418 190.383 127.702 191.525 127.702 192.859C127.702 192.997 127.694 193.158 127.679 193.342C127.663 193.511 127.648 193.672 127.633 193.825H117.582V191.732H125.747L124.367 192.353C124.367 191.709 124.236 191.149 123.976 190.674C123.715 190.199 123.355 189.831 122.895 189.57C122.435 189.294 121.898 189.156 121.285 189.156C120.671 189.156 120.127 189.294 119.652 189.57C119.192 189.831 118.831 190.206 118.571 190.697C118.31 191.172 118.18 191.74 118.18 192.399V192.951C118.18 193.626 118.325 194.224 118.617 194.745C118.923 195.251 119.345 195.642 119.882 195.918C120.434 196.179 121.078 196.309 121.814 196.309C122.473 196.309 123.048 196.209 123.539 196.01C124.045 195.811 124.505 195.512 124.919 195.113L126.828 197.183C126.26 197.827 125.547 198.325 124.689 198.678C123.83 199.015 122.841 199.184 121.722 199.184ZM137.041 199V186.35C137.041 184.955 137.455 183.843 138.283 183.015C139.111 182.172 140.292 181.75 141.825 181.75C142.347 181.75 142.845 181.804 143.32 181.911C143.811 182.018 144.225 182.187 144.562 182.417L143.619 185.016C143.42 184.878 143.198 184.771 142.952 184.694C142.707 184.617 142.446 184.579 142.17 184.579C141.649 184.579 141.243 184.732 140.951 185.039C140.675 185.33 140.537 185.775 140.537 186.373V187.523L140.629 189.064V199H137.041ZM135.132 189.662V186.902H143.711V189.662H135.132ZM145.735 199V186.626H149.323V199H145.735ZM147.529 184.901C146.87 184.901 146.333 184.709 145.919 184.326C145.505 183.943 145.298 183.467 145.298 182.9C145.298 182.333 145.505 181.857 145.919 181.474C146.333 181.091 146.87 180.899 147.529 180.899C148.189 180.899 148.725 181.083 149.139 181.451C149.553 181.804 149.76 182.264 149.76 182.831C149.76 183.429 149.553 183.927 149.139 184.326C148.741 184.709 148.204 184.901 147.529 184.901ZM158.621 199.184C157.287 199.184 156.099 198.916 155.056 198.379C154.014 197.827 153.193 197.068 152.595 196.102C152.013 195.136 151.721 194.04 151.721 192.813C151.721 191.571 152.013 190.475 152.595 189.524C153.193 188.558 154.014 187.807 155.056 187.27C156.099 186.718 157.287 186.442 158.621 186.442C159.925 186.442 161.059 186.718 162.025 187.27C162.991 187.807 163.704 188.581 164.164 189.593L161.381 191.088C161.059 190.505 160.653 190.076 160.162 189.8C159.687 189.524 159.166 189.386 158.598 189.386C157.985 189.386 157.433 189.524 156.942 189.8C156.452 190.076 156.061 190.467 155.769 190.973C155.493 191.479 155.355 192.092 155.355 192.813C155.355 193.534 155.493 194.147 155.769 194.653C156.061 195.159 156.452 195.55 156.942 195.826C157.433 196.102 157.985 196.24 158.598 196.24C159.166 196.24 159.687 196.11 160.162 195.849C160.653 195.573 161.059 195.136 161.381 194.538L164.164 196.056C163.704 197.053 162.991 197.827 162.025 198.379C161.059 198.916 159.925 199.184 158.621 199.184ZM173.684 186.442C174.665 186.442 175.539 186.641 176.306 187.04C177.088 187.423 177.701 188.021 178.146 188.834C178.591 189.631 178.813 190.659 178.813 191.916V199H175.225V192.468C175.225 191.471 175.003 190.735 174.558 190.26C174.129 189.785 173.515 189.547 172.718 189.547C172.151 189.547 171.637 189.67 171.177 189.915C170.732 190.145 170.38 190.505 170.119 190.996C169.874 191.487 169.751 192.115 169.751 192.882V199H166.163V181.934H169.751V190.053L168.946 189.018C169.391 188.19 170.027 187.554 170.855 187.109C171.683 186.664 172.626 186.442 173.684 186.442ZM182.065 199V186.626H185.653V199H182.065ZM183.859 184.901C183.2 184.901 182.663 184.709 182.249 184.326C181.835 183.943 181.628 183.467 181.628 182.9C181.628 182.333 181.835 181.857 182.249 181.474C182.663 181.091 183.2 180.899 183.859 180.899C184.519 180.899 185.055 181.083 185.469 181.451C185.883 181.804 186.09 182.264 186.09 182.831C186.09 183.429 185.883 183.927 185.469 184.326C185.071 184.709 184.534 184.901 183.859 184.901ZM195.124 199.184C193.713 199.184 192.471 198.908 191.398 198.356C190.34 197.804 189.52 197.053 188.937 196.102C188.354 195.136 188.063 194.04 188.063 192.813C188.063 191.571 188.347 190.475 188.914 189.524C189.497 188.558 190.286 187.807 191.283 187.27C192.28 186.718 193.407 186.442 194.664 186.442C195.875 186.442 196.964 186.703 197.93 187.224C198.911 187.73 199.686 188.466 200.253 189.432C200.82 190.383 201.104 191.525 201.104 192.859C201.104 192.997 201.096 193.158 201.081 193.342C201.066 193.511 201.05 193.672 201.035 193.825H190.984V191.732H199.149L197.769 192.353C197.769 191.709 197.639 191.149 197.378 190.674C197.117 190.199 196.757 189.831 196.297 189.57C195.837 189.294 195.3 189.156 194.687 189.156C194.074 189.156 193.529 189.294 193.054 189.57C192.594 189.831 192.234 190.206 191.973 190.697C191.712 191.172 191.582 191.74 191.582 192.399V192.951C191.582 193.626 191.728 194.224 192.019 194.745C192.326 195.251 192.747 195.642 193.284 195.918C193.836 196.179 194.48 196.309 195.216 196.309C195.875 196.309 196.45 196.209 196.941 196.01C197.447 195.811 197.907 195.512 198.321 195.113L200.23 197.183C199.663 197.827 198.95 198.325 198.091 198.678C197.232 199.015 196.243 199.184 195.124 199.184ZM203.493 199V186.626H206.92V190.122L206.437 189.11C206.805 188.236 207.395 187.577 208.208 187.132C209.021 186.672 210.01 186.442 211.175 186.442V189.754C211.022 189.739 210.884 189.731 210.761 189.731C210.638 189.716 210.508 189.708 210.37 189.708C209.389 189.708 208.591 189.992 207.978 190.559C207.38 191.111 207.081 191.977 207.081 193.158V199H203.493ZM217.561 199.184C216.503 199.184 215.484 199.061 214.502 198.816C213.536 198.555 212.77 198.233 212.202 197.85L213.398 195.274C213.966 195.627 214.633 195.918 215.399 196.148C216.181 196.363 216.948 196.47 217.699 196.47C218.527 196.47 219.11 196.37 219.447 196.171C219.8 195.972 219.976 195.696 219.976 195.343C219.976 195.052 219.838 194.837 219.562 194.699C219.302 194.546 218.949 194.431 218.504 194.354C218.06 194.277 217.569 194.201 217.032 194.124C216.511 194.047 215.982 193.948 215.445 193.825C214.909 193.687 214.418 193.488 213.973 193.227C213.529 192.966 213.168 192.614 212.892 192.169C212.632 191.724 212.501 191.149 212.501 190.444C212.501 189.662 212.724 188.972 213.168 188.374C213.628 187.776 214.288 187.308 215.146 186.971C216.005 186.618 217.032 186.442 218.228 186.442C219.072 186.442 219.93 186.534 220.804 186.718C221.678 186.902 222.407 187.17 222.989 187.523L221.793 190.076C221.195 189.723 220.59 189.486 219.976 189.363C219.378 189.225 218.796 189.156 218.228 189.156C217.431 189.156 216.848 189.263 216.48 189.478C216.112 189.693 215.928 189.969 215.928 190.306C215.928 190.613 216.059 190.843 216.319 190.996C216.595 191.149 216.956 191.272 217.4 191.364C217.845 191.456 218.328 191.54 218.849 191.617C219.386 191.678 219.923 191.778 220.459 191.916C220.996 192.054 221.479 192.253 221.908 192.514C222.353 192.759 222.713 193.104 222.989 193.549C223.265 193.978 223.403 194.546 223.403 195.251C223.403 196.018 223.173 196.7 222.713 197.298C222.253 197.881 221.586 198.341 220.712 198.678C219.854 199.015 218.803 199.184 217.561 199.184Z" fill="#0F1727"/>
<rect x="98.5" y="227.5" width="49" height="49" rx="15.5" fill="white" stroke="#4F6CA4"/>
<path d="M161.824 257V245.8H166.016C166.965 245.8 167.781 245.955 168.464 246.264C169.147 246.563 169.669 247 170.032 247.576C170.405 248.141 170.592 248.829 170.592 249.64C170.592 250.429 170.405 251.112 170.032 251.688C169.669 252.253 169.147 252.691 168.464 253C167.781 253.309 166.965 253.464 166.016 253.464H162.48L163.008 252.904V257H161.824ZM163.008 253L162.48 252.424H165.984C167.104 252.424 167.952 252.184 168.528 251.704C169.115 251.213 169.408 250.525 169.408 249.64C169.408 248.744 169.115 248.051 168.528 247.56C167.952 247.069 167.104 246.824 165.984 246.824H162.48L163.008 246.264V253ZM173.152 257V245.8H177.712C178.907 245.8 179.952 246.04 180.848 246.52C181.755 246.989 182.459 247.645 182.96 248.488C183.461 249.331 183.712 250.301 183.712 251.4C183.712 252.499 183.461 253.469 182.96 254.312C182.459 255.155 181.755 255.816 180.848 256.296C179.952 256.765 178.907 257 177.712 257H173.152ZM174.336 255.976H177.648C178.64 255.976 179.499 255.784 180.224 255.4C180.96 255.005 181.531 254.467 181.936 253.784C182.341 253.091 182.544 252.296 182.544 251.4C182.544 250.493 182.341 249.699 181.936 249.016C181.531 248.333 180.96 247.8 180.224 247.416C179.499 247.021 178.64 246.824 177.648 246.824H174.336V255.976ZM186.323 257V247.544C186.323 246.797 186.542 246.195 186.979 245.736C187.416 245.277 188.046 245.048 188.867 245.048C189.187 245.048 189.496 245.091 189.795 245.176C190.094 245.261 190.344 245.395 190.547 245.576L190.163 246.424C190.003 246.285 189.816 246.184 189.603 246.12C189.39 246.045 189.16 246.008 188.915 246.008C188.435 246.008 188.067 246.141 187.811 246.408C187.555 246.675 187.427 247.069 187.427 247.592V248.872L187.459 249.4V257H186.323ZM184.819 249.544V248.6H190.019V249.544H184.819ZM190.709 259.336L191.413 256.376L191.541 257.064C191.295 257.064 191.087 256.984 190.917 256.824C190.757 256.664 190.677 256.456 190.677 256.2C190.677 255.944 190.757 255.736 190.917 255.576C191.087 255.416 191.29 255.336 191.525 255.336C191.77 255.336 191.967 255.421 192.117 255.592C192.277 255.763 192.357 255.965 192.357 256.2C192.357 256.285 192.351 256.371 192.341 256.456C192.33 256.541 192.309 256.637 192.277 256.744C192.245 256.851 192.202 256.979 192.149 257.128L191.477 259.336H190.709ZM199.215 257V245.8H203.775C204.969 245.8 206.015 246.04 206.911 246.52C207.817 246.989 208.521 247.645 209.023 248.488C209.524 249.331 209.775 250.301 209.775 251.4C209.775 252.499 209.524 253.469 209.023 254.312C208.521 255.155 207.817 255.816 206.911 256.296C206.015 256.765 204.969 257 203.775 257H199.215ZM200.399 255.976H203.711C204.703 255.976 205.561 255.784 206.287 255.4C207.023 255.005 207.593 254.467 207.999 253.784C208.404 253.091 208.607 252.296 208.607 251.4C208.607 250.493 208.404 249.699 207.999 249.016C207.593 248.333 207.023 247.8 206.287 247.416C205.561 247.021 204.703 246.824 203.711 246.824H200.399V255.976ZM215.617 257.08C214.807 257.08 214.076 256.899 213.425 256.536C212.785 256.163 212.279 255.656 211.905 255.016C211.532 254.365 211.345 253.624 211.345 252.792C211.345 251.949 211.532 251.208 211.905 250.568C212.279 249.928 212.785 249.427 213.425 249.064C214.065 248.701 214.796 248.52 215.617 248.52C216.449 248.52 217.185 248.701 217.825 249.064C218.476 249.427 218.983 249.928 219.345 250.568C219.719 251.208 219.905 251.949 219.905 252.792C219.905 253.624 219.719 254.365 219.345 255.016C218.983 255.656 218.476 256.163 217.825 256.536C217.175 256.899 216.439 257.08 215.617 257.08ZM215.617 256.072C216.225 256.072 216.764 255.939 217.233 255.672C217.703 255.395 218.071 255.011 218.337 254.52C218.615 254.019 218.753 253.443 218.753 252.792C218.753 252.131 218.615 251.555 218.337 251.064C218.071 250.573 217.703 250.195 217.233 249.928C216.764 249.651 216.231 249.512 215.633 249.512C215.036 249.512 214.503 249.651 214.033 249.928C213.564 250.195 213.191 250.573 212.913 251.064C212.636 251.555 212.497 252.131 212.497 252.792C212.497 253.443 212.636 254.019 212.913 254.52C213.191 255.011 213.564 255.395 214.033 255.672C214.503 255.939 215.031 256.072 215.617 256.072ZM225.713 257.08C224.881 257.08 224.134 256.899 223.473 256.536C222.822 256.163 222.31 255.656 221.937 255.016C221.563 254.365 221.377 253.624 221.377 252.792C221.377 251.949 221.563 251.208 221.937 250.568C222.31 249.928 222.822 249.427 223.473 249.064C224.134 248.701 224.881 248.52 225.713 248.52C226.427 248.52 227.073 248.659 227.649 248.936C228.225 249.213 228.678 249.629 229.009 250.184L228.161 250.76C227.873 250.333 227.515 250.019 227.089 249.816C226.662 249.613 226.198 249.512 225.697 249.512C225.099 249.512 224.561 249.651 224.081 249.928C223.601 250.195 223.222 250.573 222.945 251.064C222.667 251.555 222.529 252.131 222.529 252.792C222.529 253.453 222.667 254.029 222.945 254.52C223.222 255.011 223.601 255.395 224.081 255.672C224.561 255.939 225.099 256.072 225.697 256.072C226.198 256.072 226.662 255.971 227.089 255.768C227.515 255.565 227.873 255.256 228.161 254.84L229.009 255.416C228.678 255.96 228.225 256.376 227.649 256.664C227.073 256.941 226.427 257.08 225.713 257.08ZM229.679 257L233.231 252.392L233.215 252.952L229.839 248.6H231.119L233.887 252.2L233.407 252.184L236.175 248.6H237.423L234.015 253L234.031 252.392L237.615 257H236.319L233.391 253.16L233.839 253.224L230.959 257H229.679ZM247.261 257.08C246.387 257.08 245.619 256.899 244.957 256.536C244.296 256.163 243.779 255.656 243.405 255.016C243.032 254.365 242.845 253.624 242.845 252.792C242.845 251.96 243.021 251.224 243.373 250.584C243.736 249.944 244.227 249.443 244.845 249.08C245.475 248.707 246.179 248.52 246.957 248.52C247.747 248.52 248.445 248.701 249.053 249.064C249.672 249.416 250.157 249.917 250.509 250.568C250.861 251.208 251.037 251.949 251.037 252.792C251.037 252.845 251.032 252.904 251.021 252.968C251.021 253.021 251.021 253.08 251.021 253.144H243.709V252.296H250.413L249.965 252.632C249.965 252.024 249.832 251.485 249.565 251.016C249.309 250.536 248.957 250.163 248.509 249.896C248.061 249.629 247.544 249.496 246.957 249.496C246.381 249.496 245.864 249.629 245.405 249.896C244.947 250.163 244.589 250.536 244.333 251.016C244.077 251.496 243.949 252.045 243.949 252.664V252.84C243.949 253.48 244.088 254.045 244.365 254.536C244.653 255.016 245.048 255.395 245.549 255.672C246.061 255.939 246.643 256.072 247.293 256.072C247.805 256.072 248.28 255.981 248.717 255.8C249.165 255.619 249.549 255.341 249.869 254.968L250.509 255.704C250.136 256.152 249.667 256.493 249.101 256.728C248.547 256.963 247.933 257.08 247.261 257.08ZM256.006 257.08C255.216 257.08 254.608 256.867 254.182 256.44C253.755 256.013 253.542 255.411 253.542 254.632V246.744H254.678V254.568C254.678 255.059 254.8 255.437 255.046 255.704C255.302 255.971 255.664 256.104 256.134 256.104C256.635 256.104 257.051 255.96 257.382 255.672L257.782 256.488C257.558 256.691 257.286 256.84 256.966 256.936C256.656 257.032 256.336 257.08 256.006 257.08ZM252.038 249.544V248.6H257.238V249.544H252.038ZM263.041 257.08C262.209 257.08 261.462 256.899 260.801 256.536C260.15 256.163 259.638 255.656 259.265 255.016C258.891 254.365 258.705 253.624 258.705 252.792C258.705 251.949 258.891 251.208 259.265 250.568C259.638 249.928 260.15 249.427 260.801 249.064C261.462 248.701 262.209 248.52 263.041 248.52C263.755 248.52 264.401 248.659 264.977 248.936C265.553 249.213 266.006 249.629 266.337 250.184L265.489 250.76C265.201 250.333 264.843 250.019 264.417 249.816C263.99 249.613 263.526 249.512 263.025 249.512C262.427 249.512 261.889 249.651 261.409 249.928C260.929 250.195 260.55 250.573 260.273 251.064C259.995 251.555 259.857 252.131 259.857 252.792C259.857 253.453 259.995 254.029 260.273 254.52C260.55 255.011 260.929 255.395 261.409 255.672C261.889 255.939 262.427 256.072 263.025 256.072C263.526 256.072 263.99 255.971 264.417 255.768C264.843 255.565 265.201 255.256 265.489 254.84L266.337 255.416C266.006 255.96 265.553 256.376 264.977 256.664C264.401 256.941 263.755 257.08 263.041 257.08Z" fill="#0F1727"/>
<rect x="98.5" y="293.5" width="49" height="49" rx="15.5" fill="white" stroke="#4F6CA4"/>
<path d="M161.824 325V313.8H163.008V325H161.824ZM176.908 316.52C177.591 316.52 178.183 316.653 178.684 316.92C179.196 317.176 179.591 317.571 179.868 318.104C180.156 318.637 180.3 319.309 180.3 320.12V325H179.164V320.232C179.164 319.347 178.951 318.68 178.524 318.232C178.108 317.773 177.516 317.544 176.748 317.544C176.172 317.544 175.671 317.667 175.244 317.912C174.828 318.147 174.503 318.493 174.268 318.952C174.044 319.4 173.932 319.944 173.932 320.584V325H172.796V320.232C172.796 319.347 172.583 318.68 172.156 318.232C171.729 317.773 171.132 317.544 170.364 317.544C169.799 317.544 169.303 317.667 168.876 317.912C168.449 318.147 168.119 318.493 167.884 318.952C167.66 319.4 167.548 319.944 167.548 320.584V325H166.412V316.6H167.5V318.872L167.324 318.472C167.58 317.864 167.991 317.389 168.556 317.048C169.132 316.696 169.809 316.52 170.588 316.52C171.409 316.52 172.108 316.728 172.684 317.144C173.26 317.549 173.633 318.163 173.804 318.984L173.356 318.808C173.601 318.125 174.033 317.576 174.652 317.16C175.281 316.733 176.033 316.52 176.908 316.52ZM188.645 325V323.144L188.597 322.84V319.736C188.597 319.021 188.394 318.472 187.989 318.088C187.594 317.704 187.002 317.512 186.213 317.512C185.669 317.512 185.152 317.603 184.661 317.784C184.17 317.965 183.754 318.205 183.413 318.504L182.901 317.656C183.328 317.293 183.84 317.016 184.437 316.824C185.034 316.621 185.664 316.52 186.325 316.52C187.413 316.52 188.25 316.792 188.837 317.336C189.434 317.869 189.733 318.685 189.733 319.784V325H188.645ZM185.749 325.08C185.12 325.08 184.57 324.979 184.101 324.776C183.642 324.563 183.29 324.275 183.045 323.912C182.8 323.539 182.677 323.112 182.677 322.632C182.677 322.195 182.778 321.8 182.981 321.448C183.194 321.085 183.536 320.797 184.005 320.584C184.485 320.36 185.125 320.248 185.925 320.248H188.821V321.096H185.957C185.146 321.096 184.581 321.24 184.261 321.528C183.952 321.816 183.797 322.173 183.797 322.6C183.797 323.08 183.984 323.464 184.357 323.752C184.73 324.04 185.253 324.184 185.925 324.184C186.565 324.184 187.114 324.04 187.573 323.752C188.042 323.453 188.384 323.027 188.597 322.472L188.853 323.256C188.64 323.811 188.266 324.253 187.733 324.584C187.21 324.915 186.549 325.08 185.749 325.08ZM196.402 328.184C195.634 328.184 194.898 328.072 194.194 327.848C193.49 327.624 192.92 327.304 192.482 326.888L193.058 326.024C193.453 326.376 193.938 326.653 194.514 326.856C195.101 327.069 195.72 327.176 196.37 327.176C197.437 327.176 198.221 326.925 198.722 326.424C199.224 325.933 199.474 325.165 199.474 324.12V322.024L199.634 320.584L199.522 319.144V316.6H200.61V323.976C200.61 325.427 200.253 326.488 199.538 327.16C198.834 327.843 197.789 328.184 196.402 328.184ZM196.194 324.68C195.394 324.68 194.674 324.509 194.034 324.168C193.394 323.816 192.888 323.331 192.514 322.712C192.152 322.093 191.97 321.384 191.97 320.584C191.97 319.784 192.152 319.08 192.514 318.472C192.888 317.853 193.394 317.373 194.034 317.032C194.674 316.691 195.394 316.52 196.194 316.52C196.941 316.52 197.613 316.675 198.21 316.984C198.808 317.293 199.282 317.752 199.634 318.36C199.986 318.968 200.162 319.709 200.162 320.584C200.162 321.459 199.986 322.2 199.634 322.808C199.282 323.416 198.808 323.88 198.21 324.2C197.613 324.52 196.941 324.68 196.194 324.68ZM196.306 323.672C196.925 323.672 197.474 323.544 197.954 323.288C198.434 323.021 198.813 322.659 199.09 322.2C199.368 321.731 199.506 321.192 199.506 320.584C199.506 319.976 199.368 319.443 199.09 318.984C198.813 318.525 198.434 318.168 197.954 317.912C197.474 317.645 196.925 317.512 196.306 317.512C195.698 317.512 195.149 317.645 194.658 317.912C194.178 318.168 193.8 318.525 193.522 318.984C193.256 319.443 193.122 319.976 193.122 320.584C193.122 321.192 193.256 321.731 193.522 322.2C193.8 322.659 194.178 323.021 194.658 323.288C195.149 323.544 195.698 323.672 196.306 323.672ZM207.34 325.08C206.465 325.08 205.697 324.899 205.036 324.536C204.374 324.163 203.857 323.656 203.484 323.016C203.11 322.365 202.924 321.624 202.924 320.792C202.924 319.96 203.1 319.224 203.452 318.584C203.814 317.944 204.305 317.443 204.924 317.08C205.553 316.707 206.257 316.52 207.036 316.52C207.825 316.52 208.524 316.701 209.132 317.064C209.75 317.416 210.236 317.917 210.588 318.568C210.94 319.208 211.116 319.949 211.116 320.792C211.116 320.845 211.11 320.904 211.1 320.968C211.1 321.021 211.1 321.08 211.1 321.144H203.788V320.296H210.492L210.044 320.632C210.044 320.024 209.91 319.485 209.644 319.016C209.388 318.536 209.036 318.163 208.588 317.896C208.14 317.629 207.622 317.496 207.036 317.496C206.46 317.496 205.942 317.629 205.484 317.896C205.025 318.163 204.668 318.536 204.412 319.016C204.156 319.496 204.028 320.045 204.028 320.664V320.84C204.028 321.48 204.166 322.045 204.444 322.536C204.732 323.016 205.126 323.395 205.628 323.672C206.14 323.939 206.721 324.072 207.372 324.072C207.884 324.072 208.358 323.981 208.796 323.8C209.244 323.619 209.628 323.341 209.948 322.968L210.588 323.704C210.214 324.152 209.745 324.493 209.18 324.728C208.625 324.963 208.012 325.08 207.34 325.08ZM215.684 325.08C214.99 325.08 214.334 324.984 213.716 324.792C213.097 324.589 212.612 324.339 212.26 324.04L212.772 323.144C213.113 323.4 213.55 323.624 214.084 323.816C214.617 323.997 215.177 324.088 215.764 324.088C216.564 324.088 217.14 323.965 217.492 323.72C217.844 323.464 218.02 323.128 218.02 322.712C218.02 322.403 217.918 322.163 217.716 321.992C217.524 321.811 217.268 321.677 216.948 321.592C216.628 321.496 216.27 321.416 215.876 321.352C215.481 321.288 215.086 321.213 214.692 321.128C214.308 321.043 213.956 320.92 213.636 320.76C213.316 320.589 213.054 320.36 212.852 320.072C212.66 319.784 212.564 319.4 212.564 318.92C212.564 318.461 212.692 318.051 212.948 317.688C213.204 317.325 213.577 317.043 214.068 316.84C214.569 316.627 215.177 316.52 215.892 316.52C216.436 316.52 216.98 316.595 217.524 316.744C218.068 316.883 218.516 317.069 218.868 317.304L218.372 318.216C217.998 317.96 217.598 317.779 217.172 317.672C216.745 317.555 216.318 317.496 215.892 317.496C215.134 317.496 214.574 317.629 214.212 317.896C213.86 318.152 213.684 318.483 213.684 318.888C213.684 319.208 213.78 319.459 213.972 319.64C214.174 319.821 214.436 319.965 214.756 320.072C215.086 320.168 215.444 320.248 215.828 320.312C216.222 320.376 216.612 320.456 216.996 320.552C217.39 320.637 217.748 320.76 218.068 320.92C218.398 321.069 218.66 321.288 218.852 321.576C219.054 321.853 219.156 322.221 219.156 322.68C219.156 323.171 219.017 323.597 218.74 323.96C218.473 324.312 218.078 324.589 217.556 324.792C217.044 324.984 216.42 325.08 215.684 325.08ZM220.552 327.336L221.256 324.376L221.384 325.064C221.139 325.064 220.931 324.984 220.76 324.824C220.6 324.664 220.52 324.456 220.52 324.2C220.52 323.944 220.6 323.736 220.76 323.576C220.931 323.416 221.134 323.336 221.368 323.336C221.614 323.336 221.811 323.421 221.96 323.592C222.12 323.763 222.2 323.965 222.2 324.2C222.2 324.285 222.195 324.371 222.184 324.456C222.174 324.541 222.152 324.637 222.12 324.744C222.088 324.851 222.046 324.979 221.992 325.128L221.32 327.336H220.552ZM230.978 325L227.25 316.6H228.434L231.858 324.392H231.298L234.77 316.6H235.89L232.146 325H230.978ZM237.49 325V316.6H238.626V325H237.49ZM238.066 314.744C237.832 314.744 237.634 314.664 237.474 314.504C237.314 314.344 237.234 314.152 237.234 313.928C237.234 313.704 237.314 313.517 237.474 313.368C237.634 313.208 237.832 313.128 238.066 313.128C238.301 313.128 238.498 313.203 238.658 313.352C238.818 313.501 238.898 313.688 238.898 313.912C238.898 314.147 238.818 314.344 238.658 314.504C238.509 314.664 238.312 314.744 238.066 314.744ZM245.131 325.08C244.331 325.08 243.611 324.899 242.971 324.536C242.342 324.173 241.846 323.672 241.483 323.032C241.12 322.381 240.939 321.635 240.939 320.792C240.939 319.939 241.12 319.192 241.483 318.552C241.846 317.912 242.342 317.416 242.971 317.064C243.611 316.701 244.331 316.52 245.131 316.52C245.867 316.52 246.523 316.685 247.099 317.016C247.686 317.347 248.15 317.832 248.491 318.472C248.843 319.101 249.019 319.875 249.019 320.792C249.019 321.699 248.848 322.472 248.507 323.112C248.166 323.752 247.702 324.243 247.115 324.584C246.539 324.915 245.878 325.08 245.131 325.08ZM245.211 324.072C245.808 324.072 246.342 323.939 246.811 323.672C247.291 323.395 247.664 323.011 247.931 322.52C248.208 322.019 248.347 321.443 248.347 320.792C248.347 320.131 248.208 319.555 247.931 319.064C247.664 318.573 247.291 318.195 246.811 317.928C246.342 317.651 245.808 317.512 245.211 317.512C244.624 317.512 244.096 317.651 243.627 317.928C243.158 318.195 242.784 318.573 242.507 319.064C242.23 319.555 242.091 320.131 242.091 320.792C242.091 321.443 242.23 322.019 242.507 322.52C242.784 323.011 243.158 323.395 243.627 323.672C244.096 323.939 244.624 324.072 245.211 324.072ZM248.379 325V322.472L248.491 320.776L248.331 319.08V313.128H249.467V325H248.379ZM256.199 325.08C255.324 325.08 254.556 324.899 253.895 324.536C253.234 324.163 252.716 323.656 252.343 323.016C251.97 322.365 251.783 321.624 251.783 320.792C251.783 319.96 251.959 319.224 252.311 318.584C252.674 317.944 253.164 317.443 253.783 317.08C254.412 316.707 255.116 316.52 255.895 316.52C256.684 316.52 257.383 316.701 257.991 317.064C258.61 317.416 259.095 317.917 259.447 318.568C259.799 319.208 259.975 319.949 259.975 320.792C259.975 320.845 259.97 320.904 259.959 320.968C259.959 321.021 259.959 321.08 259.959 321.144H252.647V320.296H259.351L258.903 320.632C258.903 320.024 258.77 319.485 258.503 319.016C258.247 318.536 257.895 318.163 257.447 317.896C256.999 317.629 256.482 317.496 255.895 317.496C255.319 317.496 254.802 317.629 254.343 317.896C253.884 318.163 253.527 318.536 253.271 319.016C253.015 319.496 252.887 320.045 252.887 320.664V320.84C252.887 321.48 253.026 322.045 253.303 322.536C253.591 323.016 253.986 323.395 254.487 323.672C254.999 323.939 255.58 324.072 256.231 324.072C256.743 324.072 257.218 323.981 257.655 323.8C258.103 323.619 258.487 323.341 258.807 322.968L259.447 323.704C259.074 324.152 258.604 324.493 258.039 324.728C257.484 324.963 256.871 325.08 256.199 325.08ZM265.711 325.08C264.9 325.08 264.17 324.899 263.519 324.536C262.879 324.163 262.372 323.656 261.999 323.016C261.626 322.365 261.439 321.624 261.439 320.792C261.439 319.949 261.626 319.208 261.999 318.568C262.372 317.928 262.879 317.427 263.519 317.064C264.159 316.701 264.89 316.52 265.711 316.52C266.543 316.52 267.279 316.701 267.919 317.064C268.57 317.427 269.076 317.928 269.439 318.568C269.812 319.208 269.999 319.949 269.999 320.792C269.999 321.624 269.812 322.365 269.439 323.016C269.076 323.656 268.57 324.163 267.919 324.536C267.268 324.899 266.532 325.08 265.711 325.08ZM265.711 324.072C266.319 324.072 266.858 323.939 267.327 323.672C267.796 323.395 268.164 323.011 268.431 322.52C268.708 322.019 268.847 321.443 268.847 320.792C268.847 320.131 268.708 319.555 268.431 319.064C268.164 318.573 267.796 318.195 267.327 317.928C266.858 317.651 266.324 317.512 265.727 317.512C265.13 317.512 264.596 317.651 264.127 317.928C263.658 318.195 263.284 318.573 263.007 319.064C262.73 319.555 262.591 320.131 262.591 320.792C262.591 321.443 262.73 322.019 263.007 322.52C263.284 323.011 263.658 323.395 264.127 323.672C264.596 323.939 265.124 324.072 265.711 324.072ZM271.396 327.336L272.1 324.376L272.228 325.064C271.983 325.064 271.775 324.984 271.604 324.824C271.444 324.664 271.364 324.456 271.364 324.2C271.364 323.944 271.444 323.736 271.604 323.576C271.775 323.416 271.977 323.336 272.212 323.336C272.457 323.336 272.655 323.421 272.804 323.592C272.964 323.763 273.044 323.965 273.044 324.2C273.044 324.285 273.039 324.371 273.028 324.456C273.017 324.541 272.996 324.637 272.964 324.744C272.932 324.851 272.889 324.979 272.836 325.128L272.164 327.336H271.396ZM284.926 325V323.144L284.878 322.84V319.736C284.878 319.021 284.675 318.472 284.27 318.088C283.875 317.704 283.283 317.512 282.494 317.512C281.95 317.512 281.433 317.603 280.942 317.784C280.451 317.965 280.035 318.205 279.694 318.504L279.182 317.656C279.609 317.293 280.121 317.016 280.718 316.824C281.315 316.621 281.945 316.52 282.606 316.52C283.694 316.52 284.531 316.792 285.118 317.336C285.715 317.869 286.014 318.685 286.014 319.784V325H284.926ZM282.03 325.08C281.401 325.08 280.851 324.979 280.382 324.776C279.923 324.563 279.571 324.275 279.326 323.912C279.081 323.539 278.958 323.112 278.958 322.632C278.958 322.195 279.059 321.8 279.262 321.448C279.475 321.085 279.817 320.797 280.286 320.584C280.766 320.36 281.406 320.248 282.206 320.248H285.102V321.096H282.238C281.427 321.096 280.862 321.24 280.542 321.528C280.233 321.816 280.078 322.173 280.078 322.6C280.078 323.08 280.265 323.464 280.638 323.752C281.011 324.04 281.534 324.184 282.206 324.184C282.846 324.184 283.395 324.04 283.854 323.752C284.323 323.453 284.665 323.027 284.878 322.472L285.134 323.256C284.921 323.811 284.547 324.253 284.014 324.584C283.491 324.915 282.83 325.08 282.03 325.08ZM292.572 325.08C291.857 325.08 291.233 324.947 290.7 324.68C290.166 324.413 289.75 324.013 289.452 323.48C289.164 322.947 289.02 322.28 289.02 321.48V316.6H290.156V321.352C290.156 322.248 290.374 322.925 290.812 323.384C291.26 323.832 291.884 324.056 292.684 324.056C293.27 324.056 293.777 323.939 294.204 323.704C294.641 323.459 294.972 323.107 295.196 322.648C295.43 322.189 295.548 321.64 295.548 321V316.6H296.684V325H295.596V322.696L295.772 323.112C295.505 323.731 295.089 324.216 294.524 324.568C293.969 324.909 293.318 325.08 292.572 325.08ZM303.194 325.08C302.394 325.08 301.674 324.899 301.034 324.536C300.404 324.173 299.908 323.672 299.546 323.032C299.183 322.381 299.002 321.635 299.002 320.792C299.002 319.939 299.183 319.192 299.546 318.552C299.908 317.912 300.404 317.416 301.034 317.064C301.674 316.701 302.394 316.52 303.194 316.52C303.93 316.52 304.586 316.685 305.162 317.016C305.748 317.347 306.212 317.832 306.554 318.472C306.906 319.101 307.082 319.875 307.082 320.792C307.082 321.699 306.911 322.472 306.57 323.112C306.228 323.752 305.764 324.243 305.178 324.584C304.602 324.915 303.94 325.08 303.194 325.08ZM303.274 324.072C303.871 324.072 304.404 323.939 304.874 323.672C305.354 323.395 305.727 323.011 305.994 322.52C306.271 322.019 306.41 321.443 306.41 320.792C306.41 320.131 306.271 319.555 305.994 319.064C305.727 318.573 305.354 318.195 304.874 317.928C304.404 317.651 303.871 317.512 303.274 317.512C302.687 317.512 302.159 317.651 301.69 317.928C301.22 318.195 300.847 318.573 300.57 319.064C300.292 319.555 300.154 320.131 300.154 320.792C300.154 321.443 300.292 322.019 300.57 322.52C300.847 323.011 301.22 323.395 301.69 323.672C302.159 323.939 302.687 324.072 303.274 324.072ZM306.442 325V322.472L306.554 320.776L306.394 319.08V313.128H307.53V325H306.442ZM310.693 325V316.6H311.829V325H310.693ZM311.269 314.744C311.035 314.744 310.837 314.664 310.677 314.504C310.517 314.344 310.437 314.152 310.437 313.928C310.437 313.704 310.517 313.517 310.677 313.368C310.837 313.208 311.035 313.128 311.269 313.128C311.504 313.128 311.701 313.203 311.861 313.352C312.021 313.501 312.101 313.688 312.101 313.912C312.101 314.147 312.021 314.344 311.861 314.504C311.712 314.664 311.515 314.744 311.269 314.744ZM318.414 325.08C317.604 325.08 316.873 324.899 316.222 324.536C315.582 324.163 315.076 323.656 314.702 323.016C314.329 322.365 314.142 321.624 314.142 320.792C314.142 319.949 314.329 319.208 314.702 318.568C315.076 317.928 315.582 317.427 316.222 317.064C316.862 316.701 317.593 316.52 318.414 316.52C319.246 316.52 319.982 316.701 320.622 317.064C321.273 317.427 321.78 317.928 322.142 318.568C322.516 319.208 322.702 319.949 322.702 320.792C322.702 321.624 322.516 322.365 322.142 323.016C321.78 323.656 321.273 324.163 320.622 324.536C319.972 324.899 319.236 325.08 318.414 325.08ZM318.414 324.072C319.022 324.072 319.561 323.939 320.03 323.672C320.5 323.395 320.868 323.011 321.134 322.52C321.412 322.019 321.55 321.443 321.55 320.792C321.55 320.131 321.412 319.555 321.134 319.064C320.868 318.573 320.5 318.195 320.03 317.928C319.561 317.651 319.028 317.512 318.43 317.512C317.833 317.512 317.3 317.651 316.83 317.928C316.361 318.195 315.988 318.573 315.71 319.064C315.433 319.555 315.294 320.131 315.294 320.792C315.294 321.443 315.433 322.019 315.71 322.52C315.988 323.011 316.361 323.395 316.83 323.672C317.3 323.939 317.828 324.072 318.414 324.072ZM332.777 325.08C331.902 325.08 331.134 324.899 330.473 324.536C329.812 324.163 329.294 323.656 328.921 323.016C328.548 322.365 328.361 321.624 328.361 320.792C328.361 319.96 328.537 319.224 328.889 318.584C329.252 317.944 329.742 317.443 330.361 317.08C330.99 316.707 331.694 316.52 332.473 316.52C333.262 316.52 333.961 316.701 334.569 317.064C335.188 317.416 335.673 317.917 336.025 318.568C336.377 319.208 336.553 319.949 336.553 320.792C336.553 320.845 336.548 320.904 336.537 320.968C336.537 321.021 336.537 321.08 336.537 321.144H329.225V320.296H335.929L335.481 320.632C335.481 320.024 335.348 319.485 335.081 319.016C334.825 318.536 334.473 318.163 334.025 317.896C333.577 317.629 333.06 317.496 332.473 317.496C331.897 317.496 331.38 317.629 330.921 317.896C330.462 318.163 330.105 318.536 329.849 319.016C329.593 319.496 329.465 320.045 329.465 320.664V320.84C329.465 321.48 329.604 322.045 329.881 322.536C330.169 323.016 330.564 323.395 331.065 323.672C331.577 323.939 332.158 324.072 332.809 324.072C333.321 324.072 333.796 323.981 334.233 323.8C334.681 323.619 335.065 323.341 335.385 322.968L336.025 323.704C335.652 324.152 335.182 324.493 334.617 324.728C334.062 324.963 333.449 325.08 332.777 325.08ZM341.521 325.08C340.732 325.08 340.124 324.867 339.697 324.44C339.271 324.013 339.057 323.411 339.057 322.632V314.744H340.193V322.568C340.193 323.059 340.316 323.437 340.561 323.704C340.817 323.971 341.18 324.104 341.649 324.104C342.151 324.104 342.567 323.96 342.897 323.672L343.297 324.488C343.073 324.691 342.801 324.84 342.481 324.936C342.172 325.032 341.852 325.08 341.521 325.08ZM337.553 317.544V316.6H342.753V317.544H337.553ZM348.556 325.08C347.724 325.08 346.978 324.899 346.316 324.536C345.666 324.163 345.154 323.656 344.78 323.016C344.407 322.365 344.22 321.624 344.22 320.792C344.22 319.949 344.407 319.208 344.78 318.568C345.154 317.928 345.666 317.427 346.316 317.064C346.978 316.701 347.724 316.52 348.556 316.52C349.271 316.52 349.916 316.659 350.492 316.936C351.068 317.213 351.522 317.629 351.852 318.184L351.004 318.76C350.716 318.333 350.359 318.019 349.932 317.816C349.506 317.613 349.042 317.512 348.54 317.512C347.943 317.512 347.404 317.651 346.924 317.928C346.444 318.195 346.066 318.573 345.788 319.064C345.511 319.555 345.372 320.131 345.372 320.792C345.372 321.453 345.511 322.029 345.788 322.52C346.066 323.011 346.444 323.395 346.924 323.672C347.404 323.939 347.943 324.072 348.54 324.072C349.042 324.072 349.506 323.971 349.932 323.768C350.359 323.565 350.716 323.256 351.004 322.84L351.852 323.416C351.522 323.96 351.068 324.376 350.492 324.664C349.916 324.941 349.271 325.08 348.556 325.08Z" fill="#0F1727"/>
<rect x="98.5" y="359.5" width="49" height="49" rx="15.5" fill="white" stroke="#4F6CA4"/>
<path d="M160.032 389L165.152 377.8H166.32L171.44 389H170.192L165.488 378.488H165.968L161.264 389H160.032ZM162.048 386.008L162.4 385.048H168.912L169.264 386.008H162.048ZM176.369 389.08C175.654 389.08 175.03 388.947 174.497 388.68C173.963 388.413 173.547 388.013 173.249 387.48C172.961 386.947 172.817 386.28 172.817 385.48V380.6H173.953V385.352C173.953 386.248 174.171 386.925 174.609 387.384C175.057 387.832 175.681 388.056 176.481 388.056C177.067 388.056 177.574 387.939 178.001 387.704C178.438 387.459 178.769 387.107 178.993 386.648C179.227 386.189 179.345 385.64 179.345 385V380.6H180.481V389H179.392V386.696L179.569 387.112C179.302 387.731 178.886 388.216 178.321 388.568C177.766 388.909 177.115 389.08 176.369 389.08ZM186.303 389.08C185.513 389.08 184.905 388.867 184.479 388.44C184.052 388.013 183.839 387.411 183.839 386.632V378.744H184.975V386.568C184.975 387.059 185.097 387.437 185.343 387.704C185.599 387.971 185.961 388.104 186.431 388.104C186.932 388.104 187.348 387.96 187.679 387.672L188.079 388.488C187.855 388.691 187.583 388.84 187.263 388.936C186.953 389.032 186.633 389.08 186.303 389.08ZM182.335 381.544V380.6H187.535V381.544H182.335ZM190.147 389V380.6H191.235V382.888L191.123 382.488C191.357 381.848 191.752 381.363 192.307 381.032C192.861 380.691 193.549 380.52 194.371 380.52V381.624C194.328 381.624 194.285 381.624 194.243 381.624C194.2 381.613 194.157 381.608 194.115 381.608C193.229 381.608 192.536 381.88 192.035 382.424C191.533 382.957 191.283 383.72 191.283 384.712V389H190.147ZM199.933 389.08C199.059 389.08 198.291 388.899 197.629 388.536C196.968 388.163 196.451 387.656 196.077 387.016C195.704 386.365 195.517 385.624 195.517 384.792C195.517 383.96 195.693 383.224 196.045 382.584C196.408 381.944 196.899 381.443 197.517 381.08C198.147 380.707 198.851 380.52 199.629 380.52C200.419 380.52 201.117 380.701 201.725 381.064C202.344 381.416 202.829 381.917 203.181 382.568C203.533 383.208 203.709 383.949 203.709 384.792C203.709 384.845 203.704 384.904 203.693 384.968C203.693 385.021 203.693 385.08 203.693 385.144H196.381V384.296H203.085L202.637 384.632C202.637 384.024 202.504 383.485 202.237 383.016C201.981 382.536 201.629 382.163 201.181 381.896C200.733 381.629 200.216 381.496 199.629 381.496C199.053 381.496 198.536 381.629 198.077 381.896C197.619 382.163 197.261 382.536 197.005 383.016C196.749 383.496 196.621 384.045 196.621 384.664V384.84C196.621 385.48 196.76 386.045 197.037 386.536C197.325 387.016 197.72 387.395 198.221 387.672C198.733 387.939 199.315 388.072 199.965 388.072C200.477 388.072 200.952 387.981 201.389 387.8C201.837 387.619 202.221 387.341 202.541 386.968L203.181 387.704C202.808 388.152 202.339 388.493 201.773 388.728C201.219 388.963 200.605 389.08 199.933 389.08ZM208.278 389.08C207.584 389.08 206.928 388.984 206.31 388.792C205.691 388.589 205.206 388.339 204.854 388.04L205.366 387.144C205.707 387.4 206.144 387.624 206.678 387.816C207.211 387.997 207.771 388.088 208.358 388.088C209.158 388.088 209.734 387.965 210.086 387.72C210.438 387.464 210.614 387.128 210.614 386.712C210.614 386.403 210.512 386.163 210.31 385.992C210.118 385.811 209.862 385.677 209.542 385.592C209.222 385.496 208.864 385.416 208.47 385.352C208.075 385.288 207.68 385.213 207.286 385.128C206.902 385.043 206.55 384.92 206.23 384.76C205.91 384.589 205.648 384.36 205.446 384.072C205.254 383.784 205.158 383.4 205.158 382.92C205.158 382.461 205.286 382.051 205.542 381.688C205.798 381.325 206.171 381.043 206.662 380.84C207.163 380.627 207.771 380.52 208.486 380.52C209.03 380.52 209.574 380.595 210.118 380.744C210.662 380.883 211.11 381.069 211.462 381.304L210.966 382.216C210.592 381.96 210.192 381.779 209.766 381.672C209.339 381.555 208.912 381.496 208.486 381.496C207.728 381.496 207.168 381.629 206.806 381.896C206.454 382.152 206.278 382.483 206.278 382.888C206.278 383.208 206.374 383.459 206.566 383.64C206.768 383.821 207.03 383.965 207.35 384.072C207.68 384.168 208.038 384.248 208.422 384.312C208.816 384.376 209.206 384.456 209.59 384.552C209.984 384.637 210.342 384.76 210.662 384.92C210.992 385.069 211.254 385.288 211.446 385.576C211.648 385.853 211.75 386.221 211.75 386.68C211.75 387.171 211.611 387.597 211.334 387.96C211.067 388.312 210.672 388.589 210.15 388.792C209.638 388.984 209.014 389.08 208.278 389.08ZM218.214 389V379.544C218.214 378.797 218.432 378.195 218.87 377.736C219.307 377.277 219.936 377.048 220.758 377.048C221.078 377.048 221.387 377.091 221.686 377.176C221.984 377.261 222.235 377.395 222.438 377.576L222.054 378.424C221.894 378.285 221.707 378.184 221.494 378.12C221.28 378.045 221.051 378.008 220.806 378.008C220.326 378.008 219.958 378.141 219.702 378.408C219.446 378.675 219.318 379.069 219.318 379.592V380.872L219.35 381.4V389H218.214ZM216.71 381.544V380.6H221.91V381.544H216.71ZM223.446 389V380.6H224.582V389H223.446ZM224.022 378.744C223.787 378.744 223.59 378.664 223.43 378.504C223.27 378.344 223.19 378.152 223.19 377.928C223.19 377.704 223.27 377.517 223.43 377.368C223.59 377.208 223.787 377.128 224.022 377.128C224.256 377.128 224.454 377.203 224.614 377.352C224.774 377.501 224.854 377.688 224.854 377.912C224.854 378.147 224.774 378.344 224.614 378.504C224.464 378.664 224.267 378.744 224.022 378.744ZM231.26 389.08C230.428 389.08 229.681 388.899 229.02 388.536C228.369 388.163 227.857 387.656 227.484 387.016C227.11 386.365 226.924 385.624 226.924 384.792C226.924 383.949 227.11 383.208 227.484 382.568C227.857 381.928 228.369 381.427 229.02 381.064C229.681 380.701 230.428 380.52 231.26 380.52C231.974 380.52 232.62 380.659 233.196 380.936C233.772 381.213 234.225 381.629 234.556 382.184L233.708 382.76C233.42 382.333 233.062 382.019 232.636 381.816C232.209 381.613 231.745 381.512 231.244 381.512C230.646 381.512 230.108 381.651 229.628 381.928C229.148 382.195 228.769 382.573 228.492 383.064C228.214 383.555 228.076 384.131 228.076 384.792C228.076 385.453 228.214 386.029 228.492 386.52C228.769 387.011 229.148 387.395 229.628 387.672C230.108 387.939 230.646 388.072 231.244 388.072C231.745 388.072 232.209 387.971 232.636 387.768C233.062 387.565 233.42 387.256 233.708 386.84L234.556 387.416C234.225 387.96 233.772 388.376 233.196 388.664C232.62 388.941 231.974 389.08 231.26 389.08ZM240.95 380.52C241.633 380.52 242.23 380.653 242.742 380.92C243.265 381.176 243.67 381.571 243.958 382.104C244.257 382.637 244.406 383.309 244.406 384.12V389H243.27V384.232C243.27 383.347 243.046 382.68 242.598 382.232C242.161 381.773 241.542 381.544 240.742 381.544C240.145 381.544 239.622 381.667 239.174 381.912C238.737 382.147 238.395 382.493 238.15 382.952C237.915 383.4 237.798 383.944 237.798 384.584V389H236.662V377.128H237.798V382.904L237.574 382.472C237.841 381.864 238.267 381.389 238.854 381.048C239.441 380.696 240.139 380.52 240.95 380.52ZM247.475 389V380.6H248.611V389H247.475ZM248.051 378.744C247.816 378.744 247.619 378.664 247.459 378.504C247.299 378.344 247.219 378.152 247.219 377.928C247.219 377.704 247.299 377.517 247.459 377.368C247.619 377.208 247.816 377.128 248.051 377.128C248.285 377.128 248.483 377.203 248.643 377.352C248.803 377.501 248.883 377.688 248.883 377.912C248.883 378.147 248.803 378.344 248.643 378.504C248.493 378.664 248.296 378.744 248.051 378.744ZM255.34 389.08C254.465 389.08 253.697 388.899 253.036 388.536C252.374 388.163 251.857 387.656 251.484 387.016C251.11 386.365 250.924 385.624 250.924 384.792C250.924 383.96 251.1 383.224 251.452 382.584C251.814 381.944 252.305 381.443 252.924 381.08C253.553 380.707 254.257 380.52 255.036 380.52C255.825 380.52 256.524 380.701 257.132 381.064C257.75 381.416 258.236 381.917 258.588 382.568C258.94 383.208 259.116 383.949 259.116 384.792C259.116 384.845 259.11 384.904 259.1 384.968C259.1 385.021 259.1 385.08 259.1 385.144H251.788V384.296H258.492L258.044 384.632C258.044 384.024 257.91 383.485 257.644 383.016C257.388 382.536 257.036 382.163 256.588 381.896C256.14 381.629 255.622 381.496 255.036 381.496C254.46 381.496 253.942 381.629 253.484 381.896C253.025 382.163 252.668 382.536 252.412 383.016C252.156 383.496 252.028 384.045 252.028 384.664V384.84C252.028 385.48 252.166 386.045 252.444 386.536C252.732 387.016 253.126 387.395 253.628 387.672C254.14 387.939 254.721 388.072 255.372 388.072C255.884 388.072 256.358 387.981 256.796 387.8C257.244 387.619 257.628 387.341 257.948 386.968L258.588 387.704C258.214 388.152 257.745 388.493 257.18 388.728C256.625 388.963 256.012 389.08 255.34 389.08ZM261.428 389V380.6H262.516V382.888L262.404 382.488C262.638 381.848 263.033 381.363 263.588 381.032C264.142 380.691 264.83 380.52 265.652 380.52V381.624C265.609 381.624 265.566 381.624 265.524 381.624C265.481 381.613 265.438 381.608 265.396 381.608C264.51 381.608 263.817 381.88 263.316 382.424C262.814 382.957 262.564 383.72 262.564 384.712V389H261.428ZM270.074 389.08C269.381 389.08 268.725 388.984 268.106 388.792C267.488 388.589 267.002 388.339 266.65 388.04L267.162 387.144C267.504 387.4 267.941 387.624 268.474 387.816C269.008 387.997 269.568 388.088 270.154 388.088C270.954 388.088 271.53 387.965 271.882 387.72C272.234 387.464 272.41 387.128 272.41 386.712C272.41 386.403 272.309 386.163 272.106 385.992C271.914 385.811 271.658 385.677 271.338 385.592C271.018 385.496 270.661 385.416 270.266 385.352C269.872 385.288 269.477 385.213 269.082 385.128C268.698 385.043 268.346 384.92 268.026 384.76C267.706 384.589 267.445 384.36 267.242 384.072C267.05 383.784 266.954 383.4 266.954 382.92C266.954 382.461 267.082 382.051 267.338 381.688C267.594 381.325 267.968 381.043 268.458 380.84C268.96 380.627 269.568 380.52 270.282 380.52C270.826 380.52 271.37 380.595 271.914 380.744C272.458 380.883 272.906 381.069 273.258 381.304L272.762 382.216C272.389 381.96 271.989 381.779 271.562 381.672C271.136 381.555 270.709 381.496 270.282 381.496C269.525 381.496 268.965 381.629 268.602 381.896C268.25 382.152 268.074 382.483 268.074 382.888C268.074 383.208 268.17 383.459 268.362 383.64C268.565 383.821 268.826 383.965 269.146 384.072C269.477 384.168 269.834 384.248 270.218 384.312C270.613 384.376 271.002 384.456 271.386 384.552C271.781 384.637 272.138 384.76 272.458 384.92C272.789 385.069 273.05 385.288 273.242 385.576C273.445 385.853 273.546 386.221 273.546 386.68C273.546 387.171 273.408 387.597 273.13 387.96C272.864 388.312 272.469 388.589 271.946 388.792C271.434 388.984 270.81 389.08 270.074 389.08Z" fill="#0F1727"/>
<g filter="url(#filter1_d_1_37)">
<rect x="313" y="10" width="233.333" height="200" rx="16" fill="white"/>
</g>
<g filter="url(#filter2_d_1_37)">
<rect x="313" y="402" width="427" height="80" rx="16" fill="white"/>
</g>
<rect opacity="0.7" x="323" y="412" width="60" height="60" rx="16" fill="#4F6CA4"/>
<path d="M395.98 449L402.32 435H404.3L410.66 449H408.56L402.9 436.12H403.7L398.04 449H395.98ZM398.68 445.5L399.22 443.9H407.1L407.68 445.5H398.68ZM416.991 449.12C415.911 449.12 414.944 448.887 414.091 448.42C413.251 447.953 412.591 447.313 412.111 446.5C411.631 445.687 411.391 444.753 411.391 443.7C411.391 442.647 411.631 441.713 412.111 440.9C412.591 440.087 413.251 439.453 414.091 439C414.944 438.533 415.911 438.3 416.991 438.3C417.951 438.3 418.804 438.493 419.551 438.88C420.311 439.253 420.897 439.813 421.311 440.56L419.851 441.5C419.504 440.98 419.077 440.6 418.571 440.36C418.077 440.107 417.544 439.98 416.971 439.98C416.277 439.98 415.657 440.133 415.111 440.44C414.564 440.747 414.131 441.18 413.811 441.74C413.491 442.287 413.331 442.94 413.331 443.7C413.331 444.46 413.491 445.12 413.811 445.68C414.131 446.24 414.564 446.673 415.111 446.98C415.657 447.287 416.277 447.44 416.971 447.44C417.544 447.44 418.077 447.32 418.571 447.08C419.077 446.827 419.504 446.44 419.851 445.92L421.311 446.84C420.897 447.573 420.311 448.14 419.551 448.54C418.804 448.927 417.951 449.12 416.991 449.12ZM428.26 449.12C427.18 449.12 426.214 448.887 425.36 448.42C424.52 447.953 423.86 447.313 423.38 446.5C422.9 445.687 422.66 444.753 422.66 443.7C422.66 442.647 422.9 441.713 423.38 440.9C423.86 440.087 424.52 439.453 425.36 439C426.214 438.533 427.18 438.3 428.26 438.3C429.22 438.3 430.074 438.493 430.82 438.88C431.58 439.253 432.167 439.813 432.58 440.56L431.12 441.5C430.774 440.98 430.347 440.6 429.84 440.36C429.347 440.107 428.814 439.98 428.24 439.98C427.547 439.98 426.927 440.133 426.38 440.44C425.834 440.747 425.4 441.18 425.08 441.74C424.76 442.287 424.6 442.94 424.6 443.7C424.6 444.46 424.76 445.12 425.08 445.68C425.4 446.24 425.834 446.673 426.38 446.98C426.927 447.287 427.547 447.44 428.24 447.44C428.814 447.44 429.347 447.32 429.84 447.08C430.347 446.827 430.774 446.44 431.12 445.92L432.58 446.84C432.167 447.573 431.58 448.14 430.82 448.54C430.074 448.927 429.22 449.12 428.26 449.12ZM439.63 449.12C438.497 449.12 437.497 448.887 436.63 448.42C435.777 447.953 435.11 447.313 434.63 446.5C434.163 445.687 433.93 444.753 433.93 443.7C433.93 442.647 434.157 441.713 434.61 440.9C435.077 440.087 435.71 439.453 436.51 439C437.323 438.533 438.237 438.3 439.25 438.3C440.277 438.3 441.183 438.527 441.97 438.98C442.757 439.433 443.37 440.073 443.81 440.9C444.263 441.713 444.49 442.667 444.49 443.76C444.49 443.84 444.483 443.933 444.47 444.04C444.47 444.147 444.463 444.247 444.45 444.34H435.43V442.96H443.45L442.67 443.44C442.683 442.76 442.543 442.153 442.25 441.62C441.957 441.087 441.55 440.673 441.03 440.38C440.523 440.073 439.93 439.92 439.25 439.92C438.583 439.92 437.99 440.073 437.47 440.38C436.95 440.673 436.543 441.093 436.25 441.64C435.957 442.173 435.81 442.787 435.81 443.48V443.8C435.81 444.507 435.97 445.14 436.29 445.7C436.623 446.247 437.083 446.673 437.67 446.98C438.257 447.287 438.93 447.44 439.69 447.44C440.317 447.44 440.883 447.333 441.39 447.12C441.91 446.907 442.363 446.587 442.75 446.16L443.81 447.4C443.33 447.96 442.73 448.387 442.01 448.68C441.303 448.973 440.51 449.12 439.63 449.12ZM438.93 436.86L435.57 434.26H438.01L440.73 436.86H438.93ZM450.196 449.12C449.316 449.12 448.476 449 447.676 448.76C446.889 448.52 446.269 448.227 445.816 447.88L446.616 446.36C447.069 446.667 447.629 446.927 448.296 447.14C448.963 447.353 449.643 447.46 450.336 447.46C451.229 447.46 451.869 447.333 452.256 447.08C452.656 446.827 452.856 446.473 452.856 446.02C452.856 445.687 452.736 445.427 452.496 445.24C452.256 445.053 451.936 444.913 451.536 444.82C451.149 444.727 450.716 444.647 450.236 444.58C449.756 444.5 449.276 444.407 448.796 444.3C448.316 444.18 447.876 444.02 447.476 443.82C447.076 443.607 446.756 443.32 446.516 442.96C446.276 442.587 446.156 442.093 446.156 441.48C446.156 440.84 446.336 440.28 446.696 439.8C447.056 439.32 447.563 438.953 448.216 438.7C448.883 438.433 449.669 438.3 450.576 438.3C451.269 438.3 451.969 438.387 452.676 438.56C453.396 438.72 453.983 438.953 454.436 439.26L453.616 440.78C453.136 440.46 452.636 440.24 452.116 440.12C451.596 440 451.076 439.94 450.556 439.94C449.716 439.94 449.089 440.08 448.676 440.36C448.263 440.627 448.056 440.973 448.056 441.4C448.056 441.76 448.176 442.04 448.416 442.24C448.669 442.427 448.989 442.573 449.376 442.68C449.776 442.787 450.216 442.88 450.696 442.96C451.176 443.027 451.656 443.12 452.136 443.24C452.616 443.347 453.049 443.5 453.436 443.7C453.836 443.9 454.156 444.18 454.396 444.54C454.649 444.9 454.776 445.38 454.776 445.98C454.776 446.62 454.589 447.173 454.216 447.64C453.843 448.107 453.316 448.473 452.636 448.74C451.956 448.993 451.143 449.12 450.196 449.12ZM468.167 449.12C467.287 449.12 466.48 448.92 465.747 448.52C465.027 448.107 464.447 447.5 464.007 446.7C463.58 445.9 463.367 444.9 463.367 443.7C463.367 442.5 463.573 441.5 463.987 440.7C464.413 439.9 464.987 439.3 465.707 438.9C466.44 438.5 467.26 438.3 468.167 438.3C469.207 438.3 470.127 438.527 470.927 438.98C471.727 439.433 472.36 440.067 472.827 440.88C473.293 441.68 473.527 442.62 473.527 443.7C473.527 444.78 473.293 445.727 472.827 446.54C472.36 447.353 471.727 447.987 470.927 448.44C470.127 448.893 469.207 449.12 468.167 449.12ZM462.547 452.88V438.4H464.387V441.26L464.267 443.72L464.467 446.18V452.88H462.547ZM468.007 447.44C468.687 447.44 469.293 447.287 469.827 446.98C470.373 446.673 470.8 446.24 471.107 445.68C471.427 445.107 471.587 444.447 471.587 443.7C471.587 442.94 471.427 442.287 471.107 441.74C470.8 441.18 470.373 440.747 469.827 440.44C469.293 440.133 468.687 439.98 468.007 439.98C467.34 439.98 466.733 440.133 466.187 440.44C465.653 440.747 465.227 441.18 464.907 441.74C464.6 442.287 464.447 442.94 464.447 443.7C464.447 444.447 464.6 445.107 464.907 445.68C465.227 446.24 465.653 446.673 466.187 446.98C466.733 447.287 467.34 447.44 468.007 447.44ZM480.899 449.12C479.766 449.12 478.766 448.887 477.899 448.42C477.046 447.953 476.379 447.313 475.899 446.5C475.433 445.687 475.199 444.753 475.199 443.7C475.199 442.647 475.426 441.713 475.879 440.9C476.346 440.087 476.979 439.453 477.779 439C478.593 438.533 479.506 438.3 480.519 438.3C481.546 438.3 482.453 438.527 483.239 438.98C484.026 439.433 484.639 440.073 485.079 440.9C485.533 441.713 485.759 442.667 485.759 443.76C485.759 443.84 485.753 443.933 485.739 444.04C485.739 444.147 485.733 444.247 485.719 444.34H476.699V442.96H484.719L483.939 443.44C483.953 442.76 483.813 442.153 483.519 441.62C483.226 441.087 482.819 440.673 482.299 440.38C481.793 440.073 481.199 439.92 480.519 439.92C479.853 439.92 479.259 440.073 478.739 440.38C478.219 440.673 477.813 441.093 477.519 441.64C477.226 442.173 477.079 442.787 477.079 443.48V443.8C477.079 444.507 477.239 445.14 477.559 445.7C477.893 446.247 478.353 446.673 478.939 446.98C479.526 447.287 480.199 447.44 480.959 447.44C481.586 447.44 482.153 447.333 482.659 447.12C483.179 446.907 483.633 446.587 484.019 446.16L485.079 447.4C484.599 447.96 483.999 448.387 483.279 448.68C482.573 448.973 481.779 449.12 480.899 449.12ZM488.425 449V438.4H490.265V441.28L490.085 440.56C490.379 439.827 490.872 439.267 491.565 438.88C492.259 438.493 493.112 438.3 494.125 438.3V440.16C494.045 440.147 493.965 440.14 493.885 440.14C493.819 440.14 493.752 440.14 493.685 440.14C492.659 440.14 491.845 440.447 491.245 441.06C490.645 441.673 490.345 442.56 490.345 443.72V449H488.425ZM509.752 438.3C510.605 438.3 511.359 438.467 512.012 438.8C512.665 439.133 513.172 439.64 513.532 440.32C513.905 441 514.092 441.86 514.092 442.9V449H512.172V443.12C512.172 442.093 511.932 441.32 511.452 440.8C510.972 440.28 510.299 440.02 509.432 440.02C508.792 440.02 508.232 440.153 507.752 440.42C507.272 440.687 506.899 441.08 506.632 441.6C506.379 442.12 506.252 442.767 506.252 443.54V449H504.332V443.12C504.332 442.093 504.092 441.32 503.612 440.8C503.145 440.28 502.472 440.02 501.592 440.02C500.965 440.02 500.412 440.153 499.932 440.42C499.452 440.687 499.079 441.08 498.812 441.6C498.545 442.12 498.412 442.767 498.412 443.54V449H496.492V438.4H498.332V441.22L498.032 440.5C498.365 439.807 498.879 439.267 499.572 438.88C500.265 438.493 501.072 438.3 501.992 438.3C503.005 438.3 503.879 438.553 504.612 439.06C505.345 439.553 505.825 440.307 506.052 441.32L505.272 441C505.592 440.187 506.152 439.533 506.952 439.04C507.752 438.547 508.685 438.3 509.752 438.3ZM524.205 449V446.76L524.105 446.34V442.52C524.105 441.707 523.865 441.08 523.385 440.64C522.918 440.187 522.211 439.96 521.265 439.96C520.638 439.96 520.025 440.067 519.425 440.28C518.825 440.48 518.318 440.753 517.905 441.1L517.105 439.66C517.651 439.22 518.305 438.887 519.065 438.66C519.838 438.42 520.645 438.3 521.485 438.3C522.938 438.3 524.058 438.653 524.845 439.36C525.631 440.067 526.025 441.147 526.025 442.6V449H524.205ZM520.725 449.12C519.938 449.12 519.245 448.987 518.645 448.72C518.058 448.453 517.605 448.087 517.285 447.62C516.965 447.14 516.805 446.6 516.805 446C516.805 445.427 516.938 444.907 517.205 444.44C517.485 443.973 517.931 443.6 518.545 443.32C519.171 443.04 520.011 442.9 521.065 442.9H524.425V444.28H521.145C520.185 444.28 519.538 444.44 519.205 444.76C518.871 445.08 518.705 445.467 518.705 445.92C518.705 446.44 518.911 446.86 519.325 447.18C519.738 447.487 520.311 447.64 521.045 447.64C521.765 447.64 522.391 447.48 522.925 447.16C523.471 446.84 523.865 446.373 524.105 445.76L524.485 447.08C524.231 447.707 523.785 448.207 523.145 448.58C522.505 448.94 521.698 449.12 520.725 449.12ZM535.238 438.3C536.104 438.3 536.864 438.467 537.518 438.8C538.184 439.133 538.704 439.64 539.078 440.32C539.451 441 539.638 441.86 539.638 442.9V449H537.718V443.12C537.718 442.093 537.464 441.32 536.958 440.8C536.464 440.28 535.764 440.02 534.858 440.02C534.178 440.02 533.584 440.153 533.078 440.42C532.571 440.687 532.178 441.08 531.898 441.6C531.631 442.12 531.498 442.767 531.498 443.54V449H529.578V438.4H531.418V441.26L531.118 440.5C531.464 439.807 531.998 439.267 532.718 438.88C533.438 438.493 534.278 438.3 535.238 438.3ZM547.911 449.12C546.778 449.12 545.778 448.887 544.911 448.42C544.058 447.953 543.391 447.313 542.911 446.5C542.444 445.687 542.211 444.753 542.211 443.7C542.211 442.647 542.438 441.713 542.891 440.9C543.358 440.087 543.991 439.453 544.791 439C545.604 438.533 546.518 438.3 547.531 438.3C548.558 438.3 549.464 438.527 550.251 438.98C551.038 439.433 551.651 440.073 552.091 440.9C552.544 441.713 552.771 442.667 552.771 443.76C552.771 443.84 552.764 443.933 552.751 444.04C552.751 444.147 552.744 444.247 552.731 444.34H543.711V442.96H551.731L550.951 443.44C550.964 442.76 550.824 442.153 550.531 441.62C550.238 441.087 549.831 440.673 549.311 440.38C548.804 440.073 548.211 439.92 547.531 439.92C546.864 439.92 546.271 440.073 545.751 440.38C545.231 440.673 544.824 441.093 544.531 441.64C544.238 442.173 544.091 442.787 544.091 443.48V443.8C544.091 444.507 544.251 445.14 544.571 445.7C544.904 446.247 545.364 446.673 545.951 446.98C546.538 447.287 547.211 447.44 547.971 447.44C548.598 447.44 549.164 447.333 549.671 447.12C550.191 446.907 550.644 446.587 551.031 446.16L552.091 447.4C551.611 447.96 551.011 448.387 550.291 448.68C549.584 448.973 548.791 449.12 547.911 449.12ZM561.097 438.3C561.964 438.3 562.724 438.467 563.377 438.8C564.044 439.133 564.564 439.64 564.937 440.32C565.311 441 565.497 441.86 565.497 442.9V449H563.577V443.12C563.577 442.093 563.324 441.32 562.817 440.8C562.324 440.28 561.624 440.02 560.717 440.02C560.037 440.02 559.444 440.153 558.937 440.42C558.431 440.687 558.037 441.08 557.757 441.6C557.491 442.12 557.357 442.767 557.357 443.54V449H555.437V438.4H557.277V441.26L556.977 440.5C557.324 439.807 557.857 439.267 558.577 438.88C559.297 438.493 560.137 438.3 561.097 438.3ZM572.69 449.12C571.624 449.12 570.797 448.833 570.21 448.26C569.624 447.687 569.33 446.867 569.33 445.8V436.08H571.25V445.72C571.25 446.293 571.39 446.733 571.67 447.04C571.964 447.347 572.377 447.5 572.91 447.5C573.51 447.5 574.01 447.333 574.41 447L575.01 448.38C574.717 448.633 574.364 448.82 573.95 448.94C573.55 449.06 573.13 449.12 572.69 449.12ZM567.53 439.98V438.4H574.29V439.98H567.53ZM589.283 449V446.76L589.183 446.34V442.52C589.183 441.707 588.943 441.08 588.463 440.64C587.996 440.187 587.289 439.96 586.343 439.96C585.716 439.96 585.103 440.067 584.503 440.28C583.903 440.48 583.396 440.753 582.983 441.1L582.183 439.66C582.729 439.22 583.383 438.887 584.143 438.66C584.916 438.42 585.723 438.3 586.563 438.3C588.016 438.3 589.136 438.653 589.923 439.36C590.709 440.067 591.103 441.147 591.103 442.6V449H589.283ZM585.803 449.12C585.016 449.12 584.323 448.987 583.723 448.72C583.136 448.453 582.683 448.087 582.363 447.62C582.043 447.14 581.883 446.6 581.883 446C581.883 445.427 582.016 444.907 582.283 444.44C582.563 443.973 583.009 443.6 583.623 443.32C584.249 443.04 585.089 442.9 586.143 442.9H589.503V444.28H586.223C585.263 444.28 584.616 444.44 584.283 444.76C583.949 445.08 583.783 445.467 583.783 445.92C583.783 446.44 583.989 446.86 584.403 447.18C584.816 447.487 585.389 447.64 586.123 447.64C586.843 447.64 587.469 447.48 588.003 447.16C588.549 446.84 588.943 446.373 589.183 445.76L589.563 447.08C589.309 447.707 588.863 448.207 588.223 448.58C587.583 448.94 586.776 449.12 585.803 449.12ZM599.116 449.12C598.209 449.12 597.409 448.953 596.716 448.62C596.036 448.287 595.503 447.78 595.116 447.1C594.743 446.407 594.556 445.54 594.556 444.5V438.4H596.476V444.28C596.476 445.32 596.723 446.1 597.216 446.62C597.723 447.14 598.429 447.4 599.336 447.4C600.003 447.4 600.583 447.267 601.076 447C601.569 446.72 601.949 446.32 602.216 445.8C602.483 445.267 602.616 444.627 602.616 443.88V438.4H604.536V449H602.716V446.14L603.016 446.9C602.669 447.607 602.149 448.153 601.456 448.54C600.763 448.927 599.983 449.12 599.116 449.12ZM606.651 449L611.211 443.08L611.191 444.06L606.851 438.4H608.991L612.311 442.76H611.491L614.811 438.4H616.911L612.511 444.1L612.531 443.08L617.131 449H614.951L611.451 444.36L612.231 444.48L608.791 449H606.651ZM628.977 449.12C627.951 449.12 627.031 448.893 626.217 448.44C625.417 447.987 624.784 447.353 624.317 446.54C623.851 445.727 623.617 444.78 623.617 443.7C623.617 442.62 623.851 441.68 624.317 440.88C624.784 440.067 625.417 439.433 626.217 438.98C627.031 438.527 627.951 438.3 628.977 438.3C629.871 438.3 630.677 438.5 631.397 438.9C632.117 439.3 632.691 439.9 633.117 440.7C633.557 441.5 633.777 442.5 633.777 443.7C633.777 444.9 633.564 445.9 633.137 446.7C632.724 447.5 632.157 448.107 631.437 448.52C630.717 448.92 629.897 449.12 628.977 449.12ZM629.137 447.44C629.804 447.44 630.404 447.287 630.937 446.98C631.484 446.673 631.911 446.24 632.217 445.68C632.537 445.107 632.697 444.447 632.697 443.7C632.697 442.94 632.537 442.287 632.217 441.74C631.911 441.18 631.484 440.747 630.937 440.44C630.404 440.133 629.804 439.98 629.137 439.98C628.457 439.98 627.851 440.133 627.317 440.44C626.784 440.747 626.357 441.18 626.037 441.74C625.717 442.287 625.557 442.94 625.557 443.7C625.557 444.447 625.717 445.107 626.037 445.68C626.357 446.24 626.784 446.673 627.317 446.98C627.851 447.287 628.457 447.44 629.137 447.44ZM632.757 449V446.14L632.877 443.68L632.677 441.22V434.16H634.597V449H632.757ZM642.77 449.12C641.703 449.12 640.757 448.887 639.93 448.42C639.103 447.953 638.45 447.313 637.97 446.5C637.49 445.673 637.25 444.74 637.25 443.7C637.25 442.647 637.49 441.713 637.97 440.9C638.45 440.087 639.103 439.453 639.93 439C640.757 438.533 641.703 438.3 642.77 438.3C643.823 438.3 644.763 438.533 645.59 439C646.43 439.453 647.083 440.087 647.55 440.9C648.03 441.7 648.27 442.633 648.27 443.7C648.27 444.753 648.03 445.687 647.55 446.5C647.083 447.313 646.43 447.953 645.59 448.42C644.763 448.887 643.823 449.12 642.77 449.12ZM642.77 447.44C643.45 447.44 644.057 447.287 644.59 446.98C645.137 446.673 645.563 446.24 645.87 445.68C646.177 445.107 646.33 444.447 646.33 443.7C646.33 442.94 646.177 442.287 645.87 441.74C645.563 441.18 645.137 440.747 644.59 440.44C644.057 440.133 643.45 439.98 642.77 439.98C642.09 439.98 641.483 440.133 640.95 440.44C640.417 440.747 639.99 441.18 639.67 441.74C639.35 442.287 639.19 442.94 639.19 443.7C639.19 444.447 639.35 445.107 639.67 445.68C639.99 446.24 640.417 446.673 640.95 446.98C641.483 447.287 642.09 447.44 642.77 447.44ZM656.585 438.3C657.452 438.3 658.212 438.467 658.865 438.8C659.532 439.133 660.052 439.64 660.425 440.32C660.799 441 660.985 441.86 660.985 442.9V449H659.065V443.12C659.065 442.093 658.812 441.32 658.305 440.8C657.812 440.28 657.112 440.02 656.205 440.02C655.525 440.02 654.932 440.153 654.425 440.42C653.919 440.687 653.525 441.08 653.245 441.6C652.979 442.12 652.845 442.767 652.845 443.54V449H650.925V438.4H652.765V441.26L652.465 440.5C652.812 439.807 653.345 439.267 654.065 438.88C654.785 438.493 655.625 438.3 656.585 438.3ZM670.199 438.3C671.065 438.3 671.825 438.467 672.479 438.8C673.145 439.133 673.665 439.64 674.039 440.32C674.412 441 674.599 441.86 674.599 442.9V449H672.679V443.12C672.679 442.093 672.425 441.32 671.919 440.8C671.425 440.28 670.725 440.02 669.819 440.02C669.139 440.02 668.545 440.153 668.039 440.42C667.532 440.687 667.139 441.08 666.859 441.6C666.592 442.12 666.459 442.767 666.459 443.54V449H664.539V438.4H666.379V441.26L666.079 440.5C666.425 439.807 666.959 439.267 667.679 438.88C668.399 438.493 669.239 438.3 670.199 438.3ZM682.872 449.12C681.739 449.12 680.739 448.887 679.872 448.42C679.019 447.953 678.352 447.313 677.872 446.5C677.405 445.687 677.172 444.753 677.172 443.7C677.172 442.647 677.399 441.713 677.852 440.9C678.319 440.087 678.952 439.453 679.752 439C680.565 438.533 681.479 438.3 682.492 438.3C683.519 438.3 684.425 438.527 685.212 438.98C685.999 439.433 686.612 440.073 687.052 440.9C687.505 441.713 687.732 442.667 687.732 443.76C687.732 443.84 687.725 443.933 687.712 444.04C687.712 444.147 687.705 444.247 687.692 444.34H678.672V442.96H686.692L685.912 443.44C685.925 442.76 685.785 442.153 685.492 441.62C685.199 441.087 684.792 440.673 684.272 440.38C683.765 440.073 683.172 439.92 682.492 439.92C681.825 439.92 681.232 440.073 680.712 440.38C680.192 440.673 679.785 441.093 679.492 441.64C679.199 442.173 679.052 442.787 679.052 443.48V443.8C679.052 444.507 679.212 445.14 679.532 445.7C679.865 446.247 680.325 446.673 680.912 446.98C681.499 447.287 682.172 447.44 682.932 447.44C683.559 447.44 684.125 447.333 684.632 447.12C685.152 446.907 685.605 446.587 685.992 446.16L687.052 447.4C686.572 447.96 685.972 448.387 685.252 448.68C684.545 448.973 683.752 449.12 682.872 449.12ZM680.972 436.86L683.692 434.26H686.132L682.772 436.86H680.972ZM695.118 449.12C693.985 449.12 692.985 448.887 692.118 448.42C691.265 447.953 690.598 447.313 690.118 446.5C689.651 445.687 689.418 444.753 689.418 443.7C689.418 442.647 689.645 441.713 690.098 440.9C690.565 440.087 691.198 439.453 691.998 439C692.811 438.533 693.725 438.3 694.738 438.3C695.765 438.3 696.671 438.527 697.458 438.98C698.245 439.433 698.858 440.073 699.298 440.9C699.751 441.713 699.978 442.667 699.978 443.76C699.978 443.84 699.971 443.933 699.958 444.04C699.958 444.147 699.951 444.247 699.938 444.34H690.918V442.96H698.938L698.158 443.44C698.171 442.76 698.031 442.153 697.738 441.62C697.445 441.087 697.038 440.673 696.518 440.38C696.011 440.073 695.418 439.92 694.738 439.92C694.071 439.92 693.478 440.073 692.958 440.38C692.438 440.673 692.031 441.093 691.738 441.64C691.445 442.173 691.298 442.787 691.298 443.48V443.8C691.298 444.507 691.458 445.14 691.778 445.7C692.111 446.247 692.571 446.673 693.158 446.98C693.745 447.287 694.418 447.44 695.178 447.44C695.805 447.44 696.371 447.333 696.878 447.12C697.398 446.907 697.851 446.587 698.238 446.16L699.298 447.4C698.818 447.96 698.218 448.387 697.498 448.68C696.791 448.973 695.998 449.12 695.118 449.12ZM705.684 449.12C704.804 449.12 703.964 449 703.164 448.76C702.378 448.52 701.758 448.227 701.304 447.88L702.104 446.36C702.558 446.667 703.118 446.927 703.784 447.14C704.451 447.353 705.131 447.46 705.824 447.46C706.718 447.46 707.358 447.333 707.744 447.08C708.144 446.827 708.344 446.473 708.344 446.02C708.344 445.687 708.224 445.427 707.984 445.24C707.744 445.053 707.424 444.913 707.024 444.82C706.638 444.727 706.204 444.647 705.724 444.58C705.244 444.5 704.764 444.407 704.284 444.3C703.804 444.18 703.364 444.02 702.964 443.82C702.564 443.607 702.244 443.32 702.004 442.96C701.764 442.587 701.644 442.093 701.644 441.48C701.644 440.84 701.824 440.28 702.184 439.8C702.544 439.32 703.051 438.953 703.704 438.7C704.371 438.433 705.158 438.3 706.064 438.3C706.758 438.3 707.458 438.387 708.164 438.56C708.884 438.72 709.471 438.953 709.924 439.26L709.104 440.78C708.624 440.46 708.124 440.24 707.604 440.12C707.084 440 706.564 439.94 706.044 439.94C705.204 439.94 704.578 440.08 704.164 440.36C703.751 440.627 703.544 440.973 703.544 441.4C703.544 441.76 703.664 442.04 703.904 442.24C704.158 442.427 704.478 442.573 704.864 442.68C705.264 442.787 705.704 442.88 706.184 442.96C706.664 443.027 707.144 443.12 707.624 443.24C708.104 443.347 708.538 443.5 708.924 443.7C709.324 443.9 709.644 444.18 709.884 444.54C710.138 444.9 710.264 445.38 710.264 445.98C710.264 446.62 710.078 447.173 709.704 447.64C709.331 448.107 708.804 448.473 708.124 448.74C707.444 448.993 706.631 449.12 705.684 449.12Z" fill="#0F1727"/>
<path d="M386.724 107.794C384.35 107.673 382.503 105.645 382.838 103.291C384.062 94.6882 387.621 86.5537 393.166 79.7922C399.624 71.9175 408.436 66.3197 418.308 63.8202C428.181 61.3207 438.595 62.051 448.022 65.9039C457.45 69.7569 465.394 76.5297 470.69 85.2286C475.985 93.9276 478.354 104.095 477.448 114.239C476.542 124.382 472.408 133.969 465.655 141.591C458.901 149.214 449.882 154.471 439.921 156.592C431.368 158.413 422.508 157.84 414.303 154.976C412.058 154.193 411.105 151.621 412.088 149.457C413.07 147.292 415.617 146.358 417.877 147.097C424.39 149.225 431.376 149.609 438.128 148.172C446.288 146.434 453.677 142.127 459.211 135.882C464.744 129.637 468.13 121.783 468.873 113.473C469.615 105.162 467.675 96.8324 463.336 89.7056C458.997 82.5788 452.489 77.03 444.765 73.8734C437.042 70.7168 428.51 70.1185 420.421 72.1663C412.333 74.2141 405.114 78.8001 399.823 85.2517C395.446 90.5892 392.579 96.9712 391.479 103.735C391.097 106.081 389.098 107.915 386.724 107.794Z" fill="#4F6CA4" fill-opacity="0.15"/>
<path d="M473.332 110C475.709 110 477.657 111.931 477.442 114.299C476.658 122.953 473.518 131.259 468.324 138.294C462.275 146.487 453.76 152.526 444.027 155.525C434.294 158.524 423.857 158.324 414.246 154.956C404.635 151.588 396.356 145.229 390.624 136.811C384.892 128.392 382.009 118.359 382.398 108.182C382.786 98.0053 386.426 88.221 392.783 80.2645C399.141 72.308 407.88 66.5983 417.72 63.9731C426.169 61.719 435.047 61.8407 443.387 64.2829C445.669 64.951 446.752 67.4708 445.881 69.6828C445.009 71.8948 442.513 72.9567 440.219 72.3341C433.605 70.5399 426.609 70.5121 419.94 72.2915C411.878 74.4423 404.718 79.1201 399.51 85.6386C394.301 92.1571 391.319 100.173 391.001 108.511C390.683 116.848 393.045 125.068 397.74 131.965C402.436 138.862 409.219 144.072 417.093 146.831C424.967 149.591 433.518 149.754 441.492 147.297C449.466 144.84 456.442 139.893 461.398 133.18C465.498 127.627 468.036 121.107 468.79 114.296C469.052 111.933 470.955 110 473.332 110Z" fill="#FFB400" fill-opacity="0.7"/>
<path d="M439.333 98.3334H420.667C419.378 98.3334 418.333 99.378 418.333 100.667V105.333C418.333 106.622 419.378 107.667 420.667 107.667H439.333C440.622 107.667 441.667 106.622 441.667 105.333V100.667C441.667 99.378 440.622 98.3334 439.333 98.3334Z" stroke="#FFB400" stroke-width="2" stroke-linecap="round" stroke-linejoin="round"/>
<path d="M439.333 112.333H420.667C419.378 112.333 418.333 113.378 418.333 114.667V119.333C418.333 120.622 419.378 121.667 420.667 121.667H439.333C440.622 121.667 441.667 120.622 441.667 119.333V114.667C441.667 113.378 440.622 112.333 439.333 112.333Z" stroke="#FFB400" stroke-width="2" stroke-linecap="round" stroke-linejoin="round"/>
<path d="M423 103H423.012" stroke="#FFB400" stroke-width="2" stroke-linecap="round" stroke-linejoin="round"/>
<path d="M423 117H423.012" stroke="#FFB400" stroke-width="2" stroke-linecap="round" stroke-linejoin="round"/>
<path d="M353 454.5C353 454.5 363 449.5 363 442V433.25L353 429.5L343 433.25V442C343 449.5 353 454.5 353 454.5Z" stroke="white" stroke-width="2" stroke-linecap="round" stroke-linejoin="round"/>
<path d="M349.25 442L351.75 444.5L356.75 439.5" stroke="white" stroke-width="2" stroke-linecap="round" stroke-linejoin="round"/>
<path d="M125.5 242H117C116.47 242 115.961 242.211 115.586 242.586C115.211 242.961 115 243.47 115 244V260C115 260.53 115.211 261.039 115.586 261.414C115.961 261.789 116.47 262 117 262H129C129.53 262 130.039 261.789 130.414 261.414C130.789 261.039 131 260.53 131 260V247.5L125.5 242Z" stroke="#4F6CA4" stroke-width="2" stroke-linecap="round" stroke-linejoin="round"/>
<path d="M125 242V248H131" stroke="#4F6CA4" stroke-width="2" stroke-linecap="round" stroke-linejoin="round"/>
<path d="M127 253H119" stroke="#4F6CA4" stroke-width="2" stroke-linecap="round" stroke-linejoin="round"/>
<path d="M127 257H119" stroke="#4F6CA4" stroke-width="2" stroke-linecap="round" stroke-linejoin="round"/>
<path d="M121 249H119" stroke="#4F6CA4" stroke-width="2" stroke-linecap="round" stroke-linejoin="round"/>
<path d="M125.5 308H117C116.47 308 115.961 308.211 115.586 308.586C115.211 308.961 115 309.47 115 310V326C115 326.53 115.211 327.039 115.586 327.414C115.961 327.789 116.47 328 117 328H129C129.53 328 130.039 327.789 130.414 327.414C130.789 327.039 131 326.53 131 326V313.5L125.5 308Z" stroke="#4F6CA4" stroke-width="2" stroke-linecap="round" stroke-linejoin="round"/>
<path d="M125 308V314H131" stroke="#4F6CA4" stroke-width="2" stroke-linecap="round" stroke-linejoin="round"/>
<path d="M121 321C122.105 321 123 320.105 123 319C123 317.895 122.105 317 121 317C119.895 317 119 317.895 119 319C119 320.105 119.895 321 121 321Z" stroke="#4F6CA4" stroke-width="2" stroke-linecap="round" stroke-linejoin="round"/>
<path d="M131 323L129.91 321.91C129.535 321.537 129.028 321.328 128.5 321.328C127.972 321.328 127.465 321.537 127.09 321.91L121 328" stroke="#4F6CA4" stroke-width="2" stroke-linecap="round" stroke-linejoin="round"/>
<path d="M125.5 374H117C116.47 374 115.961 374.211 115.586 374.586C115.211 374.961 115 375.47 115 376V392C115 392.53 115.211 393.039 115.586 393.414C115.961 393.789 116.47 394 117 394H129C129.53 394 130.039 393.789 130.414 393.414C130.789 393.039 131 392.53 131 392V379.5L125.5 374Z" stroke="#4F6CA4" stroke-width="2" stroke-linecap="round" stroke-linejoin="round"/>
<path d="M125 374V380H131" stroke="#4F6CA4" stroke-width="2" stroke-linecap="round" stroke-linejoin="round"/>
<path d="M119 385H121" stroke="#4F6CA4" stroke-width="2" stroke-linecap="round" stroke-linejoin="round"/>
<path d="M119 389H121" stroke="#4F6CA4" stroke-width="2" stroke-linecap="round" stroke-linejoin="round"/>
<path d="M125 385H127" stroke="#4F6CA4" stroke-width="2" stroke-linecap="round" stroke-linejoin="round"/>
<path d="M125 389H127" stroke="#4F6CA4" stroke-width="2" stroke-linecap="round" stroke-linejoin="round"/>
<defs>
<filter id="filter0_d_1_37" x="0" y="110" width="450" height="460" filterUnits="userSpaceOnUse" color-interpolation-filters="sRGB">
<feFlood flood-opacity="0" result="BackgroundImageFix"/>
<feColorMatrix in="SourceAlpha" type="matrix" values="0 0 0 0 0 0 0 0 0 0 0 0 0 0 0 0 0 0 127 0" result="hardAlpha"/>
<feOffset dx="-20" dy="60"/>
<feGaussianBlur stdDeviation="25"/>
<feComposite in2="hardAlpha" operator="out"/>
<feColorMatrix type="matrix" values="0 0 0 0 0.309804 0 0 0 0 0.423529 0 0 0 0 0.643137 0 0 0 0.2 0"/>
<feBlend mode="normal" in2="BackgroundImageFix" result="effect1_dropShadow_1_37"/>
<feBlend mode="normal" in="SourceGraphic" in2="effect1_dropShadow_1_37" result="shape"/>
</filter>
<filter id="filter1_d_1_37" x="258" y="0" width="313.333" height="280" filterUnits="userSpaceOnUse" color-interpolation-filters="sRGB">
<feFlood flood-opacity="0" result="BackgroundImageFix"/>
<feColorMatrix in="SourceAlpha" type="matrix" values="0 0 0 0 0 0 0 0 0 0 0 0 0 0 0 0 0 0 127 0" result="hardAlpha"/>
<feOffset dx="-15" dy="30"/>
<feGaussianBlur stdDeviation="20"/>
<feComposite in2="hardAlpha" operator="out"/>
<feColorMatrix type="matrix" values="0 0 0 0 0.309804 0 0 0 0 0.423529 0 0 0 0 0.643137 0 0 0 0.15 0"/>
<feBlend mode="normal" in2="BackgroundImageFix" result="effect1_dropShadow_1_37"/>
<feBlend mode="normal" in="SourceGraphic" in2="effect1_dropShadow_1_37" result="shape"/>
</filter>
<filter id="filter2_d_1_37" x="233" y="366" width="527" height="180" filterUnits="userSpaceOnUse" color-interpolation-filters="sRGB">
<feFlood flood-opacity="0" result="BackgroundImageFix"/>
<feColorMatrix in="SourceAlpha" type="matrix" values="0 0 0 0 0 0 0 0 0 0 0 0 0 0 0 0 0 0 127 0" result="hardAlpha"/>
<feOffset dx="-30" dy="14"/>
<feGaussianBlur stdDeviation="25"/>
<feComposite in2="hardAlpha" operator="out"/>
<feColorMatrix type="matrix" values="0 0 0 0 0.309804 0 0 0 0 0.423529 0 0 0 0 0.643137 0 0 0 0.1 0"/>
<feBlend mode="normal" in2="BackgroundImageFix" result="effect1_dropShadow_1_37"/>
<feBlend mode="normal" in="SourceGraphic" in2="effect1_dropShadow_1_37" result="shape"/>
</filter>
</defs>
</svg>
