<svg width="822" height="492" viewBox="0 0 822 492" fill="none" xmlns="http://www.w3.org/2000/svg">
<g filter="url(#filter0_d_1_209)">
<rect x="333" y="97" width="320" height="273" rx="16" fill="white"/>
</g>
<path d="M404.032 216L409.152 204.8H410.32L415.44 216H414.192L409.488 205.488H409.968L405.264 216H404.032ZM406.048 213.008L406.4 212.048H412.912L413.264 213.008H406.048ZM421.389 216.08C420.663 216.08 420.007 215.915 419.421 215.584C418.834 215.243 418.365 214.757 418.013 214.128C417.671 213.488 417.501 212.709 417.501 211.792C417.501 210.875 417.671 210.101 418.013 209.472C418.354 208.832 418.818 208.347 419.405 208.016C419.991 207.685 420.653 207.52 421.389 207.52C422.189 207.52 422.903 207.701 423.533 208.064C424.173 208.416 424.674 208.917 425.037 209.568C425.399 210.208 425.581 210.949 425.581 211.792C425.581 212.645 425.399 213.392 425.037 214.032C424.674 214.672 424.173 215.173 423.533 215.536C422.903 215.899 422.189 216.08 421.389 216.08ZM417.053 219.104V207.6H418.141V210.128L418.029 211.808L418.189 213.504V219.104H417.053ZM421.309 215.072C421.906 215.072 422.439 214.939 422.909 214.672C423.378 214.395 423.751 214.011 424.029 213.52C424.306 213.019 424.445 212.443 424.445 211.792C424.445 211.141 424.306 210.571 424.029 210.08C423.751 209.589 423.378 209.205 422.909 208.928C422.439 208.651 421.906 208.512 421.309 208.512C420.711 208.512 420.173 208.651 419.693 208.928C419.223 209.205 418.85 209.589 418.573 210.08C418.306 210.571 418.173 211.141 418.173 211.792C418.173 212.443 418.306 213.019 418.573 213.52C418.85 214.011 419.223 214.395 419.693 214.672C420.173 214.939 420.711 215.072 421.309 215.072ZM432.233 216.08C431.507 216.08 430.851 215.915 430.265 215.584C429.678 215.243 429.209 214.757 428.857 214.128C428.515 213.488 428.345 212.709 428.345 211.792C428.345 210.875 428.515 210.101 428.857 209.472C429.198 208.832 429.662 208.347 430.249 208.016C430.835 207.685 431.497 207.52 432.233 207.52C433.033 207.52 433.747 207.701 434.377 208.064C435.017 208.416 435.518 208.917 435.881 209.568C436.243 210.208 436.425 210.949 436.425 211.792C436.425 212.645 436.243 213.392 435.881 214.032C435.518 214.672 435.017 215.173 434.377 215.536C433.747 215.899 433.033 216.08 432.233 216.08ZM427.897 219.104V207.6H428.985V210.128L428.873 211.808L429.033 213.504V219.104H427.897ZM432.153 215.072C432.75 215.072 433.283 214.939 433.753 214.672C434.222 214.395 434.595 214.011 434.873 213.52C435.15 213.019 435.289 212.443 435.289 211.792C435.289 211.141 435.15 210.571 434.873 210.08C434.595 209.589 434.222 209.205 433.753 208.928C433.283 208.651 432.75 208.512 432.153 208.512C431.555 208.512 431.017 208.651 430.536 208.928C430.067 209.205 429.694 209.589 429.417 210.08C429.15 210.571 429.017 211.141 429.017 211.792C429.017 212.443 429.15 213.019 429.417 213.52C429.694 214.011 430.067 214.395 430.536 214.672C431.017 214.939 431.555 215.072 432.153 215.072ZM442.308 216.08C441.434 216.08 440.666 215.899 440.004 215.536C439.343 215.163 438.826 214.656 438.452 214.016C438.079 213.365 437.892 212.624 437.892 211.792C437.892 210.96 438.068 210.224 438.42 209.584C438.783 208.944 439.274 208.443 439.892 208.08C440.522 207.707 441.226 207.52 442.004 207.52C442.794 207.52 443.492 207.701 444.1 208.064C444.719 208.416 445.204 208.917 445.556 209.568C445.908 210.208 446.084 210.949 446.084 211.792C446.084 211.845 446.079 211.904 446.068 211.968C446.068 212.021 446.068 212.08 446.068 212.144H438.756V211.296H445.46L445.012 211.632C445.012 211.024 444.879 210.485 444.612 210.016C444.356 209.536 444.004 209.163 443.556 208.896C443.108 208.629 442.591 208.496 442.004 208.496C441.428 208.496 440.911 208.629 440.452 208.896C439.994 209.163 439.636 209.536 439.38 210.016C439.124 210.496 438.996 211.045 438.996 211.664V211.84C438.996 212.48 439.135 213.045 439.412 213.536C439.7 214.016 440.095 214.395 440.596 214.672C441.108 214.939 441.69 215.072 442.34 215.072C442.852 215.072 443.327 214.981 443.764 214.8C444.212 214.619 444.596 214.341 444.916 213.968L445.556 214.704C445.183 215.152 444.714 215.493 444.148 215.728C443.594 215.963 442.98 216.08 442.308 216.08ZM448.397 216V204.128H449.533V216H448.397ZM459.041 216L455.313 207.6H456.497L459.921 215.392H459.361L462.833 207.6H463.953L460.209 216H459.041ZM465.553 216V207.6H466.689V216H465.553ZM466.129 205.744C465.894 205.744 465.697 205.664 465.537 205.504C465.377 205.344 465.297 205.152 465.297 204.928C465.297 204.704 465.377 204.517 465.537 204.368C465.697 204.208 465.894 204.128 466.129 204.128C466.363 204.128 466.561 204.203 466.721 204.352C466.881 204.501 466.961 204.688 466.961 204.912C466.961 205.147 466.881 205.344 466.721 205.504C466.571 205.664 466.374 205.744 466.129 205.744ZM473.194 216.08C472.394 216.08 471.674 215.899 471.034 215.536C470.404 215.173 469.908 214.672 469.546 214.032C469.183 213.381 469.002 212.635 469.002 211.792C469.002 210.939 469.183 210.192 469.546 209.552C469.908 208.912 470.404 208.416 471.034 208.064C471.674 207.701 472.394 207.52 473.194 207.52C473.93 207.52 474.586 207.685 475.162 208.016C475.748 208.347 476.212 208.832 476.554 209.472C476.906 210.101 477.082 210.875 477.082 211.792C477.082 212.699 476.911 213.472 476.57 214.112C476.228 214.752 475.764 215.243 475.178 215.584C474.602 215.915 473.94 216.08 473.194 216.08ZM473.274 215.072C473.871 215.072 474.404 214.939 474.874 214.672C475.354 214.395 475.727 214.011 475.994 213.52C476.271 213.019 476.41 212.443 476.41 211.792C476.41 211.131 476.271 210.555 475.994 210.064C475.727 209.573 475.354 209.195 474.874 208.928C474.404 208.651 473.871 208.512 473.274 208.512C472.687 208.512 472.159 208.651 471.69 208.928C471.22 209.195 470.847 209.573 470.57 210.064C470.292 210.555 470.154 211.131 470.154 211.792C470.154 212.443 470.292 213.019 470.57 213.52C470.847 214.011 471.22 214.395 471.69 214.672C472.159 214.939 472.687 215.072 473.274 215.072ZM476.442 216V213.472L476.554 211.776L476.394 210.08V204.128H477.53V216H476.442ZM484.261 216.08C483.387 216.08 482.619 215.899 481.957 215.536C481.296 215.163 480.779 214.656 480.405 214.016C480.032 213.365 479.845 212.624 479.845 211.792C479.845 210.96 480.021 210.224 480.373 209.584C480.736 208.944 481.227 208.443 481.845 208.08C482.475 207.707 483.179 207.52 483.957 207.52C484.747 207.52 485.445 207.701 486.053 208.064C486.672 208.416 487.157 208.917 487.509 209.568C487.861 210.208 488.037 210.949 488.037 211.792C488.037 211.845 488.032 211.904 488.021 211.968C488.021 212.021 488.021 212.08 488.021 212.144H480.709V211.296H487.413L486.965 211.632C486.965 211.024 486.832 210.485 486.565 210.016C486.309 209.536 485.957 209.163 485.509 208.896C485.061 208.629 484.544 208.496 483.957 208.496C483.381 208.496 482.864 208.629 482.405 208.896C481.947 209.163 481.589 209.536 481.333 210.016C481.077 210.496 480.949 211.045 480.949 211.664V211.84C480.949 212.48 481.088 213.045 481.365 213.536C481.653 214.016 482.048 214.395 482.549 214.672C483.061 214.939 483.643 215.072 484.293 215.072C484.805 215.072 485.28 214.981 485.717 214.8C486.165 214.619 486.549 214.341 486.869 213.968L487.509 214.704C487.136 215.152 486.667 215.493 486.101 215.728C485.547 215.963 484.933 216.08 484.261 216.08ZM482.901 206.288L485.093 204.304H486.613L484.021 206.288H482.901ZM493.774 216.08C492.963 216.08 492.232 215.899 491.582 215.536C490.942 215.163 490.435 214.656 490.062 214.016C489.688 213.365 489.502 212.624 489.502 211.792C489.502 210.949 489.688 210.208 490.062 209.568C490.435 208.928 490.942 208.427 491.582 208.064C492.222 207.701 492.952 207.52 493.774 207.52C494.606 207.52 495.342 207.701 495.982 208.064C496.632 208.427 497.139 208.928 497.502 209.568C497.875 210.208 498.062 210.949 498.062 211.792C498.062 212.624 497.875 213.365 497.502 214.016C497.139 214.656 496.632 215.163 495.982 215.536C495.331 215.899 494.595 216.08 493.774 216.08ZM493.774 215.072C494.382 215.072 494.92 214.939 495.39 214.672C495.859 214.395 496.227 214.011 496.494 213.52C496.771 213.019 496.91 212.443 496.91 211.792C496.91 211.131 496.771 210.555 496.494 210.064C496.227 209.573 495.859 209.195 495.39 208.928C494.92 208.651 494.387 208.512 493.79 208.512C493.192 208.512 492.659 208.651 492.19 208.928C491.72 209.195 491.347 209.573 491.07 210.064C490.792 210.555 490.654 211.131 490.654 211.792C490.654 212.443 490.792 213.019 491.07 213.52C491.347 214.011 491.72 214.395 492.19 214.672C492.659 214.939 493.187 215.072 493.774 215.072Z" fill="black"/>
<path d="M404.032 266L409.152 254.8H410.32L415.44 266H414.192L409.488 255.488H409.968L405.264 266H404.032ZM406.048 263.008L406.4 262.048H412.912L413.264 263.008H406.048ZM421.389 266.08C420.663 266.08 420.007 265.915 419.421 265.584C418.834 265.243 418.365 264.757 418.013 264.128C417.671 263.488 417.501 262.709 417.501 261.792C417.501 260.875 417.671 260.101 418.013 259.472C418.354 258.832 418.818 258.347 419.405 258.016C419.991 257.685 420.653 257.52 421.389 257.52C422.189 257.52 422.903 257.701 423.533 258.064C424.173 258.416 424.674 258.917 425.037 259.568C425.399 260.208 425.581 260.949 425.581 261.792C425.581 262.645 425.399 263.392 425.037 264.032C424.674 264.672 424.173 265.173 423.533 265.536C422.903 265.899 422.189 266.08 421.389 266.08ZM417.053 269.104V257.6H418.141V260.128L418.029 261.808L418.189 263.504V269.104H417.053ZM421.309 265.072C421.906 265.072 422.439 264.939 422.909 264.672C423.378 264.395 423.751 264.011 424.029 263.52C424.306 263.019 424.445 262.443 424.445 261.792C424.445 261.141 424.306 260.571 424.029 260.08C423.751 259.589 423.378 259.205 422.909 258.928C422.439 258.651 421.906 258.512 421.309 258.512C420.711 258.512 420.173 258.651 419.693 258.928C419.223 259.205 418.85 259.589 418.573 260.08C418.306 260.571 418.173 261.141 418.173 261.792C418.173 262.443 418.306 263.019 418.573 263.52C418.85 264.011 419.223 264.395 419.693 264.672C420.173 264.939 420.711 265.072 421.309 265.072ZM432.233 266.08C431.507 266.08 430.851 265.915 430.265 265.584C429.678 265.243 429.209 264.757 428.857 264.128C428.515 263.488 428.345 262.709 428.345 261.792C428.345 260.875 428.515 260.101 428.857 259.472C429.198 258.832 429.662 258.347 430.249 258.016C430.835 257.685 431.497 257.52 432.233 257.52C433.033 257.52 433.747 257.701 434.377 258.064C435.017 258.416 435.518 258.917 435.881 259.568C436.243 260.208 436.425 260.949 436.425 261.792C436.425 262.645 436.243 263.392 435.881 264.032C435.518 264.672 435.017 265.173 434.377 265.536C433.747 265.899 433.033 266.08 432.233 266.08ZM427.897 269.104V257.6H428.985V260.128L428.873 261.808L429.033 263.504V269.104H427.897ZM432.153 265.072C432.75 265.072 433.283 264.939 433.753 264.672C434.222 264.395 434.595 264.011 434.873 263.52C435.15 263.019 435.289 262.443 435.289 261.792C435.289 261.141 435.15 260.571 434.873 260.08C434.595 259.589 434.222 259.205 433.753 258.928C433.283 258.651 432.75 258.512 432.153 258.512C431.555 258.512 431.017 258.651 430.536 258.928C430.067 259.205 429.694 259.589 429.417 260.08C429.15 260.571 429.017 261.141 429.017 261.792C429.017 262.443 429.15 263.019 429.417 263.52C429.694 264.011 430.067 264.395 430.536 264.672C431.017 264.939 431.555 265.072 432.153 265.072ZM442.308 266.08C441.434 266.08 440.666 265.899 440.004 265.536C439.343 265.163 438.826 264.656 438.452 264.016C438.079 263.365 437.892 262.624 437.892 261.792C437.892 260.96 438.068 260.224 438.42 259.584C438.783 258.944 439.274 258.443 439.892 258.08C440.522 257.707 441.226 257.52 442.004 257.52C442.794 257.52 443.492 257.701 444.1 258.064C444.719 258.416 445.204 258.917 445.556 259.568C445.908 260.208 446.084 260.949 446.084 261.792C446.084 261.845 446.079 261.904 446.068 261.968C446.068 262.021 446.068 262.08 446.068 262.144H438.756V261.296H445.46L445.012 261.632C445.012 261.024 444.879 260.485 444.612 260.016C444.356 259.536 444.004 259.163 443.556 258.896C443.108 258.629 442.591 258.496 442.004 258.496C441.428 258.496 440.911 258.629 440.452 258.896C439.994 259.163 439.636 259.536 439.38 260.016C439.124 260.496 438.996 261.045 438.996 261.664V261.84C438.996 262.48 439.135 263.045 439.412 263.536C439.7 264.016 440.095 264.395 440.596 264.672C441.108 264.939 441.69 265.072 442.34 265.072C442.852 265.072 443.327 264.981 443.764 264.8C444.212 264.619 444.596 264.341 444.916 263.968L445.556 264.704C445.183 265.152 444.714 265.493 444.148 265.728C443.594 265.963 442.98 266.08 442.308 266.08ZM448.397 266V254.128H449.533V266H448.397ZM462.145 266V264.144L462.097 263.84V260.736C462.097 260.021 461.894 259.472 461.489 259.088C461.094 258.704 460.502 258.512 459.713 258.512C459.169 258.512 458.652 258.603 458.161 258.784C457.67 258.965 457.254 259.205 456.913 259.504L456.401 258.656C456.828 258.293 457.34 258.016 457.937 257.824C458.534 257.621 459.164 257.52 459.825 257.52C460.913 257.52 461.75 257.792 462.337 258.336C462.934 258.869 463.233 259.685 463.233 260.784V266H462.145ZM459.249 266.08C458.62 266.08 458.07 265.979 457.601 265.776C457.142 265.563 456.79 265.275 456.545 264.912C456.3 264.539 456.177 264.112 456.177 263.632C456.177 263.195 456.278 262.8 456.481 262.448C456.694 262.085 457.036 261.797 457.505 261.584C457.985 261.36 458.625 261.248 459.425 261.248H462.321V262.096H459.457C458.646 262.096 458.081 262.24 457.761 262.528C457.452 262.816 457.297 263.173 457.297 263.6C457.297 264.08 457.484 264.464 457.857 264.752C458.23 265.04 458.753 265.184 459.425 265.184C460.065 265.184 460.614 265.04 461.073 264.752C461.542 264.453 461.884 264.027 462.097 263.472L462.353 264.256C462.14 264.811 461.766 265.253 461.233 265.584C460.71 265.915 460.049 266.08 459.249 266.08ZM469.79 266.08C469.076 266.08 468.452 265.947 467.918 265.68C467.385 265.413 466.969 265.013 466.67 264.48C466.382 263.947 466.238 263.28 466.238 262.48V257.6H467.374V262.352C467.374 263.248 467.593 263.925 468.03 264.384C468.478 264.832 469.102 265.056 469.902 265.056C470.489 265.056 470.996 264.939 471.422 264.704C471.86 264.459 472.19 264.107 472.414 263.648C472.649 263.189 472.766 262.64 472.766 262V257.6H473.902V266H472.814V263.696L472.99 264.112C472.724 264.731 472.308 265.216 471.742 265.568C471.188 265.909 470.537 266.08 469.79 266.08ZM480.412 266.08C479.612 266.08 478.892 265.899 478.252 265.536C477.623 265.173 477.127 264.672 476.764 264.032C476.402 263.381 476.22 262.635 476.22 261.792C476.22 260.939 476.402 260.192 476.764 259.552C477.127 258.912 477.623 258.416 478.252 258.064C478.892 257.701 479.612 257.52 480.412 257.52C481.148 257.52 481.804 257.685 482.38 258.016C482.967 258.347 483.431 258.832 483.772 259.472C484.124 260.101 484.3 260.875 484.3 261.792C484.3 262.699 484.13 263.472 483.788 264.112C483.447 264.752 482.983 265.243 482.396 265.584C481.82 265.915 481.159 266.08 480.412 266.08ZM480.492 265.072C481.09 265.072 481.623 264.939 482.092 264.672C482.572 264.395 482.946 264.011 483.212 263.52C483.49 263.019 483.628 262.443 483.628 261.792C483.628 261.131 483.49 260.555 483.212 260.064C482.946 259.573 482.572 259.195 482.092 258.928C481.623 258.651 481.09 258.512 480.492 258.512C479.906 258.512 479.378 258.651 478.908 258.928C478.439 259.195 478.066 259.573 477.788 260.064C477.511 260.555 477.372 261.131 477.372 261.792C477.372 262.443 477.511 263.019 477.788 263.52C478.066 264.011 478.439 264.395 478.908 264.672C479.378 264.939 479.906 265.072 480.492 265.072ZM483.66 266V263.472L483.772 261.776L483.612 260.08V254.128H484.748V266H483.66ZM487.912 266V257.6H489.048V266H487.912ZM488.488 255.744C488.253 255.744 488.056 255.664 487.896 255.504C487.736 255.344 487.656 255.152 487.656 254.928C487.656 254.704 487.736 254.517 487.896 254.368C488.056 254.208 488.253 254.128 488.488 254.128C488.723 254.128 488.92 254.203 489.08 254.352C489.24 254.501 489.32 254.688 489.32 254.912C489.32 255.147 489.24 255.344 489.08 255.504C488.931 255.664 488.733 255.744 488.488 255.744ZM495.633 266.08C494.822 266.08 494.092 265.899 493.441 265.536C492.801 265.163 492.294 264.656 491.921 264.016C491.548 263.365 491.361 262.624 491.361 261.792C491.361 260.949 491.548 260.208 491.921 259.568C492.294 258.928 492.801 258.427 493.441 258.064C494.081 257.701 494.812 257.52 495.633 257.52C496.465 257.52 497.201 257.701 497.841 258.064C498.492 258.427 498.998 258.928 499.361 259.568C499.734 260.208 499.921 260.949 499.921 261.792C499.921 262.624 499.734 263.365 499.361 264.016C498.998 264.656 498.492 265.163 497.841 265.536C497.19 265.899 496.454 266.08 495.633 266.08ZM495.633 265.072C496.241 265.072 496.78 264.939 497.249 264.672C497.718 264.395 498.086 264.011 498.353 263.52C498.63 263.019 498.769 262.443 498.769 261.792C498.769 261.131 498.63 260.555 498.353 260.064C498.086 259.573 497.718 259.195 497.249 258.928C496.78 258.651 496.246 258.512 495.649 258.512C495.052 258.512 494.518 258.651 494.049 258.928C493.58 259.195 493.206 259.573 492.929 260.064C492.652 260.555 492.513 261.131 492.513 261.792C492.513 262.443 492.652 263.019 492.929 263.52C493.206 264.011 493.58 264.395 494.049 264.672C494.518 264.939 495.046 265.072 495.633 265.072Z" fill="black"/>
<path d="M405.824 318V306.8H406.8L411.92 315.536H411.408L416.48 306.8H417.456V318H416.32V308.576H416.592L411.92 316.576H411.36L406.656 308.576H406.96V318H405.824ZM424.433 318.08C423.559 318.08 422.791 317.899 422.129 317.536C421.468 317.163 420.951 316.656 420.577 316.016C420.204 315.365 420.017 314.624 420.017 313.792C420.017 312.96 420.193 312.224 420.545 311.584C420.908 310.944 421.399 310.443 422.017 310.08C422.647 309.707 423.351 309.52 424.129 309.52C424.919 309.52 425.617 309.701 426.225 310.064C426.844 310.416 427.329 310.917 427.681 311.568C428.033 312.208 428.209 312.949 428.209 313.792C428.209 313.845 428.204 313.904 428.193 313.968C428.193 314.021 428.193 314.08 428.193 314.144H420.881V313.296H427.585L427.137 313.632C427.137 313.024 427.004 312.485 426.737 312.016C426.481 311.536 426.129 311.163 425.681 310.896C425.233 310.629 424.716 310.496 424.129 310.496C423.553 310.496 423.036 310.629 422.577 310.896C422.119 311.163 421.761 311.536 421.505 312.016C421.249 312.496 421.121 313.045 421.121 313.664V313.84C421.121 314.48 421.26 315.045 421.537 315.536C421.825 316.016 422.22 316.395 422.721 316.672C423.233 316.939 423.815 317.072 424.465 317.072C424.977 317.072 425.452 316.981 425.889 316.8C426.337 316.619 426.721 316.341 427.041 315.968L427.681 316.704C427.308 317.152 426.839 317.493 426.273 317.728C425.719 317.963 425.105 318.08 424.433 318.08ZM432.778 318.08C432.084 318.08 431.428 317.984 430.81 317.792C430.191 317.589 429.706 317.339 429.354 317.04L429.866 316.144C430.207 316.4 430.644 316.624 431.178 316.816C431.711 316.997 432.271 317.088 432.858 317.088C433.658 317.088 434.234 316.965 434.586 316.72C434.938 316.464 435.114 316.128 435.114 315.712C435.114 315.403 435.012 315.163 434.81 314.992C434.618 314.811 434.362 314.677 434.042 314.592C433.722 314.496 433.364 314.416 432.97 314.352C432.575 314.288 432.18 314.213 431.786 314.128C431.402 314.043 431.05 313.92 430.73 313.76C430.41 313.589 430.148 313.36 429.946 313.072C429.754 312.784 429.658 312.4 429.658 311.92C429.658 311.461 429.786 311.051 430.042 310.688C430.298 310.325 430.671 310.043 431.162 309.84C431.663 309.627 432.271 309.52 432.986 309.52C433.53 309.52 434.074 309.595 434.618 309.744C435.162 309.883 435.61 310.069 435.962 310.304L435.466 311.216C435.092 310.96 434.692 310.779 434.266 310.672C433.839 310.555 433.412 310.496 432.986 310.496C432.228 310.496 431.668 310.629 431.306 310.896C430.954 311.152 430.778 311.483 430.778 311.888C430.778 312.208 430.874 312.459 431.066 312.64C431.268 312.821 431.53 312.965 431.85 313.072C432.18 313.168 432.538 313.248 432.922 313.312C433.316 313.376 433.706 313.456 434.09 313.552C434.484 313.637 434.842 313.76 435.162 313.92C435.492 314.069 435.754 314.288 435.946 314.576C436.148 314.853 436.25 315.221 436.25 315.68C436.25 316.171 436.111 316.597 435.834 316.96C435.567 317.312 435.172 317.589 434.65 317.792C434.138 317.984 433.514 318.08 432.778 318.08ZM440.59 318.08C439.897 318.08 439.241 317.984 438.622 317.792C438.003 317.589 437.518 317.339 437.166 317.04L437.678 316.144C438.019 316.4 438.457 316.624 438.99 316.816C439.523 316.997 440.083 317.088 440.67 317.088C441.47 317.088 442.046 316.965 442.398 316.72C442.75 316.464 442.926 316.128 442.926 315.712C442.926 315.403 442.825 315.163 442.622 314.992C442.43 314.811 442.174 314.677 441.854 314.592C441.534 314.496 441.177 314.416 440.782 314.352C440.387 314.288 439.993 314.213 439.598 314.128C439.214 314.043 438.862 313.92 438.542 313.76C438.222 313.589 437.961 313.36 437.758 313.072C437.566 312.784 437.47 312.4 437.47 311.92C437.47 311.461 437.598 311.051 437.854 310.688C438.11 310.325 438.483 310.043 438.974 309.84C439.475 309.627 440.083 309.52 440.798 309.52C441.342 309.52 441.886 309.595 442.43 309.744C442.974 309.883 443.422 310.069 443.774 310.304L443.278 311.216C442.905 310.96 442.505 310.779 442.078 310.672C441.651 310.555 441.225 310.496 440.798 310.496C440.041 310.496 439.481 310.629 439.118 310.896C438.766 311.152 438.59 311.483 438.59 311.888C438.59 312.208 438.686 312.459 438.878 312.64C439.081 312.821 439.342 312.965 439.662 313.072C439.993 313.168 440.35 313.248 440.734 313.312C441.129 313.376 441.518 313.456 441.902 313.552C442.297 313.637 442.654 313.76 442.974 313.92C443.305 314.069 443.566 314.288 443.758 314.576C443.961 314.853 444.062 315.221 444.062 315.68C444.062 316.171 443.923 316.597 443.646 316.96C443.379 317.312 442.985 317.589 442.462 317.792C441.95 317.984 441.326 318.08 440.59 318.08ZM451.411 318V316.144L451.363 315.84V312.736C451.363 312.021 451.16 311.472 450.755 311.088C450.36 310.704 449.768 310.512 448.979 310.512C448.435 310.512 447.917 310.603 447.427 310.784C446.936 310.965 446.52 311.205 446.179 311.504L445.667 310.656C446.093 310.293 446.605 310.016 447.203 309.824C447.8 309.621 448.429 309.52 449.091 309.52C450.179 309.52 451.016 309.792 451.603 310.336C452.2 310.869 452.499 311.685 452.499 312.784V318H451.411ZM448.515 318.08C447.885 318.08 447.336 317.979 446.867 317.776C446.408 317.563 446.056 317.275 445.811 316.912C445.565 316.539 445.443 316.112 445.443 315.632C445.443 315.195 445.544 314.8 445.747 314.448C445.96 314.085 446.301 313.797 446.771 313.584C447.251 313.36 447.891 313.248 448.691 313.248H451.587V314.096H448.723C447.912 314.096 447.347 314.24 447.027 314.528C446.717 314.816 446.562 315.173 446.562 315.6C446.562 316.08 446.749 316.464 447.123 316.752C447.496 317.04 448.019 317.184 448.691 317.184C449.331 317.184 449.88 317.04 450.339 316.752C450.808 316.453 451.149 316.027 451.363 315.472L451.619 316.256C451.405 316.811 451.032 317.253 450.499 317.584C449.976 317.915 449.315 318.08 448.515 318.08ZM459.168 321.184C458.4 321.184 457.664 321.072 456.96 320.848C456.256 320.624 455.685 320.304 455.248 319.888L455.824 319.024C456.219 319.376 456.704 319.653 457.28 319.856C457.867 320.069 458.485 320.176 459.136 320.176C460.203 320.176 460.987 319.925 461.488 319.424C461.989 318.933 462.24 318.165 462.24 317.12V315.024L462.4 313.584L462.288 312.144V309.6H463.376V316.976C463.376 318.427 463.019 319.488 462.304 320.16C461.6 320.843 460.555 321.184 459.168 321.184ZM458.96 317.68C458.16 317.68 457.44 317.509 456.8 317.168C456.16 316.816 455.653 316.331 455.28 315.712C454.917 315.093 454.736 314.384 454.736 313.584C454.736 312.784 454.917 312.08 455.28 311.472C455.653 310.853 456.16 310.373 456.8 310.032C457.44 309.691 458.16 309.52 458.96 309.52C459.707 309.52 460.379 309.675 460.976 309.984C461.573 310.293 462.048 310.752 462.4 311.36C462.752 311.968 462.928 312.709 462.928 313.584C462.928 314.459 462.752 315.2 462.4 315.808C462.048 316.416 461.573 316.88 460.976 317.2C460.379 317.52 459.707 317.68 458.96 317.68ZM459.072 316.672C459.691 316.672 460.24 316.544 460.72 316.288C461.2 316.021 461.579 315.659 461.856 315.2C462.133 314.731 462.272 314.192 462.272 313.584C462.272 312.976 462.133 312.443 461.856 311.984C461.579 311.525 461.2 311.168 460.72 310.912C460.24 310.645 459.691 310.512 459.072 310.512C458.464 310.512 457.915 310.645 457.424 310.912C456.944 311.168 456.565 311.525 456.288 311.984C456.021 312.443 455.888 312.976 455.888 313.584C455.888 314.192 456.021 314.731 456.288 315.2C456.565 315.659 456.944 316.021 457.424 316.288C457.915 316.544 458.464 316.672 459.072 316.672ZM470.105 318.08C469.23 318.08 468.462 317.899 467.801 317.536C467.14 317.163 466.622 316.656 466.249 316.016C465.876 315.365 465.689 314.624 465.689 313.792C465.689 312.96 465.865 312.224 466.217 311.584C466.58 310.944 467.07 310.443 467.689 310.08C468.318 309.707 469.022 309.52 469.801 309.52C470.59 309.52 471.289 309.701 471.897 310.064C472.516 310.416 473.001 310.917 473.353 311.568C473.705 312.208 473.881 312.949 473.881 313.792C473.881 313.845 473.876 313.904 473.865 313.968C473.865 314.021 473.865 314.08 473.865 314.144H466.553V313.296H473.257L472.809 313.632C472.809 313.024 472.676 312.485 472.409 312.016C472.153 311.536 471.801 311.163 471.353 310.896C470.905 310.629 470.388 310.496 469.801 310.496C469.225 310.496 468.708 310.629 468.249 310.896C467.79 311.163 467.433 311.536 467.177 312.016C466.921 312.496 466.793 313.045 466.793 313.664V313.84C466.793 314.48 466.932 315.045 467.209 315.536C467.497 316.016 467.892 316.395 468.393 316.672C468.905 316.939 469.486 317.072 470.137 317.072C470.649 317.072 471.124 316.981 471.561 316.8C472.009 316.619 472.393 316.341 472.713 315.968L473.353 316.704C472.98 317.152 472.51 317.493 471.945 317.728C471.39 317.963 470.777 318.08 470.105 318.08ZM476.193 318V309.6H477.281V311.888L477.169 311.488C477.404 310.848 477.799 310.363 478.353 310.032C478.908 309.691 479.596 309.52 480.417 309.52V310.624C480.375 310.624 480.332 310.624 480.289 310.624C480.247 310.613 480.204 310.608 480.161 310.608C479.276 310.608 478.583 310.88 478.081 311.424C477.58 311.957 477.329 312.72 477.329 313.712V318H476.193ZM482.49 318V309.6H483.626V318H482.49ZM483.066 307.744C482.832 307.744 482.634 307.664 482.474 307.504C482.314 307.344 482.234 307.152 482.234 306.928C482.234 306.704 482.314 306.517 482.474 306.368C482.634 306.208 482.832 306.128 483.066 306.128C483.301 306.128 483.498 306.203 483.658 306.352C483.818 306.501 483.898 306.688 483.898 306.912C483.898 307.147 483.818 307.344 483.658 307.504C483.509 307.664 483.312 307.744 483.066 307.744ZM490.355 318.08C489.48 318.08 488.712 317.899 488.051 317.536C487.39 317.163 486.872 316.656 486.499 316.016C486.126 315.365 485.939 314.624 485.939 313.792C485.939 312.96 486.115 312.224 486.467 311.584C486.83 310.944 487.32 310.443 487.939 310.08C488.568 309.707 489.272 309.52 490.051 309.52C490.84 309.52 491.539 309.701 492.147 310.064C492.766 310.416 493.251 310.917 493.603 311.568C493.955 312.208 494.131 312.949 494.131 313.792C494.131 313.845 494.126 313.904 494.115 313.968C494.115 314.021 494.115 314.08 494.115 314.144H486.803V313.296H493.507L493.059 313.632C493.059 313.024 492.926 312.485 492.659 312.016C492.403 311.536 492.051 311.163 491.603 310.896C491.155 310.629 490.638 310.496 490.051 310.496C489.475 310.496 488.958 310.629 488.499 310.896C488.04 311.163 487.683 311.536 487.427 312.016C487.171 312.496 487.043 313.045 487.043 313.664V313.84C487.043 314.48 487.182 315.045 487.459 315.536C487.747 316.016 488.142 316.395 488.643 316.672C489.155 316.939 489.736 317.072 490.387 317.072C490.899 317.072 491.374 316.981 491.811 316.8C492.259 316.619 492.643 316.341 492.963 315.968L493.603 316.704C493.23 317.152 492.76 317.493 492.195 317.728C491.64 317.963 491.027 318.08 490.355 318.08Z" fill="black"/>
<path d="M370.739 150L363.793 133.9H367.818L373.89 148.16H371.521L377.685 133.9H381.388L374.419 150H370.739ZM387.446 150.184C386.128 150.184 384.955 149.908 383.927 149.356C382.915 148.804 382.11 148.053 381.512 147.102C380.93 146.136 380.638 145.04 380.638 143.813C380.638 142.571 380.93 141.475 381.512 140.524C382.11 139.558 382.915 138.807 383.927 138.27C384.955 137.718 386.128 137.442 387.446 137.442C388.75 137.442 389.915 137.718 390.942 138.27C391.97 138.807 392.775 139.55 393.357 140.501C393.94 141.452 394.231 142.556 394.231 143.813C394.231 145.04 393.94 146.136 393.357 147.102C392.775 148.053 391.97 148.804 390.942 149.356C389.915 149.908 388.75 150.184 387.446 150.184ZM387.446 147.24C388.044 147.24 388.581 147.102 389.056 146.826C389.532 146.55 389.907 146.159 390.183 145.653C390.459 145.132 390.597 144.518 390.597 143.813C390.597 143.092 390.459 142.479 390.183 141.973C389.907 141.467 389.532 141.076 389.056 140.8C388.581 140.524 388.044 140.386 387.446 140.386C386.848 140.386 386.312 140.524 385.836 140.8C385.361 141.076 384.978 141.467 384.686 141.973C384.41 142.479 384.272 143.092 384.272 143.813C384.272 144.518 384.41 145.132 384.686 145.653C384.978 146.159 385.361 146.55 385.836 146.826C386.312 147.102 386.848 147.24 387.446 147.24ZM400.793 150.184C399.735 150.184 398.715 150.061 397.734 149.816C396.768 149.555 396.001 149.233 395.434 148.85L396.63 146.274C397.197 146.627 397.864 146.918 398.631 147.148C399.413 147.363 400.179 147.47 400.931 147.47C401.759 147.47 402.341 147.37 402.679 147.171C403.031 146.972 403.208 146.696 403.208 146.343C403.208 146.052 403.07 145.837 402.794 145.699C402.533 145.546 402.18 145.431 401.736 145.354C401.291 145.277 400.8 145.201 400.264 145.124C399.742 145.047 399.213 144.948 398.677 144.825C398.14 144.687 397.649 144.488 397.205 144.227C396.76 143.966 396.4 143.614 396.124 143.169C395.863 142.724 395.733 142.149 395.733 141.444C395.733 140.662 395.955 139.972 396.4 139.374C396.86 138.776 397.519 138.308 398.378 137.971C399.236 137.618 400.264 137.442 401.46 137.442C402.303 137.442 403.162 137.534 404.036 137.718C404.91 137.902 405.638 138.17 406.221 138.523L405.025 141.076C404.427 140.723 403.821 140.486 403.208 140.363C402.61 140.225 402.027 140.156 401.46 140.156C400.662 140.156 400.08 140.263 399.712 140.478C399.344 140.693 399.16 140.969 399.16 141.306C399.16 141.613 399.29 141.843 399.551 141.996C399.827 142.149 400.187 142.272 400.632 142.364C401.076 142.456 401.559 142.54 402.081 142.617C402.617 142.678 403.154 142.778 403.691 142.916C404.227 143.054 404.71 143.253 405.14 143.514C405.584 143.759 405.945 144.104 406.221 144.549C406.497 144.978 406.635 145.546 406.635 146.251C406.635 147.018 406.405 147.7 405.945 148.298C405.485 148.881 404.818 149.341 403.944 149.678C403.085 150.015 402.035 150.184 400.793 150.184ZM415.362 150V137.626H418.789V141.122L418.306 140.11C418.674 139.236 419.264 138.577 420.077 138.132C420.89 137.672 421.879 137.442 423.044 137.442V140.754C422.891 140.739 422.753 140.731 422.63 140.731C422.507 140.716 422.377 140.708 422.239 140.708C421.258 140.708 420.46 140.992 419.847 141.559C419.249 142.111 418.95 142.977 418.95 144.158V150H415.362ZM431.229 150.184C429.818 150.184 428.576 149.908 427.503 149.356C426.445 148.804 425.624 148.053 425.042 147.102C424.459 146.136 424.168 145.04 424.168 143.813C424.168 142.571 424.451 141.475 425.019 140.524C425.601 139.558 426.391 138.807 427.388 138.27C428.384 137.718 429.511 137.442 430.769 137.442C431.98 137.442 433.069 137.703 434.035 138.224C435.016 138.73 435.79 139.466 436.358 140.432C436.925 141.383 437.209 142.525 437.209 143.859C437.209 143.997 437.201 144.158 437.186 144.342C437.17 144.511 437.155 144.672 437.14 144.825H427.089V142.732H435.254L433.874 143.353C433.874 142.709 433.743 142.149 433.483 141.674C433.222 141.199 432.862 140.831 432.402 140.57C431.942 140.294 431.405 140.156 430.792 140.156C430.178 140.156 429.634 140.294 429.159 140.57C428.699 140.831 428.338 141.206 428.078 141.697C427.817 142.172 427.687 142.74 427.687 143.399V143.951C427.687 144.626 427.832 145.224 428.124 145.745C428.43 146.251 428.852 146.642 429.389 146.918C429.941 147.179 430.585 147.309 431.321 147.309C431.98 147.309 432.555 147.209 433.046 147.01C433.552 146.811 434.012 146.512 434.426 146.113L436.335 148.183C435.767 148.827 435.054 149.325 434.196 149.678C433.337 150.015 432.348 150.184 431.229 150.184ZM428.607 136.039L431.712 132.727H435.576L431.413 136.039H428.607ZM444.818 150.184C443.791 150.184 442.871 149.985 442.058 149.586C441.261 149.187 440.64 148.582 440.195 147.769C439.751 146.941 439.528 145.891 439.528 144.618V137.626H443.116V144.089C443.116 145.116 443.331 145.875 443.76 146.366C444.205 146.841 444.826 147.079 445.623 147.079C446.175 147.079 446.666 146.964 447.095 146.734C447.525 146.489 447.862 146.121 448.107 145.63C448.353 145.124 448.475 144.495 448.475 143.744V137.626H452.063V150H448.659V146.596L449.28 147.585C448.866 148.444 448.253 149.095 447.44 149.54C446.643 149.969 445.769 150.184 444.818 150.184ZM462.908 137.442C463.89 137.442 464.764 137.641 465.53 138.04C466.312 138.423 466.926 139.021 467.37 139.834C467.815 140.631 468.037 141.659 468.037 142.916V150H464.449V143.468C464.449 142.471 464.227 141.735 463.782 141.26C463.353 140.785 462.74 140.547 461.942 140.547C461.375 140.547 460.861 140.67 460.401 140.915C459.957 141.145 459.604 141.505 459.343 141.996C459.098 142.487 458.975 143.115 458.975 143.882V150H455.387V137.626H458.814V141.053L458.17 140.018C458.615 139.19 459.251 138.554 460.079 138.109C460.907 137.664 461.85 137.442 462.908 137.442ZM471.29 150V137.626H474.878V150H471.29ZM473.084 135.901C472.424 135.901 471.888 135.709 471.474 135.326C471.06 134.943 470.853 134.467 470.853 133.9C470.853 133.333 471.06 132.857 471.474 132.474C471.888 132.091 472.424 131.899 473.084 131.899C473.743 131.899 474.28 132.083 474.694 132.451C475.108 132.804 475.315 133.264 475.315 133.831C475.315 134.429 475.108 134.927 474.694 135.326C474.295 135.709 473.758 135.901 473.084 135.901ZM484.096 150.184C482.777 150.184 481.604 149.908 480.577 149.356C479.565 148.804 478.76 148.053 478.162 147.102C477.579 146.136 477.288 145.04 477.288 143.813C477.288 142.571 477.579 141.475 478.162 140.524C478.76 139.558 479.565 138.807 480.577 138.27C481.604 137.718 482.777 137.442 484.096 137.442C485.399 137.442 486.564 137.718 487.592 138.27C488.619 138.807 489.424 139.55 490.007 140.501C490.589 141.452 490.881 142.556 490.881 143.813C490.881 145.04 490.589 146.136 490.007 147.102C489.424 148.053 488.619 148.804 487.592 149.356C486.564 149.908 485.399 150.184 484.096 150.184ZM484.096 147.24C484.694 147.24 485.23 147.102 485.706 146.826C486.181 146.55 486.557 146.159 486.833 145.653C487.109 145.132 487.247 144.518 487.247 143.813C487.247 143.092 487.109 142.479 486.833 141.973C486.557 141.467 486.181 141.076 485.706 140.8C485.23 140.524 484.694 140.386 484.096 140.386C483.498 140.386 482.961 140.524 482.486 140.8C482.01 141.076 481.627 141.467 481.336 141.973C481.06 142.479 480.922 143.092 480.922 143.813C480.922 144.518 481.06 145.132 481.336 145.653C481.627 146.159 482.01 146.55 482.486 146.826C482.961 147.102 483.498 147.24 484.096 147.24ZM500.8 137.442C501.781 137.442 502.655 137.641 503.422 138.04C504.204 138.423 504.817 139.021 505.262 139.834C505.707 140.631 505.929 141.659 505.929 142.916V150H502.341V143.468C502.341 142.471 502.119 141.735 501.674 141.26C501.245 140.785 500.631 140.547 499.834 140.547C499.267 140.547 498.753 140.67 498.293 140.915C497.848 141.145 497.496 141.505 497.235 141.996C496.99 142.487 496.867 143.115 496.867 143.882V150H493.279V137.626H496.706V141.053L496.062 140.018C496.507 139.19 497.143 138.554 497.971 138.109C498.799 137.664 499.742 137.442 500.8 137.442ZM513.344 150.184C512.286 150.184 511.267 150.061 510.285 149.816C509.319 149.555 508.553 149.233 507.985 148.85L509.181 146.274C509.749 146.627 510.416 146.918 511.182 147.148C511.964 147.363 512.731 147.47 513.482 147.47C514.31 147.47 514.893 147.37 515.23 147.171C515.583 146.972 515.759 146.696 515.759 146.343C515.759 146.052 515.621 145.837 515.345 145.699C515.085 145.546 514.732 145.431 514.287 145.354C513.843 145.277 513.352 145.201 512.815 145.124C512.294 145.047 511.765 144.948 511.228 144.825C510.692 144.687 510.201 144.488 509.756 144.227C509.312 143.966 508.951 143.614 508.675 143.169C508.415 142.724 508.284 142.149 508.284 141.444C508.284 140.662 508.507 139.972 508.951 139.374C509.411 138.776 510.071 138.308 510.929 137.971C511.788 137.618 512.815 137.442 514.011 137.442C514.855 137.442 515.713 137.534 516.587 137.718C517.461 137.902 518.19 138.17 518.772 138.523L517.576 141.076C516.978 140.723 516.373 140.486 515.759 140.363C515.161 140.225 514.579 140.156 514.011 140.156C513.214 140.156 512.631 140.263 512.263 140.478C511.895 140.693 511.711 140.969 511.711 141.306C511.711 141.613 511.842 141.843 512.102 141.996C512.378 142.149 512.739 142.272 513.183 142.364C513.628 142.456 514.111 142.54 514.632 142.617C515.169 142.678 515.706 142.778 516.242 142.916C516.779 143.054 517.262 143.253 517.691 143.514C518.136 143.759 518.496 144.104 518.772 144.549C519.048 144.978 519.186 145.546 519.186 146.251C519.186 147.018 518.956 147.7 518.496 148.298C518.036 148.881 517.369 149.341 516.495 149.678C515.637 150.015 514.586 150.184 513.344 150.184Z" fill="black"/>
<g filter="url(#filter1_d_1_209)">
<rect x="80" y="348" width="390" height="80" rx="16" fill="white"/>
</g>
<rect opacity="0.7" x="90" y="358" width="60" height="60" rx="16" fill="#4F6CA4"/>
<path d="M128.833 379.167H112.167C111.016 379.167 110.083 380.099 110.083 381.25V393.75C110.083 394.901 111.016 395.833 112.167 395.833H128.833C129.984 395.833 130.917 394.901 130.917 393.75V381.25C130.917 380.099 129.984 379.167 128.833 379.167Z" stroke="white" stroke-width="2" stroke-linecap="round" stroke-linejoin="round"/>
<path d="M130.917 382.292L121.573 388.229C121.251 388.431 120.88 388.537 120.5 388.537C120.121 388.537 119.749 388.431 119.427 388.229L110.083 382.292" stroke="white" stroke-width="2" stroke-linecap="round" stroke-linejoin="round"/>
<path d="M170.205 400V385.3H171.927L178.521 396.409H177.597L184.107 385.3H185.829L185.85 400H183.834L183.813 388.471H184.296L178.5 398.215H177.534L171.696 388.471H172.221V400H170.205ZM194.924 400.126C193.734 400.126 192.684 399.881 191.774 399.391C190.878 398.901 190.178 398.229 189.674 397.375C189.184 396.521 188.939 395.541 188.939 394.435C188.939 393.329 189.177 392.349 189.653 391.495C190.143 390.641 190.808 389.976 191.648 389.5C192.502 389.01 193.461 388.765 194.525 388.765C195.603 388.765 196.555 389.003 197.381 389.479C198.207 389.955 198.851 390.627 199.313 391.495C199.789 392.349 200.027 393.35 200.027 394.498C200.027 394.582 200.02 394.68 200.006 394.792C200.006 394.904 199.999 395.009 199.985 395.107H190.514V393.658H198.935L198.116 394.162C198.13 393.448 197.983 392.811 197.675 392.251C197.367 391.691 196.94 391.257 196.394 390.949C195.862 390.627 195.239 390.466 194.525 390.466C193.825 390.466 193.202 390.627 192.656 390.949C192.11 391.257 191.683 391.698 191.375 392.272C191.067 392.832 190.913 393.476 190.913 394.204V394.54C190.913 395.282 191.081 395.947 191.417 396.535C191.767 397.109 192.25 397.557 192.866 397.879C193.482 398.201 194.189 398.362 194.987 398.362C195.645 398.362 196.24 398.25 196.772 398.026C197.318 397.802 197.794 397.466 198.2 397.018L199.313 398.32C198.809 398.908 198.179 399.356 197.423 399.664C196.681 399.972 195.848 400.126 194.924 400.126ZM206.018 400.126C205.094 400.126 204.212 400 203.372 399.748C202.546 399.496 201.895 399.188 201.419 398.824L202.259 397.228C202.735 397.55 203.323 397.823 204.023 398.047C204.723 398.271 205.437 398.383 206.165 398.383C207.103 398.383 207.775 398.25 208.181 397.984C208.601 397.718 208.811 397.347 208.811 396.871C208.811 396.521 208.685 396.248 208.433 396.052C208.181 395.856 207.845 395.709 207.425 395.611C207.019 395.513 206.564 395.429 206.06 395.359C205.556 395.275 205.052 395.177 204.548 395.065C204.044 394.939 203.582 394.771 203.162 394.561C202.742 394.337 202.406 394.036 202.154 393.658C201.902 393.266 201.776 392.748 201.776 392.104C201.776 391.432 201.965 390.844 202.343 390.34C202.721 389.836 203.253 389.451 203.939 389.185C204.639 388.905 205.465 388.765 206.417 388.765C207.145 388.765 207.88 388.856 208.622 389.038C209.378 389.206 209.994 389.451 210.47 389.773L209.609 391.369C209.105 391.033 208.58 390.802 208.034 390.676C207.488 390.55 206.942 390.487 206.396 390.487C205.514 390.487 204.856 390.634 204.422 390.928C203.988 391.208 203.771 391.572 203.771 392.02C203.771 392.398 203.897 392.692 204.149 392.902C204.415 393.098 204.751 393.252 205.157 393.364C205.577 393.476 206.039 393.574 206.543 393.658C207.047 393.728 207.551 393.826 208.055 393.952C208.559 394.064 209.014 394.225 209.42 394.435C209.84 394.645 210.176 394.939 210.428 395.317C210.694 395.695 210.827 396.199 210.827 396.829C210.827 397.501 210.631 398.082 210.239 398.572C209.847 399.062 209.294 399.447 208.58 399.727C207.866 399.993 207.012 400.126 206.018 400.126ZM216.539 400.126C215.615 400.126 214.733 400 213.893 399.748C213.067 399.496 212.416 399.188 211.94 398.824L212.78 397.228C213.256 397.55 213.844 397.823 214.544 398.047C215.244 398.271 215.958 398.383 216.686 398.383C217.624 398.383 218.296 398.25 218.702 397.984C219.122 397.718 219.332 397.347 219.332 396.871C219.332 396.521 219.206 396.248 218.954 396.052C218.702 395.856 218.366 395.709 217.946 395.611C217.54 395.513 217.085 395.429 216.581 395.359C216.077 395.275 215.573 395.177 215.069 395.065C214.565 394.939 214.103 394.771 213.683 394.561C213.263 394.337 212.927 394.036 212.675 393.658C212.423 393.266 212.297 392.748 212.297 392.104C212.297 391.432 212.486 390.844 212.864 390.34C213.242 389.836 213.774 389.451 214.46 389.185C215.16 388.905 215.986 388.765 216.938 388.765C217.666 388.765 218.401 388.856 219.143 389.038C219.899 389.206 220.515 389.451 220.991 389.773L220.13 391.369C219.626 391.033 219.101 390.802 218.555 390.676C218.009 390.55 217.463 390.487 216.917 390.487C216.035 390.487 215.377 390.634 214.943 390.928C214.509 391.208 214.292 391.572 214.292 392.02C214.292 392.398 214.418 392.692 214.67 392.902C214.936 393.098 215.272 393.252 215.678 393.364C216.098 393.476 216.56 393.574 217.064 393.658C217.568 393.728 218.072 393.826 218.576 393.952C219.08 394.064 219.535 394.225 219.941 394.435C220.361 394.645 220.697 394.939 220.949 395.317C221.215 395.695 221.348 396.199 221.348 396.829C221.348 397.501 221.152 398.082 220.76 398.572C220.368 399.062 219.815 399.447 219.101 399.727C218.387 399.993 217.533 400.126 216.539 400.126ZM230.776 400V397.648L230.671 397.207V393.196C230.671 392.342 230.419 391.684 229.915 391.222C229.425 390.746 228.683 390.508 227.689 390.508C227.031 390.508 226.387 390.62 225.757 390.844C225.127 391.054 224.595 391.341 224.161 391.705L223.321 390.193C223.895 389.731 224.581 389.381 225.379 389.143C226.191 388.891 227.038 388.765 227.92 388.765C229.446 388.765 230.622 389.136 231.448 389.878C232.274 390.62 232.687 391.754 232.687 393.28V400H230.776ZM227.122 400.126C226.296 400.126 225.568 399.986 224.938 399.706C224.322 399.426 223.846 399.041 223.51 398.551C223.174 398.047 223.006 397.48 223.006 396.85C223.006 396.248 223.146 395.702 223.426 395.212C223.72 394.722 224.189 394.33 224.833 394.036C225.491 393.742 226.373 393.595 227.479 393.595H231.007V395.044H227.563C226.555 395.044 225.876 395.212 225.526 395.548C225.176 395.884 225.001 396.29 225.001 396.766C225.001 397.312 225.218 397.753 225.652 398.089C226.086 398.411 226.688 398.572 227.458 398.572C228.214 398.572 228.872 398.404 229.432 398.068C230.006 397.732 230.419 397.242 230.671 396.598L231.07 397.984C230.804 398.642 230.335 399.167 229.663 399.559C228.991 399.937 228.144 400.126 227.122 400.126ZM241.29 404.2C240.268 404.2 239.274 404.053 238.308 403.759C237.356 403.479 236.579 403.073 235.977 402.541L236.943 400.987C237.461 401.435 238.098 401.785 238.854 402.037C239.61 402.303 240.401 402.436 241.227 402.436C242.543 402.436 243.509 402.128 244.125 401.512C244.741 400.896 245.049 399.958 245.049 398.698V396.346L245.259 394.141L245.154 391.915V388.87H247.065V398.488C247.065 400.448 246.575 401.89 245.595 402.814C244.615 403.738 243.18 404.2 241.29 404.2ZM241.038 399.538C239.96 399.538 238.994 399.314 238.14 398.866C237.3 398.404 236.628 397.767 236.124 396.955C235.634 396.143 235.389 395.205 235.389 394.141C235.389 393.063 235.634 392.125 236.124 391.327C236.628 390.515 237.3 389.885 238.14 389.437C238.994 388.989 239.96 388.765 241.038 388.765C241.99 388.765 242.858 388.961 243.642 389.353C244.426 389.731 245.049 390.319 245.511 391.117C245.987 391.915 246.225 392.923 246.225 394.141C246.225 395.345 245.987 396.346 245.511 397.144C245.049 397.942 244.426 398.544 243.642 398.95C242.858 399.342 241.99 399.538 241.038 399.538ZM241.269 397.774C242.011 397.774 242.669 397.62 243.243 397.312C243.817 397.004 244.265 396.577 244.587 396.031C244.923 395.485 245.091 394.855 245.091 394.141C245.091 393.427 244.923 392.797 244.587 392.251C244.265 391.705 243.817 391.285 243.243 390.991C242.669 390.683 242.011 390.529 241.269 390.529C240.527 390.529 239.862 390.683 239.274 390.991C238.7 391.285 238.245 391.705 237.909 392.251C237.587 392.797 237.426 393.427 237.426 394.141C237.426 394.855 237.587 395.485 237.909 396.031C238.245 396.577 238.7 397.004 239.274 397.312C239.862 397.62 240.527 397.774 241.269 397.774ZM255.873 400.126C254.683 400.126 253.633 399.881 252.723 399.391C251.827 398.901 251.127 398.229 250.623 397.375C250.133 396.521 249.888 395.541 249.888 394.435C249.888 393.329 250.126 392.349 250.602 391.495C251.092 390.641 251.757 389.976 252.597 389.5C253.451 389.01 254.41 388.765 255.474 388.765C256.552 388.765 257.504 389.003 258.33 389.479C259.156 389.955 259.8 390.627 260.262 391.495C260.738 392.349 260.976 393.35 260.976 394.498C260.976 394.582 260.969 394.68 260.955 394.792C260.955 394.904 260.948 395.009 260.934 395.107H251.463V393.658H259.884L259.065 394.162C259.079 393.448 258.932 392.811 258.624 392.251C258.316 391.691 257.889 391.257 257.343 390.949C256.811 390.627 256.188 390.466 255.474 390.466C254.774 390.466 254.151 390.627 253.605 390.949C253.059 391.257 252.632 391.698 252.324 392.272C252.016 392.832 251.862 393.476 251.862 394.204V394.54C251.862 395.282 252.03 395.947 252.366 396.535C252.716 397.109 253.199 397.557 253.815 397.879C254.431 398.201 255.138 398.362 255.936 398.362C256.594 398.362 257.189 398.25 257.721 398.026C258.267 397.802 258.743 397.466 259.149 397.018L260.262 398.32C259.758 398.908 259.128 399.356 258.372 399.664C257.63 399.972 256.797 400.126 255.873 400.126ZM263.775 400V388.87H265.707V391.894L265.518 391.138C265.826 390.368 266.344 389.78 267.072 389.374C267.8 388.968 268.696 388.765 269.76 388.765V390.718C269.676 390.704 269.592 390.697 269.508 390.697C269.438 390.697 269.368 390.697 269.298 390.697C268.22 390.697 267.366 391.019 266.736 391.663C266.106 392.307 265.791 393.238 265.791 394.456V400H263.775ZM272.245 400V388.87H274.261V400H272.245ZM273.253 386.728C272.861 386.728 272.532 386.602 272.266 386.35C272.014 386.098 271.888 385.79 271.888 385.426C271.888 385.048 272.014 384.733 272.266 384.481C272.532 384.229 272.861 384.103 273.253 384.103C273.645 384.103 273.967 384.229 274.219 384.481C274.485 384.719 274.618 385.02 274.618 385.384C274.618 385.762 274.492 386.084 274.24 386.35C273.988 386.602 273.659 386.728 273.253 386.728ZM283.066 400.126C281.876 400.126 280.826 399.881 279.916 399.391C279.02 398.901 278.32 398.229 277.816 397.375C277.326 396.521 277.081 395.541 277.081 394.435C277.081 393.329 277.319 392.349 277.795 391.495C278.285 390.641 278.95 389.976 279.79 389.5C280.644 389.01 281.603 388.765 282.667 388.765C283.745 388.765 284.697 389.003 285.523 389.479C286.349 389.955 286.993 390.627 287.455 391.495C287.931 392.349 288.169 393.35 288.169 394.498C288.169 394.582 288.162 394.68 288.148 394.792C288.148 394.904 288.141 395.009 288.127 395.107H278.656V393.658H287.077L286.258 394.162C286.272 393.448 286.125 392.811 285.817 392.251C285.509 391.691 285.082 391.257 284.536 390.949C284.004 390.627 283.381 390.466 282.667 390.466C281.967 390.466 281.344 390.627 280.798 390.949C280.252 391.257 279.825 391.698 279.517 392.272C279.209 392.832 279.055 393.476 279.055 394.204V394.54C279.055 395.282 279.223 395.947 279.559 396.535C279.909 397.109 280.392 397.557 281.008 397.879C281.624 398.201 282.331 398.362 283.129 398.362C283.787 398.362 284.382 398.25 284.914 398.026C285.46 397.802 285.936 397.466 286.342 397.018L287.455 398.32C286.951 398.908 286.321 399.356 285.565 399.664C284.823 399.972 283.99 400.126 283.066 400.126ZM301.564 400.126C300.374 400.126 299.324 399.881 298.414 399.391C297.518 398.901 296.818 398.229 296.314 397.375C295.824 396.521 295.579 395.541 295.579 394.435C295.579 393.329 295.817 392.349 296.293 391.495C296.783 390.641 297.448 389.976 298.288 389.5C299.142 389.01 300.101 388.765 301.165 388.765C302.243 388.765 303.195 389.003 304.021 389.479C304.847 389.955 305.491 390.627 305.953 391.495C306.429 392.349 306.667 393.35 306.667 394.498C306.667 394.582 306.66 394.68 306.646 394.792C306.646 394.904 306.639 395.009 306.625 395.107H297.154V393.658H305.575L304.756 394.162C304.77 393.448 304.623 392.811 304.315 392.251C304.007 391.691 303.58 391.257 303.034 390.949C302.502 390.627 301.879 390.466 301.165 390.466C300.465 390.466 299.842 390.627 299.296 390.949C298.75 391.257 298.323 391.698 298.015 392.272C297.707 392.832 297.553 393.476 297.553 394.204V394.54C297.553 395.282 297.721 395.947 298.057 396.535C298.407 397.109 298.89 397.557 299.506 397.879C300.122 398.201 300.829 398.362 301.627 398.362C302.285 398.362 302.88 398.25 303.412 398.026C303.958 397.802 304.434 397.466 304.84 397.018L305.953 398.32C305.449 398.908 304.819 399.356 304.063 399.664C303.321 399.972 302.488 400.126 301.564 400.126ZM315.41 388.765C316.32 388.765 317.118 388.94 317.804 389.29C318.504 389.64 319.05 390.172 319.442 390.886C319.834 391.6 320.03 392.503 320.03 393.595V400H318.014V393.826C318.014 392.748 317.748 391.936 317.216 391.39C316.698 390.844 315.963 390.571 315.011 390.571C314.297 390.571 313.674 390.711 313.142 390.991C312.61 391.271 312.197 391.684 311.903 392.23C311.623 392.776 311.483 393.455 311.483 394.267V400H309.467V388.87H311.399V391.873L311.084 391.075C311.448 390.347 312.008 389.78 312.764 389.374C313.52 388.968 314.402 388.765 315.41 388.765ZM333.222 400.126C332.102 400.126 331.234 399.825 330.618 399.223C330.002 398.621 329.694 397.76 329.694 396.64V386.434H331.71V396.556C331.71 397.158 331.857 397.62 332.151 397.942C332.459 398.264 332.893 398.425 333.453 398.425C334.083 398.425 334.608 398.25 335.028 397.9L335.658 399.349C335.35 399.615 334.979 399.811 334.545 399.937C334.125 400.063 333.684 400.126 333.222 400.126ZM327.804 390.529V388.87H334.902V390.529H327.804ZM342.682 400.126C341.492 400.126 340.442 399.881 339.532 399.391C338.636 398.901 337.936 398.229 337.432 397.375C336.942 396.521 336.697 395.541 336.697 394.435C336.697 393.329 336.935 392.349 337.411 391.495C337.901 390.641 338.566 389.976 339.406 389.5C340.26 389.01 341.219 388.765 342.283 388.765C343.361 388.765 344.313 389.003 345.139 389.479C345.965 389.955 346.609 390.627 347.071 391.495C347.547 392.349 347.785 393.35 347.785 394.498C347.785 394.582 347.778 394.68 347.764 394.792C347.764 394.904 347.757 395.009 347.743 395.107H338.272V393.658H346.693L345.874 394.162C345.888 393.448 345.741 392.811 345.433 392.251C345.125 391.691 344.698 391.257 344.152 390.949C343.62 390.627 342.997 390.466 342.283 390.466C341.583 390.466 340.96 390.627 340.414 390.949C339.868 391.257 339.441 391.698 339.133 392.272C338.825 392.832 338.671 393.476 338.671 394.204V394.54C338.671 395.282 338.839 395.947 339.175 396.535C339.525 397.109 340.008 397.557 340.624 397.879C341.24 398.201 341.947 398.362 342.745 398.362C343.403 398.362 343.998 398.25 344.53 398.026C345.076 397.802 345.552 397.466 345.958 397.018L347.071 398.32C346.567 398.908 345.937 399.356 345.181 399.664C344.439 399.972 343.606 400.126 342.682 400.126ZM364.508 388.765C365.404 388.765 366.195 388.94 366.881 389.29C367.567 389.64 368.099 390.172 368.477 390.886C368.869 391.6 369.065 392.503 369.065 393.595V400H367.049V393.826C367.049 392.748 366.797 391.936 366.293 391.39C365.789 390.844 365.082 390.571 364.172 390.571C363.5 390.571 362.912 390.711 362.408 390.991C361.904 391.271 361.512 391.684 361.232 392.23C360.966 392.776 360.833 393.455 360.833 394.267V400H358.817V393.826C358.817 392.748 358.565 391.936 358.061 391.39C357.571 390.844 356.864 390.571 355.94 390.571C355.282 390.571 354.701 390.711 354.197 390.991C353.693 391.271 353.301 391.684 353.021 392.23C352.741 392.776 352.601 393.455 352.601 394.267V400H350.585V388.87H352.517V391.831L352.202 391.075C352.552 390.347 353.091 389.78 353.819 389.374C354.547 388.968 355.394 388.765 356.36 388.765C357.424 388.765 358.341 389.031 359.111 389.563C359.881 390.081 360.385 390.872 360.623 391.936L359.804 391.6C360.14 390.746 360.728 390.06 361.568 389.542C362.408 389.024 363.388 388.765 364.508 388.765ZM378.675 400.126C377.751 400.126 376.904 399.916 376.134 399.496C375.378 399.062 374.769 398.425 374.307 397.585C373.859 396.745 373.635 395.695 373.635 394.435C373.635 393.175 373.852 392.125 374.286 391.285C374.734 390.445 375.336 389.815 376.092 389.395C376.862 388.975 377.723 388.765 378.675 388.765C379.767 388.765 380.733 389.003 381.573 389.479C382.413 389.955 383.078 390.62 383.568 391.474C384.058 392.314 384.303 393.301 384.303 394.435C384.303 395.569 384.058 396.563 383.568 397.417C383.078 398.271 382.413 398.936 381.573 399.412C380.733 399.888 379.767 400.126 378.675 400.126ZM372.774 404.074V388.87H374.706V391.873L374.58 394.456L374.79 397.039V404.074H372.774ZM378.507 398.362C379.221 398.362 379.858 398.201 380.418 397.879C380.992 397.557 381.44 397.102 381.762 396.514C382.098 395.912 382.266 395.219 382.266 394.435C382.266 393.637 382.098 392.951 381.762 392.377C381.44 391.789 380.992 391.334 380.418 391.012C379.858 390.69 379.221 390.529 378.507 390.529C377.807 390.529 377.17 390.69 376.596 391.012C376.036 391.334 375.588 391.789 375.252 392.377C374.93 392.951 374.769 393.637 374.769 394.435C374.769 395.219 374.93 395.912 375.252 396.514C375.588 397.102 376.036 397.557 376.596 397.879C377.17 398.201 377.807 398.362 378.507 398.362ZM390.281 400.126C389.357 400.126 388.475 400 387.635 399.748C386.809 399.496 386.158 399.188 385.682 398.824L386.522 397.228C386.998 397.55 387.586 397.823 388.286 398.047C388.986 398.271 389.7 398.383 390.428 398.383C391.366 398.383 392.038 398.25 392.444 397.984C392.864 397.718 393.074 397.347 393.074 396.871C393.074 396.521 392.948 396.248 392.696 396.052C392.444 395.856 392.108 395.709 391.688 395.611C391.282 395.513 390.827 395.429 390.323 395.359C389.819 395.275 389.315 395.177 388.811 395.065C388.307 394.939 387.845 394.771 387.425 394.561C387.005 394.337 386.669 394.036 386.417 393.658C386.165 393.266 386.039 392.748 386.039 392.104C386.039 391.432 386.228 390.844 386.606 390.34C386.984 389.836 387.516 389.451 388.202 389.185C388.902 388.905 389.728 388.765 390.68 388.765C391.408 388.765 392.143 388.856 392.885 389.038C393.641 389.206 394.257 389.451 394.733 389.773L393.872 391.369C393.368 391.033 392.843 390.802 392.297 390.676C391.751 390.55 391.205 390.487 390.659 390.487C389.777 390.487 389.119 390.634 388.685 390.928C388.251 391.208 388.034 391.572 388.034 392.02C388.034 392.398 388.16 392.692 388.412 392.902C388.678 393.098 389.014 393.252 389.42 393.364C389.84 393.476 390.302 393.574 390.806 393.658C391.31 393.728 391.814 393.826 392.318 393.952C392.822 394.064 393.277 394.225 393.683 394.435C394.103 394.645 394.439 394.939 394.691 395.317C394.957 395.695 395.09 396.199 395.09 396.829C395.09 397.501 394.894 398.082 394.502 398.572C394.11 399.062 393.557 399.447 392.843 399.727C392.129 399.993 391.275 400.126 390.281 400.126ZM403.249 400V388.87H405.181V391.894L404.992 391.138C405.3 390.368 405.818 389.78 406.546 389.374C407.274 388.968 408.17 388.765 409.234 388.765V390.718C409.15 390.704 409.066 390.697 408.982 390.697C408.912 390.697 408.842 390.697 408.772 390.697C407.694 390.697 406.84 391.019 406.21 391.663C405.58 392.307 405.265 393.238 405.265 394.456V400H403.249ZM416.572 400.126C415.382 400.126 414.332 399.881 413.422 399.391C412.526 398.901 411.826 398.229 411.322 397.375C410.832 396.521 410.587 395.541 410.587 394.435C410.587 393.329 410.825 392.349 411.301 391.495C411.791 390.641 412.456 389.976 413.296 389.5C414.15 389.01 415.109 388.765 416.173 388.765C417.251 388.765 418.203 389.003 419.029 389.479C419.855 389.955 420.499 390.627 420.961 391.495C421.437 392.349 421.675 393.35 421.675 394.498C421.675 394.582 421.668 394.68 421.654 394.792C421.654 394.904 421.647 395.009 421.633 395.107H412.162V393.658H420.583L419.764 394.162C419.778 393.448 419.631 392.811 419.323 392.251C419.015 391.691 418.588 391.257 418.042 390.949C417.51 390.627 416.887 390.466 416.173 390.466C415.473 390.466 414.85 390.627 414.304 390.949C413.758 391.257 413.331 391.698 413.023 392.272C412.715 392.832 412.561 393.476 412.561 394.204V394.54C412.561 395.282 412.729 395.947 413.065 396.535C413.415 397.109 413.898 397.557 414.514 397.879C415.13 398.201 415.837 398.362 416.635 398.362C417.293 398.362 417.888 398.25 418.42 398.026C418.966 397.802 419.442 397.466 419.848 397.018L420.961 398.32C420.457 398.908 419.827 399.356 419.071 399.664C418.329 399.972 417.496 400.126 416.572 400.126ZM414.577 387.253L417.433 384.523H419.995L416.467 387.253H414.577ZM429.43 400.126C428.24 400.126 427.19 399.881 426.28 399.391C425.384 398.901 424.684 398.229 424.18 397.375C423.69 396.521 423.445 395.541 423.445 394.435C423.445 393.329 423.683 392.349 424.159 391.495C424.649 390.641 425.314 389.976 426.154 389.5C427.008 389.01 427.967 388.765 429.031 388.765C430.109 388.765 431.061 389.003 431.887 389.479C432.713 389.955 433.357 390.627 433.819 391.495C434.295 392.349 434.533 393.35 434.533 394.498C434.533 394.582 434.526 394.68 434.512 394.792C434.512 394.904 434.505 395.009 434.491 395.107H425.02V393.658H433.441L432.622 394.162C432.636 393.448 432.489 392.811 432.181 392.251C431.873 391.691 431.446 391.257 430.9 390.949C430.368 390.627 429.745 390.466 429.031 390.466C428.331 390.466 427.708 390.627 427.162 390.949C426.616 391.257 426.189 391.698 425.881 392.272C425.573 392.832 425.419 393.476 425.419 394.204V394.54C425.419 395.282 425.587 395.947 425.923 396.535C426.273 397.109 426.756 397.557 427.372 397.879C427.988 398.201 428.695 398.362 429.493 398.362C430.151 398.362 430.746 398.25 431.278 398.026C431.824 397.802 432.3 397.466 432.706 397.018L433.819 398.32C433.315 398.908 432.685 399.356 431.929 399.664C431.187 399.972 430.354 400.126 429.43 400.126ZM437.333 400V384.418H439.349V400H437.333Z" fill="black"/>
<g filter="url(#filter2_d_1_209)">
<rect x="577" y="10" width="220" height="179" rx="16" fill="white"/>
</g>
<path d="M633.583 51.3334H604.417C602.115 51.3334 600.25 53.1989 600.25 55.5V84.6667C600.25 86.9679 602.115 88.8334 604.417 88.8334H633.583C635.885 88.8334 637.75 86.9679 637.75 84.6667V55.5C637.75 53.1989 635.885 51.3334 633.583 51.3334Z" stroke="black" stroke-width="2" stroke-linecap="round" stroke-linejoin="round"/>
<path d="M627.333 47.1666V55.5" stroke="black" stroke-width="2" stroke-linecap="round" stroke-linejoin="round"/>
<path d="M610.667 47.1666V55.5" stroke="black" stroke-width="2" stroke-linecap="round" stroke-linejoin="round"/>
<path d="M600.25 63.8334H637.75" stroke="black" stroke-width="2" stroke-linecap="round" stroke-linejoin="round"/>
<path d="M612.75 76.3333L616.917 80.5L625.25 72.1666" stroke="black" stroke-width="2" stroke-linecap="round" stroke-linejoin="round"/>
<path d="M595.89 134V121.4H600.804C601.908 121.4 602.85 121.574 603.63 121.922C604.41 122.27 605.01 122.774 605.43 123.434C605.85 124.094 606.06 124.88 606.06 125.792C606.06 126.704 605.85 127.49 605.43 128.15C605.01 128.798 604.41 129.302 603.63 129.662C602.85 130.01 601.908 130.184 600.804 130.184H596.88L597.69 129.338V134H595.89ZM597.69 129.518L596.88 128.618H600.75C601.902 128.618 602.772 128.372 603.36 127.88C603.96 127.388 604.26 126.692 604.26 125.792C604.26 124.892 603.96 124.196 603.36 123.704C602.772 123.212 601.902 122.966 600.75 122.966H596.88L597.69 122.066V129.518ZM608.628 134V120.644H610.356V134H608.628ZM619.578 134V131.984L619.488 131.606V128.168C619.488 127.436 619.272 126.872 618.84 126.476C618.42 126.068 617.784 125.864 616.932 125.864C616.368 125.864 615.816 125.96 615.276 126.152C614.736 126.332 614.28 126.578 613.908 126.89L613.188 125.594C613.68 125.198 614.268 124.898 614.952 124.694C615.648 124.478 616.374 124.37 617.13 124.37C618.438 124.37 619.446 124.688 620.154 125.324C620.862 125.96 621.216 126.932 621.216 128.24V134H619.578ZM616.446 134.108C615.738 134.108 615.114 133.988 614.574 133.748C614.046 133.508 613.638 133.178 613.35 132.758C613.062 132.326 612.918 131.84 612.918 131.3C612.918 130.784 613.038 130.316 613.278 129.896C613.53 129.476 613.932 129.14 614.484 128.888C615.048 128.636 615.804 128.51 616.752 128.51H619.776V129.752H616.824C615.96 129.752 615.378 129.896 615.078 130.184C614.778 130.472 614.628 130.82 614.628 131.228C614.628 131.696 614.814 132.074 615.186 132.362C615.558 132.638 616.074 132.776 616.734 132.776C617.382 132.776 617.946 132.632 618.426 132.344C618.918 132.056 619.272 131.636 619.488 131.084L619.83 132.272C619.602 132.836 619.2 133.286 618.624 133.622C618.048 133.946 617.322 134.108 616.446 134.108ZM629.507 124.37C630.287 124.37 630.971 124.52 631.559 124.82C632.159 125.12 632.627 125.576 632.963 126.188C633.299 126.8 633.467 127.574 633.467 128.51V134H631.739V128.708C631.739 127.784 631.511 127.088 631.055 126.62C630.611 126.152 629.981 125.918 629.165 125.918C628.553 125.918 628.019 126.038 627.563 126.278C627.107 126.518 626.753 126.872 626.501 127.34C626.261 127.808 626.141 128.39 626.141 129.086V134H624.413V124.46H626.069V127.034L625.799 126.35C626.111 125.726 626.591 125.24 627.239 124.892C627.887 124.544 628.643 124.37 629.507 124.37ZM636.665 134V124.46H638.393V134H636.665ZM637.529 122.624C637.193 122.624 636.911 122.516 636.683 122.3C636.467 122.084 636.359 121.82 636.359 121.508C636.359 121.184 636.467 120.914 636.683 120.698C636.911 120.482 637.193 120.374 637.529 120.374C637.865 120.374 638.141 120.482 638.357 120.698C638.585 120.902 638.699 121.16 638.699 121.472C638.699 121.796 638.591 122.072 638.375 122.3C638.159 122.516 637.877 122.624 637.529 122.624ZM641.945 134V123.614C641.945 122.678 642.215 121.934 642.755 121.382C643.307 120.818 644.087 120.536 645.095 120.536C645.467 120.536 645.821 120.584 646.157 120.68C646.505 120.764 646.799 120.902 647.039 121.094L646.517 122.408C646.337 122.264 646.133 122.156 645.905 122.084C645.677 122 645.437 121.958 645.185 121.958C644.681 121.958 644.297 122.102 644.033 122.39C643.769 122.666 643.637 123.08 643.637 123.632V124.91L643.673 125.702V134H641.945ZM640.325 125.882V124.46H646.409V125.882H640.325ZM648.047 134V124.46H649.775V134H648.047ZM648.911 122.624C648.575 122.624 648.293 122.516 648.065 122.3C647.849 122.084 647.741 121.82 647.741 121.508C647.741 121.184 647.849 120.914 648.065 120.698C648.293 120.482 648.575 120.374 648.911 120.374C649.247 120.374 649.523 120.482 649.739 120.698C649.967 120.902 650.081 121.16 650.081 121.472C650.081 121.796 649.973 122.072 649.757 122.3C649.541 122.516 649.259 122.624 648.911 122.624ZM657.224 134.108C656.252 134.108 655.382 133.898 654.614 133.478C653.858 133.058 653.264 132.482 652.832 131.75C652.4 131.018 652.184 130.178 652.184 129.23C652.184 128.282 652.4 127.442 652.832 126.71C653.264 125.978 653.858 125.408 654.614 125C655.382 124.58 656.252 124.37 657.224 124.37C658.088 124.37 658.856 124.544 659.528 124.892C660.212 125.228 660.74 125.732 661.112 126.404L659.798 127.25C659.486 126.782 659.102 126.44 658.646 126.224C658.202 125.996 657.722 125.882 657.206 125.882C656.582 125.882 656.024 126.02 655.532 126.296C655.04 126.572 654.65 126.962 654.362 127.466C654.074 127.958 653.93 128.546 653.93 129.23C653.93 129.914 654.074 130.508 654.362 131.012C654.65 131.516 655.04 131.906 655.532 132.182C656.024 132.458 656.582 132.596 657.206 132.596C657.722 132.596 658.202 132.488 658.646 132.272C659.102 132.044 659.486 131.696 659.798 131.228L661.112 132.056C660.74 132.716 660.212 133.226 659.528 133.586C658.856 133.934 658.088 134.108 657.224 134.108ZM669.271 134V131.984L669.181 131.606V128.168C669.181 127.436 668.965 126.872 668.533 126.476C668.113 126.068 667.477 125.864 666.625 125.864C666.061 125.864 665.509 125.96 664.969 126.152C664.429 126.332 663.973 126.578 663.601 126.89L662.881 125.594C663.373 125.198 663.961 124.898 664.645 124.694C665.341 124.478 666.067 124.37 666.823 124.37C668.131 124.37 669.139 124.688 669.847 125.324C670.555 125.96 670.909 126.932 670.909 128.24V134H669.271ZM666.139 134.108C665.431 134.108 664.807 133.988 664.267 133.748C663.739 133.508 663.331 133.178 663.043 132.758C662.755 132.326 662.611 131.84 662.611 131.3C662.611 130.784 662.731 130.316 662.971 129.896C663.223 129.476 663.625 129.14 664.177 128.888C664.741 128.636 665.497 128.51 666.445 128.51H669.469V129.752H666.517C665.653 129.752 665.071 129.896 664.771 130.184C664.471 130.472 664.321 130.82 664.321 131.228C664.321 131.696 664.507 132.074 664.879 132.362C665.251 132.638 665.767 132.776 666.427 132.776C667.075 132.776 667.639 132.632 668.119 132.344C668.611 132.056 668.965 131.636 669.181 131.084L669.523 132.272C669.295 132.836 668.893 133.286 668.317 133.622C667.741 133.946 667.015 134.108 666.139 134.108ZM677.383 134.108C676.423 134.108 675.679 133.85 675.151 133.334C674.623 132.818 674.359 132.08 674.359 131.12V122.372H676.087V131.048C676.087 131.564 676.213 131.96 676.465 132.236C676.729 132.512 677.101 132.65 677.581 132.65C678.121 132.65 678.571 132.5 678.931 132.2L679.471 133.442C679.207 133.67 678.889 133.838 678.517 133.946C678.157 134.054 677.779 134.108 677.383 134.108ZM672.739 125.882V124.46H678.823V125.882H672.739ZM681.56 134V124.46H683.288V134H681.56ZM682.424 122.624C682.088 122.624 681.806 122.516 681.578 122.3C681.362 122.084 681.254 121.82 681.254 121.508C681.254 121.184 681.362 120.914 681.578 120.698C681.806 120.482 682.088 120.374 682.424 120.374C682.76 120.374 683.036 120.482 683.252 120.698C683.48 120.902 683.594 121.16 683.594 121.472C683.594 121.796 683.486 122.072 683.27 122.3C683.054 122.516 682.772 122.624 682.424 122.624ZM690.673 134.108C689.713 134.108 688.861 133.898 688.117 133.478C687.373 133.058 686.785 132.482 686.353 131.75C685.921 131.006 685.705 130.166 685.705 129.23C685.705 128.282 685.921 127.442 686.353 126.71C686.785 125.978 687.373 125.408 688.117 125C688.861 124.58 689.713 124.37 690.673 124.37C691.621 124.37 692.467 124.58 693.211 125C693.967 125.408 694.555 125.978 694.975 126.71C695.407 127.43 695.623 128.27 695.623 129.23C695.623 130.178 695.407 131.018 694.975 131.75C694.555 132.482 693.967 133.058 693.211 133.478C692.467 133.898 691.621 134.108 690.673 134.108ZM690.673 132.596C691.285 132.596 691.831 132.458 692.311 132.182C692.803 131.906 693.187 131.516 693.463 131.012C693.739 130.496 693.877 129.902 693.877 129.23C693.877 128.546 693.739 127.958 693.463 127.466C693.187 126.962 692.803 126.572 692.311 126.296C691.831 126.02 691.285 125.882 690.673 125.882C690.061 125.882 689.515 126.02 689.035 126.296C688.555 126.572 688.171 126.962 687.883 127.466C687.595 127.958 687.451 128.546 687.451 129.23C687.451 129.902 687.595 130.496 687.883 131.012C688.171 131.516 688.555 131.906 689.035 132.182C689.515 132.458 690.061 132.596 690.673 132.596ZM703.107 124.37C703.887 124.37 704.571 124.52 705.159 124.82C705.759 125.12 706.227 125.576 706.563 126.188C706.899 126.8 707.067 127.574 707.067 128.51V134H705.339V128.708C705.339 127.784 705.111 127.088 704.655 126.62C704.211 126.152 703.581 125.918 702.765 125.918C702.153 125.918 701.619 126.038 701.163 126.278C700.707 126.518 700.353 126.872 700.101 127.34C699.861 127.808 699.741 128.39 699.741 129.086V134H698.013V124.46H699.669V127.034L699.399 126.35C699.711 125.726 700.191 125.24 700.839 124.892C701.487 124.544 702.243 124.37 703.107 124.37ZM719.041 134.108C718.117 134.108 717.289 133.904 716.557 133.496C715.837 133.088 715.267 132.518 714.847 131.786C714.427 131.054 714.217 130.202 714.217 129.23C714.217 128.258 714.427 127.412 714.847 126.692C715.267 125.96 715.837 125.39 716.557 124.982C717.289 124.574 718.117 124.37 719.041 124.37C719.845 124.37 720.571 124.55 721.219 124.91C721.867 125.27 722.383 125.81 722.767 126.53C723.163 127.25 723.361 128.15 723.361 129.23C723.361 130.31 723.169 131.21 722.785 131.93C722.413 132.65 721.903 133.196 721.255 133.568C720.607 133.928 719.869 134.108 719.041 134.108ZM719.185 132.596C719.785 132.596 720.325 132.458 720.805 132.182C721.297 131.906 721.681 131.516 721.957 131.012C722.245 130.496 722.389 129.902 722.389 129.23C722.389 128.546 722.245 127.958 721.957 127.466C721.681 126.962 721.297 126.572 720.805 126.296C720.325 126.02 719.785 125.882 719.185 125.882C718.573 125.882 718.027 126.02 717.547 126.296C717.067 126.572 716.683 126.962 716.395 127.466C716.107 127.958 715.963 128.546 715.963 129.23C715.963 129.902 716.107 130.496 716.395 131.012C716.683 131.516 717.067 131.906 717.547 132.182C718.027 132.458 718.573 132.596 719.185 132.596ZM722.443 134V131.426L722.551 129.212L722.371 126.998V120.644H724.099V134H722.443ZM731.616 134.108C730.596 134.108 729.696 133.898 728.916 133.478C728.148 133.058 727.548 132.482 727.116 131.75C726.696 131.018 726.486 130.178 726.486 129.23C726.486 128.282 726.69 127.442 727.098 126.71C727.518 125.978 728.088 125.408 728.808 125C729.54 124.58 730.362 124.37 731.274 124.37C732.198 124.37 733.014 124.574 733.722 124.982C734.43 125.39 734.982 125.966 735.378 126.71C735.786 127.442 735.99 128.3 735.99 129.284C735.99 129.356 735.984 129.44 735.972 129.536C735.972 129.632 735.966 129.722 735.954 129.806H727.836V128.564H735.054L734.352 128.996C734.364 128.384 734.238 127.838 733.974 127.358C733.71 126.878 733.344 126.506 732.876 126.242C732.42 125.966 731.886 125.828 731.274 125.828C730.674 125.828 730.14 125.966 729.672 126.242C729.204 126.506 728.838 126.884 728.574 127.376C728.31 127.856 728.178 128.408 728.178 129.032V129.32C728.178 129.956 728.322 130.526 728.61 131.03C728.91 131.522 729.324 131.906 729.852 132.182C730.38 132.458 730.986 132.596 731.67 132.596C732.234 132.596 732.744 132.5 733.2 132.308C733.668 132.116 734.076 131.828 734.424 131.444L735.378 132.56C734.946 133.064 734.406 133.448 733.758 133.712C733.122 133.976 732.408 134.108 731.616 134.108ZM741.126 134.108C740.334 134.108 739.578 134 738.858 133.784C738.15 133.568 737.592 133.304 737.184 132.992L737.904 131.624C738.312 131.9 738.816 132.134 739.416 132.326C740.016 132.518 740.628 132.614 741.252 132.614C742.056 132.614 742.632 132.5 742.98 132.272C743.34 132.044 743.52 131.726 743.52 131.318C743.52 131.018 743.412 130.784 743.196 130.616C742.98 130.448 742.692 130.322 742.332 130.238C741.984 130.154 741.594 130.082 741.162 130.022C740.73 129.95 740.298 129.866 739.866 129.77C739.434 129.662 739.038 129.518 738.678 129.338C738.318 129.146 738.03 128.888 737.814 128.564C737.598 128.228 737.49 127.784 737.49 127.232C737.49 126.656 737.652 126.152 737.976 125.72C738.3 125.288 738.756 124.958 739.344 124.73C739.944 124.49 740.652 124.37 741.468 124.37C742.092 124.37 742.722 124.448 743.358 124.604C744.006 124.748 744.534 124.958 744.942 125.234L744.204 126.602C743.772 126.314 743.322 126.116 742.854 126.008C742.386 125.9 741.918 125.846 741.45 125.846C740.694 125.846 740.13 125.972 739.758 126.224C739.386 126.464 739.2 126.776 739.2 127.16C739.2 127.484 739.308 127.736 739.524 127.916C739.752 128.084 740.04 128.216 740.388 128.312C740.748 128.408 741.144 128.492 741.576 128.564C742.008 128.624 742.44 128.708 742.872 128.816C743.304 128.912 743.694 129.05 744.042 129.23C744.402 129.41 744.69 129.662 744.906 129.986C745.134 130.31 745.248 130.742 745.248 131.282C745.248 131.858 745.08 132.356 744.744 132.776C744.408 133.196 743.934 133.526 743.322 133.766C742.71 133.994 741.978 134.108 741.126 134.108ZM595.638 162V152.46H597.294V155.052L597.132 154.404C597.396 153.744 597.84 153.24 598.464 152.892C599.088 152.544 599.856 152.37 600.768 152.37V154.044C600.696 154.032 600.624 154.026 600.552 154.026C600.492 154.026 600.432 154.026 600.372 154.026C599.448 154.026 598.716 154.302 598.176 154.854C597.636 155.406 597.366 156.204 597.366 157.248V162H595.638ZM607.058 162.108C606.038 162.108 605.138 161.898 604.358 161.478C603.59 161.058 602.99 160.482 602.558 159.75C602.138 159.018 601.928 158.178 601.928 157.23C601.928 156.282 602.132 155.442 602.54 154.71C602.96 153.978 603.53 153.408 604.25 153C604.982 152.58 605.804 152.37 606.716 152.37C607.64 152.37 608.456 152.574 609.164 152.982C609.872 153.39 610.424 153.966 610.82 154.71C611.228 155.442 611.432 156.3 611.432 157.284C611.432 157.356 611.426 157.44 611.414 157.536C611.414 157.632 611.408 157.722 611.396 157.806H603.278V156.564H610.496L609.794 156.996C609.806 156.384 609.68 155.838 609.416 155.358C609.152 154.878 608.786 154.506 608.318 154.242C607.862 153.966 607.328 153.828 606.716 153.828C606.116 153.828 605.582 153.966 605.114 154.242C604.646 154.506 604.28 154.884 604.016 155.376C603.752 155.856 603.62 156.408 603.62 157.032V157.32C603.62 157.956 603.764 158.526 604.052 159.03C604.352 159.522 604.766 159.906 605.294 160.182C605.822 160.458 606.428 160.596 607.112 160.596C607.676 160.596 608.186 160.5 608.642 160.308C609.11 160.116 609.518 159.828 609.866 159.444L610.82 160.56C610.388 161.064 609.848 161.448 609.2 161.712C608.564 161.976 607.85 162.108 607.058 162.108ZM605.348 151.074L607.796 148.734H609.992L606.968 151.074H605.348ZM617.845 162.108C617.029 162.108 616.309 161.958 615.685 161.658C615.073 161.358 614.593 160.902 614.245 160.29C613.909 159.666 613.741 158.886 613.741 157.95V152.46H615.469V157.752C615.469 158.688 615.691 159.39 616.135 159.858C616.591 160.326 617.227 160.56 618.043 160.56C618.643 160.56 619.165 160.44 619.609 160.2C620.053 159.948 620.395 159.588 620.635 159.12C620.875 158.64 620.995 158.064 620.995 157.392V152.46H622.723V162H621.085V159.426L621.355 160.11C621.043 160.746 620.575 161.238 619.951 161.586C619.327 161.934 618.625 162.108 617.845 162.108ZM631.107 152.37C631.887 152.37 632.571 152.52 633.159 152.82C633.759 153.12 634.227 153.576 634.563 154.188C634.899 154.8 635.067 155.574 635.067 156.51V162H633.339V156.708C633.339 155.784 633.111 155.088 632.655 154.62C632.211 154.152 631.581 153.918 630.765 153.918C630.153 153.918 629.619 154.038 629.163 154.278C628.707 154.518 628.353 154.872 628.101 155.34C627.861 155.808 627.741 156.39 627.741 157.086V162H626.013V152.46H627.669V155.034L627.399 154.35C627.711 153.726 628.191 153.24 628.839 152.892C629.487 152.544 630.243 152.37 631.107 152.37ZM638.265 162V152.46H639.993V162H638.265ZM639.129 150.624C638.793 150.624 638.511 150.516 638.283 150.3C638.067 150.084 637.959 149.82 637.959 149.508C637.959 149.184 638.067 148.914 638.283 148.698C638.511 148.482 638.793 148.374 639.129 148.374C639.465 148.374 639.741 148.482 639.957 148.698C640.185 148.902 640.299 149.16 640.299 149.472C640.299 149.796 640.191 150.072 639.975 150.3C639.759 150.516 639.477 150.624 639.129 150.624ZM647.378 162.108C646.418 162.108 645.566 161.898 644.822 161.478C644.078 161.058 643.49 160.482 643.058 159.75C642.626 159.006 642.41 158.166 642.41 157.23C642.41 156.282 642.626 155.442 643.058 154.71C643.49 153.978 644.078 153.408 644.822 153C645.566 152.58 646.418 152.37 647.378 152.37C648.326 152.37 649.172 152.58 649.916 153C650.672 153.408 651.26 153.978 651.68 154.71C652.112 155.43 652.328 156.27 652.328 157.23C652.328 158.178 652.112 159.018 651.68 159.75C651.26 160.482 650.672 161.058 649.916 161.478C649.172 161.898 648.326 162.108 647.378 162.108ZM647.378 160.596C647.99 160.596 648.536 160.458 649.016 160.182C649.508 159.906 649.892 159.516 650.168 159.012C650.444 158.496 650.582 157.902 650.582 157.23C650.582 156.546 650.444 155.958 650.168 155.466C649.892 154.962 649.508 154.572 649.016 154.296C648.536 154.02 647.99 153.882 647.378 153.882C646.766 153.882 646.22 154.02 645.74 154.296C645.26 154.572 644.876 154.962 644.588 155.466C644.3 155.958 644.156 156.546 644.156 157.23C644.156 157.902 644.3 158.496 644.588 159.012C644.876 159.516 645.26 159.906 645.74 160.182C646.22 160.458 646.766 160.596 647.378 160.596ZM659.812 152.37C660.592 152.37 661.276 152.52 661.864 152.82C662.464 153.12 662.932 153.576 663.268 154.188C663.604 154.8 663.772 155.574 663.772 156.51V162H662.044V156.708C662.044 155.784 661.816 155.088 661.36 154.62C660.916 154.152 660.286 153.918 659.47 153.918C658.858 153.918 658.324 154.038 657.868 154.278C657.412 154.518 657.058 154.872 656.806 155.34C656.566 155.808 656.446 156.39 656.446 157.086V162H654.718V152.46H656.374V155.034L656.104 154.35C656.416 153.726 656.896 153.24 657.544 152.892C658.192 152.544 658.948 152.37 659.812 152.37ZM669.706 162.108C668.914 162.108 668.158 162 667.438 161.784C666.73 161.568 666.172 161.304 665.764 160.992L666.484 159.624C666.892 159.9 667.396 160.134 667.996 160.326C668.596 160.518 669.208 160.614 669.832 160.614C670.636 160.614 671.212 160.5 671.56 160.272C671.92 160.044 672.1 159.726 672.1 159.318C672.1 159.018 671.992 158.784 671.776 158.616C671.56 158.448 671.272 158.322 670.912 158.238C670.564 158.154 670.174 158.082 669.742 158.022C669.31 157.95 668.878 157.866 668.446 157.77C668.014 157.662 667.618 157.518 667.258 157.338C666.898 157.146 666.61 156.888 666.394 156.564C666.178 156.228 666.07 155.784 666.07 155.232C666.07 154.656 666.232 154.152 666.556 153.72C666.88 153.288 667.336 152.958 667.924 152.73C668.524 152.49 669.232 152.37 670.048 152.37C670.672 152.37 671.302 152.448 671.938 152.604C672.586 152.748 673.114 152.958 673.522 153.234L672.784 154.602C672.352 154.314 671.902 154.116 671.434 154.008C670.966 153.9 670.498 153.846 670.03 153.846C669.274 153.846 668.71 153.972 668.338 154.224C667.966 154.464 667.78 154.776 667.78 155.16C667.78 155.484 667.888 155.736 668.104 155.916C668.332 156.084 668.62 156.216 668.968 156.312C669.328 156.408 669.724 156.492 670.156 156.564C670.588 156.624 671.02 156.708 671.452 156.816C671.884 156.912 672.274 157.05 672.622 157.23C672.982 157.41 673.27 157.662 673.486 157.986C673.714 158.31 673.828 158.742 673.828 159.282C673.828 159.858 673.66 160.356 673.324 160.776C672.988 161.196 672.514 161.526 671.902 161.766C671.29 161.994 670.558 162.108 669.706 162.108Z" fill="#0F1727"/>
<path d="M386 206L380 210L386 214V206Z" stroke="black" stroke-width="2" stroke-linecap="round" stroke-linejoin="round"/>
<path d="M378 204H368C366.895 204 366 204.895 366 206V214C366 215.105 366.895 216 368 216H378C379.105 216 380 215.105 380 214V206C380 204.895 379.105 204 378 204Z" stroke="black" stroke-width="2" stroke-linecap="round" stroke-linejoin="round"/>
<path d="M386 266.92V269.92C386.001 270.198 385.944 270.474 385.833 270.729C385.721 270.985 385.557 271.214 385.352 271.402C385.147 271.59 384.905 271.733 384.641 271.823C384.377 271.912 384.097 271.945 383.82 271.92C380.743 271.586 377.787 270.534 375.19 268.85C372.774 267.315 370.725 265.266 369.19 262.85C367.5 260.241 366.448 257.271 366.12 254.18C366.095 253.903 366.128 253.625 366.216 253.362C366.305 253.098 366.448 252.857 366.635 252.652C366.822 252.447 367.05 252.283 367.304 252.17C367.558 252.058 367.832 252 368.11 252H371.11C371.595 251.995 372.066 252.167 372.434 252.484C372.802 252.8 373.042 253.239 373.11 253.72C373.237 254.68 373.471 255.623 373.81 256.53C373.945 256.888 373.974 257.277 373.894 257.651C373.814 258.025 373.629 258.368 373.36 258.64L372.09 259.91C373.514 262.414 375.586 264.486 378.09 265.91L379.36 264.64C379.632 264.371 379.975 264.186 380.349 264.106C380.723 264.026 381.112 264.055 381.47 264.19C382.377 264.529 383.32 264.763 384.28 264.89C384.766 264.959 385.209 265.203 385.527 265.577C385.844 265.952 386.012 266.43 386 266.92Z" stroke="black" stroke-width="2" stroke-linecap="round" stroke-linejoin="round"/>
<path d="M384 304H368C366.895 304 366 304.895 366 306V318C366 319.105 366.895 320 368 320H384C385.105 320 386 319.105 386 318V306C386 304.895 385.105 304 384 304Z" stroke="black" stroke-width="2" stroke-linecap="round" stroke-linejoin="round"/>
<path d="M386 307L377.03 312.7C376.721 312.893 376.364 312.996 376 312.996C375.636 312.996 375.279 312.893 374.97 312.7L366 307" stroke="black" stroke-width="2" stroke-linecap="round" stroke-linejoin="round"/>
<defs>
<filter id="filter0_d_1_209" x="253" y="61" width="420" height="373" filterUnits="userSpaceOnUse" color-interpolation-filters="sRGB">
<feFlood flood-opacity="0" result="BackgroundImageFix"/>
<feColorMatrix in="SourceAlpha" type="matrix" values="0 0 0 0 0 0 0 0 0 0 0 0 0 0 0 0 0 0 127 0" result="hardAlpha"/>
<feOffset dx="-30" dy="14"/>
<feGaussianBlur stdDeviation="25"/>
<feComposite in2="hardAlpha" operator="out"/>
<feColorMatrix type="matrix" values="0 0 0 0 0.309804 0 0 0 0 0.423529 0 0 0 0 0.643137 0 0 0 0.1 0"/>
<feBlend mode="normal" in2="BackgroundImageFix" result="effect1_dropShadow_1_209"/>
<feBlend mode="normal" in="SourceGraphic" in2="effect1_dropShadow_1_209" result="shape"/>
</filter>
<filter id="filter1_d_1_209" x="0" y="312" width="490" height="180" filterUnits="userSpaceOnUse" color-interpolation-filters="sRGB">
<feFlood flood-opacity="0" result="BackgroundImageFix"/>
<feColorMatrix in="SourceAlpha" type="matrix" values="0 0 0 0 0 0 0 0 0 0 0 0 0 0 0 0 0 0 127 0" result="hardAlpha"/>
<feOffset dx="-30" dy="14"/>
<feGaussianBlur stdDeviation="25"/>
<feComposite in2="hardAlpha" operator="out"/>
<feColorMatrix type="matrix" values="0 0 0 0 0.309804 0 0 0 0 0.423529 0 0 0 0 0.643137 0 0 0 0.1 0"/>
<feBlend mode="normal" in2="BackgroundImageFix" result="effect1_dropShadow_1_209"/>
<feBlend mode="normal" in="SourceGraphic" in2="effect1_dropShadow_1_209" result="shape"/>
</filter>
<filter id="filter2_d_1_209" x="522" y="0" width="300" height="259" filterUnits="userSpaceOnUse" color-interpolation-filters="sRGB">
<feFlood flood-opacity="0" result="BackgroundImageFix"/>
<feColorMatrix in="SourceAlpha" type="matrix" values="0 0 0 0 0 0 0 0 0 0 0 0 0 0 0 0 0 0 127 0" result="hardAlpha"/>
<feOffset dx="-15" dy="30"/>
<feGaussianBlur stdDeviation="20"/>
<feComposite in2="hardAlpha" operator="out"/>
<feColorMatrix type="matrix" values="0 0 0 0 0.309804 0 0 0 0 0.423529 0 0 0 0 0.643137 0 0 0 0.15 0"/>
<feBlend mode="normal" in2="BackgroundImageFix" result="effect1_dropShadow_1_209"/>
<feBlend mode="normal" in="SourceGraphic" in2="effect1_dropShadow_1_209" result="shape"/>
</filter>
</defs>
</svg>
